<svg version="1.1" viewBox="0.0 0.0 1920.0 1440.0" fill="none" stroke="none" stroke-linecap="square" stroke-miterlimit="10" xmlns:xlink="http://www.w3.org/1999/xlink" xmlns="http://www.w3.org/2000/svg"><clipPath id="p.0"><path d="m0 0l1920.0 0l0 1440.0l-1920.0 0l0 -1440.0z" clip-rule="nonzero"/></clipPath><g clip-path="url(#p.0)"><defs><radialGradient id="p.1" gradientUnits="userSpaceOnUse" gradientTransform="matrix(48.98979485566356 0.0 0.0 48.98979485566356 0.0 0.0)" spreadMethod="pad" cx="39.19183588453085" cy="0.0" fx="39.19183588453085" fy="0.0" r="48.98979568481445"><stop offset="0.0" stop-color="#434343"/><stop offset="0.16" stop-color="#222222"/><stop offset="1.0" stop-color="#000000"/></radialGradient></defs><path fill="url(#p.1)" d="m0 0l1920.0 0l0 1440.0l-1920.0 0z" fill-rule="evenodd"/><path fill="#228444" d="m0 720.0l1920.0 0l0 720.0l-1920.0 0z" fill-rule="evenodd"/><path fill="#4d2904" d="m325.911 758.86633l0 0c0 -5.4852905 4.446686 -9.931946 9.931946 -9.931946l39.726654 0l0 0c2.6340942 0 5.1603394 1.0463867 7.022949 2.9089966c1.8626099 1.8626099 2.9089966 4.388855 2.9089966 7.022949l0 209.86835c0 5.4852905 -4.446686 9.932007 -9.931946 9.932007l-39.726654 0c-5.48526 0 -9.931946 -4.4467163 -9.931946 -9.932007z" fill-rule="evenodd"/><path fill="#4d2904" d="m1448.6141 860.21027l0 0c0 -7.6712646 6.218872 -13.890076 13.890137 -13.890076l55.55847 0l0 0c3.683838 0 7.216797 1.46344 9.821777 4.0682983c2.6048584 2.6049194 4.0682373 6.1378784 4.0682373 9.821777l0 293.66876c0 7.6712646 -6.21875 13.890015 -13.890015 13.890015l-55.55847 0c-7.6712646 0 -13.890137 -6.21875 -13.890137 -13.890015z" fill-rule="evenodd"/><path fill="#4d2904" d="m1755.0924 701.84796l0 0c0 -5.0388184 4.084717 -9.123535 9.123535 -9.123535l36.493164 0l0 0c2.4196777 0 4.7402344 0.96118164 6.451294 2.6721802c1.7109375 1.7109985 2.6722412 4.031616 2.6722412 6.451355l0 192.77655c0 5.0387573 -4.084839 9.123535 -9.123535 9.123535l-36.493164 0c-5.0388184 0 -9.123535 -4.084778 -9.123535 -9.123535z" fill-rule="evenodd"/><path fill="#954f09" d="m1759.9701 730.3182l0 0c0 -0.19714355 0.15979004 -0.35699463 0.3569336 -0.35699463l28.829346 0c0.09472656 0 0.1854248 0.037597656 0.2524414 0.10455322c0.06689453 0.06695557 0.10449219 0.15777588 0.10449219 0.2524414l0 1.4277954c0 0.19714355 -0.15979004 0.3569336 -0.3569336 0.3569336l-28.829346 0c-0.19714355 0 -0.3569336 -0.15979004 -0.3569336 -0.3569336z" fill-rule="evenodd"/><path fill="#b86b1c" d="m1778.5898 742.1147l0 0c0 -0.19714355 0.15979004 -0.35699463 0.3569336 -0.35699463l28.829346 0c0.09472656 0 0.18554688 0.03765869 0.2524414 0.10455322c0.0670166 0.06695557 0.10461426 0.15777588 0.10461426 0.2524414l0 1.4277954c0 0.19714355 -0.15991211 0.3569336 -0.35705566 0.3569336l-28.829346 0c-0.19714355 0 -0.3569336 -0.15979004 -0.3569336 -0.3569336z" fill-rule="evenodd"/><path fill="#476f35" d="m1723.6606 741.3219l0 0c0 -14.489868 11.746338 -26.236206 26.236206 -26.236206l0 0c6.958252 0 13.631592 2.7641602 18.551758 7.6844482c4.920288 4.920227 7.6844482 11.593506 7.6844482 18.551758l0 0c0 14.489868 -11.746338 26.236267 -26.236206 26.236267l0 0c-14.489868 0 -26.236206 -11.746399 -26.236206 -26.236267z" fill-rule="evenodd"/><path fill="#4e7320" d="m1721.7002 666.6457l0 0c0 -40.756042 33.039307 -73.79529 73.79529 -73.79529l0 0c19.571777 0 38.34192 7.7748413 52.181152 21.614136c13.839355 13.839294 21.614136 32.609436 21.614136 52.181152l0 0c0 40.75598 -33.039307 73.79523 -73.79529 73.79523l0 0c-40.75598 0 -73.79529 -33.039246 -73.79529 -73.79523z" fill-rule="evenodd"/><path fill="#192a12" d="m1773.6653 725.79767l0 0c0 -24.370056 19.75586 -44.125977 44.125977 -44.125977l0 0c11.702881 0 22.926514 4.648987 31.201782 12.924194c8.275269 8.275269 12.924194 19.49884 12.924194 31.201782l0 0c0 24.370117 -19.75586 44.126038 -44.125977 44.126038l0 0c-24.370117 0 -44.125977 -19.75592 -44.125977 -44.126038z" fill-rule="evenodd"/><path fill="#6d933c" d="m1666.6824 675.1407l0 0c0 -40.75598 33.039307 -73.79523 73.79529 -73.79523l0 0c19.571777 0 38.34192 7.7748413 52.181152 21.614136c13.839355 13.839294 21.614136 32.609375 21.614136 52.18109l0 0c0 40.756042 -33.039307 73.79529 -73.79529 73.79529l0 0c-40.75598 0 -73.79529 -33.039246 -73.79529 -73.79529z" fill-rule="evenodd"/><path fill="#954f09" d="m1448.6147 859.9826l0 0c0 -0.34210205 0.27734375 -0.6194458 0.61938477 -0.6194458l49.910767 0c0.16430664 0 0.3218994 0.06530762 0.43798828 0.18145752c0.11621094 0.1161499 0.18151855 0.27374268 0.18151855 0.43798828l0 2.4776611c0 0.34210205 -0.27734375 0.6194458 -0.61950684 0.6194458l-49.910767 0c-0.34204102 0 -0.61938477 -0.27734375 -0.61938477 -0.6194458z" fill-rule="evenodd"/><path fill="#b86b1c" d="m1480.8329 880.39453l0 0c0 -0.34210205 0.27734375 -0.6194458 0.61950684 -0.6194458l49.910767 0c0.16418457 0 0.32177734 0.06524658 0.43798828 0.18139648c0.11608887 0.11621094 0.18139648 0.27374268 0.18139648 0.43804932l0 2.4776611c0 0.34210205 -0.27734375 0.6194458 -0.61938477 0.6194458l-49.910767 0c-0.3421631 0 -0.61950684 -0.27734375 -0.61950684 -0.6194458z" fill-rule="evenodd"/><path fill="#3d602e" d="m1383.8351 861.22473l0 0c0 -25.065918 20.319946 -45.385864 45.385742 -45.385864l0 0c12.037109 0 23.581177 4.7817383 32.09265 13.293213c8.511475 8.511475 13.293213 20.055542 13.293213 32.09265l0 0c0 25.065857 -20.319946 45.385803 -45.385864 45.385803l0 0c-25.065796 0 -45.385742 -20.319946 -45.385742 -45.385803z" fill-rule="evenodd"/><path fill="#446719" d="m1292.2618 731.0347l0 0c0 -70.51849 57.166504 -127.68506 127.68506 -127.68506l0 0c33.864136 0 66.34143 13.452515 90.28699 37.39807c23.945557 23.945618 37.39807 56.42279 37.39807 90.28699l0 0c0 70.51849 -57.166504 127.685 -127.68506 127.685l0 0c-70.518555 0 -127.68506 -57.166504 -127.68506 -127.685z" fill-rule="evenodd"/><path fill="#2a4a1c" d="m1553.0791 861.22473l0 0c0 -25.065918 20.319946 -45.385864 45.385864 -45.385864l0 0c12.037109 0 23.581177 4.7817383 32.09265 13.293213c8.511475 8.511475 13.293213 20.055542 13.293213 32.09265l0 0c0 25.065857 -20.319946 45.385803 -45.385864 45.385803l0 0c-25.065918 0 -45.385864 -20.319946 -45.385864 -45.385803z" fill-rule="evenodd"/><path fill="#2a431e" d="m1430.0652 861.2237l0 0c0 -42.164978 34.181396 -76.346436 76.346436 -76.346436l0 0c20.248291 0 39.66736 8.04364 53.985107 22.361328c14.317749 14.317749 22.361328 33.736755 22.361328 53.985107l0 0c0 42.164978 -34.18152 76.3465 -76.346436 76.3465l0 0c-42.16504 0 -76.346436 -34.18152 -76.346436 -76.3465z" fill-rule="evenodd"/><path fill="#55732f" d="m1434.066 725.79694l0 0c0 -70.51849 57.166504 -127.68506 127.68506 -127.68506l0 0c33.864136 0 66.34131 13.452515 90.286865 37.398132c23.945679 23.945557 37.39807 56.42273 37.39807 90.28693l0 0c0 70.51849 -57.166504 127.68506 -127.68494 127.68506l0 0c-70.518555 0 -127.68506 -57.166565 -127.68506 -127.68506z" fill-rule="evenodd"/><path fill="#954f09" d="m336.49295 773.51904l0 0c0 -0.22613525 0.18331909 -0.40948486 0.40945435 -0.40948486l32.75589 0c0.10858154 0 0.21273804 0.043151855 0.28952026 0.11993408c0.07678223 0.07678223 0.11993408 0.1809082 0.11993408 0.28955078l0 1.6377563c0 0.22613525 -0.18331909 0.40948486 -0.40945435 0.40948486l-32.75589 0c-0.22613525 0 -0.40945435 -0.18334961 -0.40945435 -0.40948486z" fill-rule="evenodd"/><path fill="#b86b1c" d="m357.64154 786.9178l0 0c0 -0.22613525 0.18331909 -0.40942383 0.40948486 -0.40942383l32.75589 0c0.10858154 0 0.21273804 0.043151855 0.28952026 0.11993408c0.07678223 0.07678223 0.11993408 0.1809082 0.11993408 0.28948975l0 1.6378174c0 0.22613525 -0.18331909 0.40942383 -0.40945435 0.40942383l-32.75589 0c-0.22616577 0 -0.40948486 -0.18328857 -0.40948486 -0.40942383z" fill-rule="evenodd"/><path fill="#40652f" d="m281.58817 787.7359l0 0c0 -16.455444 13.339783 -29.795288 29.795258 -29.795288l0 0c7.9022217 0 15.480743 3.1391602 21.06845 8.726868c5.5877075 5.5877075 8.726837 13.16626 8.726837 21.06842l0 0c0 16.455505 -13.339813 29.795288 -29.795288 29.795288l0 0c-16.455475 0 -29.795258 -13.339783 -29.795258 -29.795288z" fill-rule="evenodd"/><path fill="#426219" d="m247.83397 666.64594l0 0c0 -46.287537 37.523483 -83.811035 83.81102 -83.811035l0 0c22.228058 0 43.545746 8.830078 59.263336 24.547668c15.717621 15.717651 24.547699 37.03528 24.547699 59.263367l0 0c0 46.287537 -37.523468 83.811035 -83.811035 83.811035l0 0c-46.287537 0 -83.81102 -37.5235 -83.81102 -83.811035z" fill-rule="evenodd"/><path fill="#2d4a21" d="m329.92218 765.1955l0 0c0 -27.67511 22.43512 -50.11023 50.11023 -50.11023l0 0c13.29007 0 26.035797 5.27948 35.43329 14.676941c9.397491 9.397522 14.676941 22.14325 14.676941 35.43329l0 0c0 27.67511 -22.43509 50.11023 -50.11023 50.11023l0 0c-27.67511 0 -50.11023 -22.43512 -50.11023 -50.11023z" fill-rule="evenodd"/><path fill="#384d1d" d="m318.52505 691.75415l0 0c0 -46.287598 37.5235 -83.811035 83.811035 -83.811035l0 0c22.228058 0 43.545715 8.830078 59.263336 24.547668c15.717621 15.717651 24.547699 37.03528 24.547699 59.263367l0 0c0 46.287537 -37.5235 83.811035 -83.811035 83.811035l0 0c-46.287537 0 -83.811035 -37.5235 -83.811035 -83.811035z" fill-rule="evenodd"/><path fill="#567430" d="m197.38596 702.69904l0 0c0 -46.287598 37.523468 -83.811035 83.811035 -83.811035l0 0c22.228058 0 43.545715 8.830078 59.263336 24.547668c15.717621 15.71759 24.547668 37.03528 24.547668 59.263367l0 0c0 46.287537 -37.523468 83.810974 -83.811005 83.810974l0 0c-46.287567 0 -83.811035 -37.523438 -83.811035 -83.810974z" fill-rule="evenodd"/><defs><radialGradient id="p.2" gradientUnits="userSpaceOnUse" gradientTransform="matrix(14.340955206227864 0.0 0.0 14.340955206227864 0.0 0.0)" spreadMethod="pad" cx="81.85758853698181" cy="52.283917410165586" fx="81.85758853698181" fy="52.283917410165586" r="14.340954780578613"><stop offset="0.0" stop-color="#f6b26b"/><stop offset="0.5" stop-color="#f6b26b" stop-opacity="0.0"/><stop offset="0.50000006" stop-color="#ffffff" stop-opacity="0.0"/><stop offset="1.0" stop-color="#737373" stop-opacity="0.0"/></radialGradient></defs><path fill="url(#p.2)" d="m1090.105 749.80133l0 0c0 -103.72516 37.523438 -187.81104 83.811035 -187.81104l0 0c22.228027 0 43.545776 19.78717 59.263306 55.008545c15.717651 35.221436 24.54773 82.99188 24.54773 132.80249l0 0c0 103.72516 -37.523438 187.81104 -83.811035 187.81104l0 0c-46.287598 0 -83.811035 -84.08588 -83.811035 -187.81104z" fill-rule="evenodd"/><path fill="#f1c232" d="m1157.6798 827.4803l0 0c8.967041 0 16.236206 -34.4776 16.236206 -77.00787c0 -42.530273 -7.269165 -77.00787 -16.236206 -77.00787l32.472412 0c8.967041 0 16.236206 34.4776 16.236206 77.00787c0 42.530273 -7.269165 77.00787 -16.236206 77.00787z" fill-rule="evenodd"/><path fill="#f6da84" d="m1157.6798 827.4803l0 0c-8.967041 0 -16.236206 -34.4776 -16.236206 -77.00787c0 -42.530273 7.269165 -77.00787 16.236206 -77.00787l0 0c8.967041 0 16.236206 34.4776 16.236206 77.00787c0 42.530273 -7.269165 77.00787 -16.236206 77.00787z" fill-rule="evenodd"/><path fill="#000000" fill-opacity="0.0" d="m1157.6798 673.46454l0 0c8.967041 0 16.236206 34.4776 16.236206 77.00787c0 42.530273 -7.269165 77.00787 -16.236206 77.00787l0 0c-8.967041 0 -16.236206 -34.4776 -16.236206 -77.00787c0 -42.530273 7.269165 -77.00787 16.236206 -77.00787l32.472412 0c8.967041 0 16.236206 34.4776 16.236206 77.00787c0 42.530273 -7.269165 77.00787 -16.236206 77.00787l-32.472412 0" fill-rule="evenodd"/><defs><radialGradient id="p.3" gradientUnits="userSpaceOnUse" gradientTransform="matrix(14.335882626816192 8.239870119130803 -8.239870119130803 14.335882626816192 0.0 0.0)" spreadMethod="pad" cx="66.44463778493981" cy="18.05115689411446" fx="66.44463778493981" fy="18.05115689411446" r="14.335882186889648"><stop offset="0.0" stop-color="#6d9eeb"/><stop offset="1.0" stop-color="#1155cc"/></radialGradient></defs><path fill="url(#p.3)" d="m616.71674 795.4083l0 0c23.06549 -40.12982 74.29541 -53.963135 114.42517 -30.897644l0 0c19.270996 11.076416 33.35266 29.354614 39.147095 50.813477c5.7944336 21.458862 2.8270264 44.3407 -8.249451 63.611694l0 0c-23.06549 40.12982 -74.29541 53.963135 -114.42517 30.897644l0 0c-40.12982 -23.06549 -53.963135 -74.29541 -30.897644 -114.42517z" fill-rule="evenodd"/><defs><radialGradient id="p.4" gradientUnits="userSpaceOnUse" gradientTransform="matrix(10.886996260770049 0.0 0.0 10.886996260770049 0.0 0.0)" spreadMethod="pad" cx="65.30153606871353" cy="73.32030936160233" fx="65.30153606871353" fy="73.32030936160233" r="10.886996269226074"><stop offset="0.0" stop-color="#6d9eeb"/><stop offset="0.64" stop-color="#6d9eeb" stop-opacity="0.0"/><stop offset="0.64000005" stop-color="#ffffff" stop-opacity="0.0"/><stop offset="1.0" stop-color="#6d9eeb" stop-opacity="0.0"/></radialGradient></defs><path fill="url(#p.4)" d="m627.1265 798.2379l0 0c0 -46.287537 37.5235 -83.811035 83.811035 -83.811035l0 0c22.228088 0 43.545715 8.830078 59.263367 24.54773c15.71759 15.71759 24.547668 37.03528 24.547668 59.263306l0 0c0 46.287598 -37.523438 83.811035 -83.811035 83.811035l0 0c-46.287537 0 -83.811035 -37.523438 -83.811035 -83.811035z" fill-rule="evenodd"/><defs><radialGradient id="p.5" gradientUnits="userSpaceOnUse" gradientTransform="matrix(15.396537765486174 0.0 0.0 15.396537765486174 0.0 0.0)" spreadMethod="pad" cx="67.79504496255038" cy="60.63429051723188" fx="67.79504496255038" fy="60.63429051723188" r="15.396537780761719"><stop offset="0.0" stop-color="#a4c2f4"/><stop offset="1.0" stop-color="#1155cc"/></radialGradient></defs><path fill="url(#p.5)" d="m876.18695 1017.36914l0 0c0 -46.287537 37.523438 -83.810974 83.810974 -83.810974l0 0c22.228088 0 43.545776 8.830017 59.263367 24.547668c15.71759 15.71759 24.547668 37.03528 24.547668 59.263306l0 0c0 46.287598 -37.523438 83.811035 -83.811035 83.811035l0 0c-46.287537 0 -83.810974 -37.523438 -83.810974 -83.811035z" fill-rule="evenodd"/><defs><radialGradient id="p.6" gradientUnits="userSpaceOnUse" gradientTransform="matrix(21.079672538195908 4.559937183084905 -4.559937183084905 21.079672538195908 0.0 0.0)" spreadMethod="pad" cx="54.084480653711196" cy="23.31650698813291" fx="54.084480653711196" fy="23.31650698813291" r="21.07967185974121"><stop offset="0.0" stop-color="#fff2cc"/><stop offset="0.33" stop-color="#709de6"/><stop offset="1.0" stop-color="#3c78d8"/></radialGradient></defs><path fill="url(#p.6)" d="m685.5724 827.26l0 0c18.768982 -86.7652 104.32135 -141.88708 191.08661 -123.1181l0 0c41.666138 9.013184 78.04523 34.209045 101.13434 70.04474c23.089172 35.835693 30.996948 79.37573 21.983765 121.04187l0 0c-18.768982 86.76526 -104.32141 141.88708 -191.08661 123.1181l0 0c-86.76526 -18.768982 -141.88715 -104.32135 -123.1181 -191.08661z" fill-rule="evenodd"/><defs><radialGradient id="p.7" gradientUnits="userSpaceOnUse" gradientTransform="matrix(15.076426580972148 0.0 0.0 15.076426580972148 0.0 0.0)" spreadMethod="pad" cx="54.962131873979324" cy="58.159315203772366" fx="54.962131873979324" fy="58.159315203772366" r="15.07642650604248"><stop offset="0.0" stop-color="#1155cc"/><stop offset="0.64" stop-color="#1155cc" stop-opacity="0.0"/><stop offset="0.64000005" stop-color="#ffffff" stop-opacity="0.0"/><stop offset="1.0" stop-color="#6d9eeb" stop-opacity="0.0"/></radialGradient></defs><path fill="url(#p.7)" d="m667.90814 876.83466l0 0c0 -88.765625 71.95874 -160.72443 160.72443 -160.72443l0 0c42.62677 0 83.50763 16.93341 113.64929 47.075073c30.141663 30.141724 47.075073 71.02258 47.075073 113.64935l0 0c0 88.765625 -71.95874 160.72443 -160.72437 160.72443l0 0c-88.765686 0 -160.72443 -71.9588 -160.72443 -160.72443z" fill-rule="evenodd"/><defs><radialGradient id="p.8" gradientUnits="userSpaceOnUse" gradientTransform="matrix(15.396537765486174 0.0 0.0 15.396537765486174 0.0 0.0)" spreadMethod="pad" cx="71.66232583211574" cy="49.37299800286969" fx="71.66232583211574" fy="49.37299800286969" r="15.396537780761719"><stop offset="0.0" stop-color="#b9e0ff"/><stop offset="1.0" stop-color="#6fa8dc"/></radialGradient></defs><path fill="url(#p.8)" d="m935.7297 843.98425l0 0c0 -46.287537 37.523438 -83.811035 83.811035 -83.811035l0 0c22.228088 0 43.545715 8.830078 59.263367 24.547668c15.717529 15.717651 24.547607 37.03528 24.547607 59.263367l0 0c0 46.287537 -37.523438 83.811035 -83.810974 83.811035l0 0c-46.287598 0 -83.811035 -37.5235 -83.811035 -83.811035z" fill-rule="evenodd"/><defs><radialGradient id="p.9" gradientUnits="userSpaceOnUse" gradientTransform="matrix(10.886996260770049 0.0 0.0 10.886996260770049 0.0 0.0)" spreadMethod="pad" cx="94.83071695473919" cy="76.58458594238809" fx="94.83071695473919" fy="76.58458594238809" r="10.886996269226074"><stop offset="0.0" stop-color="#b7e7ff"/><stop offset="0.64" stop-color="#b7e7ff" stop-opacity="0.0"/><stop offset="0.64000005" stop-color="#ffffff" stop-opacity="0.0"/><stop offset="1.0" stop-color="#6d9eeb" stop-opacity="0.0"/></radialGradient></defs><path fill="url(#p.9)" d="m948.61066 833.7761l0 0c0 -46.287598 37.523438 -83.811035 83.810974 -83.811035l0 0c22.22815 0 43.545776 8.830078 59.263428 24.547668c15.717529 15.71759 24.547607 37.03528 24.547607 59.263367l0 0c0 46.287537 -37.523438 83.810974 -83.811035 83.810974l0 0c-46.287537 0 -83.810974 -37.523438 -83.810974 -83.810974z" fill-rule="evenodd"/><defs><radialGradient id="p.10" gradientUnits="userSpaceOnUse" gradientTransform="matrix(15.396537765486174 0.0 0.0 15.396537765486174 0.0 0.0)" spreadMethod="pad" cx="51.34317499486464" cy="61.5487000014888" fx="51.34317499486464" fy="61.5487000014888" r="15.396537780761719"><stop offset="0.0" stop-color="#6d9eeb"/><stop offset="1.0" stop-color="#1155cc"/></radialGradient></defs><path fill="url(#p.10)" d="m622.8851 1031.4479l0 0c0 -46.287537 37.5235 -83.810974 83.811035 -83.810974l0 0c22.228088 0 43.545715 8.830017 59.263367 24.547668c15.71759 15.71759 24.547668 37.03528 24.547668 59.263306l0 0c0 46.287598 -37.5235 83.811035 -83.811035 83.811035l0 0c-46.287537 0 -83.811035 -37.523438 -83.811035 -83.811035z" fill-rule="evenodd"/><path fill="#ffffff" d="m1849.2651 126.855644l0 0c-23.587402 0 -42.70874 -19.121315 -42.70874 -42.708656c0 -23.587345 19.121338 -42.708664 42.70874 -42.708664l0 0c-13.442871 10.082146 -21.35437 25.905083 -21.35437 42.708664c0 16.803574 7.911499 32.62651 21.35437 42.708656z" fill-rule="evenodd"/><path fill="#ffffff" d="m370.54593 88.567665l0 0c0 1.0262909 0.8319702 1.8582687 1.8582764 1.8582687l0 0c0.49282837 0 0.9654846 -0.19578552 1.3139954 -0.5442734c0.34848022 -0.34849548 0.544281 -0.82115173 0.544281 -1.3139954l0 0c0 -1.0262909 -0.83200073 -1.8582687 -1.8582764 -1.8582687l0 0c-1.0263062 0 -1.8582764 0.83197784 -1.8582764 1.8582687z" fill-rule="evenodd"/><path fill="#ffffff" d="m162.54593 168.56766l0 0c0 1.0263062 0.8319702 1.8582764 1.8582764 1.8582764l0 0c0.49284363 0 0.9654999 -0.19578552 1.3139954 -0.544281c0.34848022 -0.34849548 0.54426575 -0.82115173 0.54426575 -1.3139954l0 0c0 -1.0262909 -0.8319702 -1.8582611 -1.8582611 -1.8582611l0 0c-1.0263062 0 -1.8582764 0.8319702 -1.8582764 1.8582611z" fill-rule="evenodd"/><path fill="#ffffff" d="m322.54593 328.56766l0 0c0 1.0263062 0.8319702 1.8582764 1.8582764 1.8582764l0 0c0.49282837 0 0.9654846 -0.19577026 1.3139954 -0.544281c0.34848022 -0.34848022 0.544281 -0.8211365 0.544281 -1.3139954l0 0c0 -1.0262756 -0.83200073 -1.8582764 -1.8582764 -1.8582764l0 0c-1.0263062 0 -1.8582764 0.83200073 -1.8582764 1.8582764z" fill-rule="evenodd"/><path fill="#ffffff" d="m226.54593 440.56766l0 0c0 1.0263062 0.8319702 1.8582764 1.8582764 1.8582764l0 0c0.49284363 0 0.9654999 -0.19577026 1.3139954 -0.544281c0.34848022 -0.34848022 0.54426575 -0.8211365 0.54426575 -1.3139954l0 0c0 -1.0262756 -0.8319702 -1.8582764 -1.8582611 -1.8582764l0 0c-1.0263062 0 -1.8582764 0.83200073 -1.8582764 1.8582764z" fill-rule="evenodd"/><path fill="#ffffff" d="m466.54593 536.5677l0 0c0 1.0262451 0.8319702 1.8582153 1.8582764 1.8582153l0 0c0.49282837 0 0.9654846 -0.19573975 1.3139954 -0.5442505c0.34848022 -0.34851074 0.544281 -0.821167 0.544281 -1.3139648l0 0c0 -1.0263062 -0.83200073 -1.8582764 -1.8582764 -1.8582764l0 0c-1.0263062 0 -1.8582764 0.8319702 -1.8582764 1.8582764z" fill-rule="evenodd"/><path fill="#ffffff" d="m658.54596 424.56766l0 0c0 1.0263062 0.8319702 1.8582764 1.8582153 1.8582764l0 0c0.4928589 0 0.96551514 -0.19577026 1.3140259 -0.544281c0.34851074 -0.34848022 0.5442505 -0.8211365 0.5442505 -1.3139954l0 0c0 -1.0262756 -0.8319702 -1.8582764 -1.8582764 -1.8582764l0 0c-1.0262451 0 -1.8582153 0.83200073 -1.8582153 1.8582764z" fill-rule="evenodd"/><path fill="#ffffff" d="m562.54596 312.56766l0 0c0 1.0263062 0.8319702 1.8582764 1.8582153 1.8582764l0 0c0.4928589 0 0.96551514 -0.19577026 1.3140259 -0.544281c0.34851074 -0.34848022 0.5442505 -0.8211365 0.5442505 -1.3139954l0 0c0 -1.0262756 -0.8319702 -1.8582764 -1.8582764 -1.8582764l0 0c-1.0262451 0 -1.8582153 0.83200073 -1.8582153 1.8582764z" fill-rule="evenodd"/><path fill="#ffffff" d="m898.54596 312.56766l0 0c0 1.0263062 0.8319702 1.8582764 1.8582153 1.8582764l0 0c0.4928589 0 0.96551514 -0.19577026 1.3140259 -0.544281c0.34851074 -0.34848022 0.5442505 -0.8211365 0.5442505 -1.3139954l0 0c0 -1.0262756 -0.8319702 -1.8582764 -1.8582764 -1.8582764l0 0c-1.0262451 0 -1.8582153 0.83200073 -1.8582153 1.8582764z" fill-rule="evenodd"/><path fill="#ffffff" d="m754.54596 168.56766l0 0c0 1.0263062 0.8319702 1.8582764 1.8582153 1.8582764l0 0c0.4928589 0 0.96551514 -0.19578552 1.3140259 -0.544281c0.34851074 -0.34849548 0.5442505 -0.82115173 0.5442505 -1.3139954l0 0c0 -1.0262909 -0.8319702 -1.8582611 -1.8582764 -1.8582611l0 0c-1.0262451 0 -1.8582153 0.8319702 -1.8582153 1.8582611z" fill-rule="evenodd"/><path fill="#ffffff" d="m578.54596 104.567665l0 0c0 1.0262909 0.8319702 1.8582687 1.8582153 1.8582687l0 0c0.4928589 0 0.96551514 -0.19578552 1.3140259 -0.5442734c0.34851074 -0.34849548 0.5442505 -0.82115173 0.5442505 -1.3139954l0 0c0 -1.0262909 -0.8319702 -1.8582687 -1.8582764 -1.8582687l0 0c-1.0262451 0 -1.8582153 0.83197784 -1.8582153 1.8582687z" fill-rule="evenodd"/><path fill="#ffffff" d="m802.54596 520.5677l0 0c0 1.0262451 0.8319702 1.8582153 1.8582153 1.8582153l0 0c0.4928589 0 0.96551514 -0.19573975 1.3140259 -0.5442505c0.34851074 -0.34851074 0.5442505 -0.821167 0.5442505 -1.3139648l0 0c0 -1.0263062 -0.8319702 -1.8582764 -1.8582764 -1.8582764l0 0c-1.0262451 0 -1.8582153 0.8319702 -1.8582153 1.8582764z" fill-rule="evenodd"/><path fill="#ffffff" d="m1106.5459 552.5677l0 0c0 1.0262451 0.83203125 1.8582153 1.8582764 1.8582153l0 0c0.49291992 0 0.9655762 -0.19573975 1.3139648 -0.5442505c0.34851074 -0.34851074 0.5443115 -0.821167 0.5443115 -1.3139648l0 0c0 -1.0263062 -0.8319092 -1.8582764 -1.8582764 -1.8582764l0 0c-1.0262451 0 -1.8582764 0.8319702 -1.8582764 1.8582764z" fill-rule="evenodd"/><path fill="#ffffff" d="m946.54596 376.56766l0 0c0 1.0263062 0.8319702 1.8582764 1.8582153 1.8582764l0 0c0.4928589 0 0.96551514 -0.19577026 1.3140259 -0.544281c0.34851074 -0.34848022 0.5442505 -0.8211365 0.5442505 -1.3139954l0 0c0 -1.0262756 -0.8319702 -1.8582764 -1.8582764 -1.8582764l0 0c-1.0262451 0 -1.8582153 0.83200073 -1.8582153 1.8582764z" fill-rule="evenodd"/><path fill="#ffffff" d="m898.54596 344.56766l0 0c0 1.0263062 0.8319702 1.8582764 1.8582153 1.8582764l0 0c0.4928589 0 0.96551514 -0.19577026 1.3140259 -0.544281c0.34851074 -0.34848022 0.5442505 -0.8211365 0.5442505 -1.3139954l0 0c0 -1.0262756 -0.8319702 -1.8582764 -1.8582764 -1.8582764l0 0c-1.0262451 0 -1.8582153 0.83200073 -1.8582153 1.8582764z" fill-rule="evenodd"/><path fill="#ffffff" d="m978.54596 328.56766l0 0c0 1.0263062 0.8319702 1.8582764 1.8582153 1.8582764l0 0c0.4928589 0 0.96551514 -0.19577026 1.3140259 -0.544281c0.34851074 -0.34848022 0.5442505 -0.8211365 0.5442505 -1.3139954l0 0c0 -1.0262756 -0.8319702 -1.8582764 -1.8582764 -1.8582764l0 0c-1.0262451 0 -1.8582153 0.83200073 -1.8582153 1.8582764z" fill-rule="evenodd"/><path fill="#ffffff" d="m1186.5459 216.56766l0 0c0 1.0263062 0.83203125 1.8582764 1.8582764 1.8582764l0 0c0.49291992 0 0.9655762 -0.19578552 1.3139648 -0.544281c0.34851074 -0.34849548 0.5443115 -0.82115173 0.5443115 -1.3139954l0 0c0 -1.0262909 -0.8319092 -1.8582611 -1.8582764 -1.8582611l0 0c-1.0262451 0 -1.8582764 0.8319702 -1.8582764 1.8582611z" fill-rule="evenodd"/><path fill="#000000" d="m1190.9965 210.32141l-3.21875 -0.421875q0.515625 -3.34375 2.703125 -5.234375q2.171875 -1.875 5.34375 -1.875q3.984375 0 6.40625 2.59375q2.40625 2.59375 2.40625 7.453125q0 3.125 -1.03125 5.46875q-1.046875 2.359375 -3.171875 3.53125q-2.125 1.1875 -4.625 1.1875q-3.15625 0 -5.15625 -1.59375q-2.0 -1.59375 -2.578125 -4.53125l3.203125 -0.5q0.453125 1.953125 1.609375 2.9375q1.15625 0.984375 2.796875 0.984375q2.484375 0 4.03125 -1.78125q1.546875 -1.765625 1.546875 -5.609375q0 -3.90625 -1.484375 -5.671875q-1.5 -1.765625 -3.90625 -1.765625q-1.9375 0 -3.234375 1.171875q-1.296875 1.1875 -1.640625 3.65625z" fill-rule="nonzero"/><path fill="#ffffff" d="m1058.5459 88.567665l0 0c0 1.0262909 0.83203125 1.8582687 1.8582764 1.8582687l0 0c0.49291992 0 0.9655762 -0.19578552 1.3139648 -0.5442734c0.34851074 -0.34849548 0.5443115 -0.82115173 0.5443115 -1.3139954l0 0c0 -1.0262909 -0.8319092 -1.8582687 -1.8582764 -1.8582687l0 0c-1.0262451 0 -1.8582764 0.83197784 -1.8582764 1.8582687z" fill-rule="evenodd"/><path fill="#ffffff" d="m1314.5459 408.56766l0 0c0 1.0263062 0.83203125 1.8582764 1.8582764 1.8582764l0 0c0.49291992 0 0.9655762 -0.19577026 1.3139648 -0.544281c0.34851074 -0.34848022 0.5443115 -0.8211365 0.5443115 -1.3139954l0 0c0 -1.0262756 -0.8319092 -1.8582764 -1.8582764 -1.8582764l0 0c-1.0262451 0 -1.8582764 0.83200073 -1.8582764 1.8582764z" fill-rule="evenodd"/><path fill="#ffffff" d="m1266.5459 520.5677l0 0c0 1.0262451 0.83203125 1.8582153 1.8582764 1.8582153l0 0c0.49291992 0 0.9655762 -0.19573975 1.3139648 -0.5442505c0.34851074 -0.34851074 0.5443115 -0.821167 0.5443115 -1.3139648l0 0c0 -1.0263062 -0.8319092 -1.8582764 -1.8582764 -1.8582764l0 0c-1.0262451 0 -1.8582764 0.8319702 -1.8582764 1.8582764z" fill-rule="evenodd"/><path fill="#ffffff" d="m1602.5459 264.56766l0 0c0 1.0263062 0.83203125 1.8582764 1.8582764 1.8582764l0 0c0.49291992 0 0.9655762 -0.19577026 1.3139648 -0.544281c0.34851074 -0.34848022 0.5443115 -0.8211365 0.5443115 -1.3139954l0 0c0 -1.0262756 -0.8319092 -1.8582764 -1.8582764 -1.8582764l0 0c-1.0262451 0 -1.8582764 0.83200073 -1.8582764 1.8582764z" fill-rule="evenodd"/><path fill="#ffffff" d="m1465.7166 264.56766l0 0c0 1.0263062 0.8319092 1.8582764 1.8582764 1.8582764l0 0c0.49279785 0 0.9654541 -0.19577026 1.3139648 -0.544281c0.34851074 -0.34848022 0.5443115 -0.8211365 0.5443115 -1.3139954l0 0c0 -1.0262756 -0.83203125 -1.8582764 -1.8582764 -1.8582764l0 0c-1.0263672 0 -1.8582764 0.83200073 -1.8582764 1.8582764z" fill-rule="evenodd"/><path fill="#ffffff" d="m1514.0682 482.23172l0 0c0 1.0262756 0.83203125 1.8582458 1.8582764 1.8582458l0 0c0.49279785 0 0.9654541 -0.19577026 1.3139648 -0.544281c0.34851074 -0.34848022 0.5443115 -0.8211365 0.5443115 -1.3139648l0 0c0 -1.0263062 -0.83203125 -1.8582764 -1.8582764 -1.8582764l0 0c-1.0262451 0 -1.8582764 0.8319702 -1.8582764 1.8582764z" fill-rule="evenodd"/><path fill="#ffffff" d="m1706.0682 498.23172l0 0c0 1.0262756 0.83203125 1.8582458 1.8582764 1.8582458l0 0c0.49279785 0 0.9654541 -0.19577026 1.3139648 -0.544281c0.34851074 -0.34848022 0.5443115 -0.8211365 0.5443115 -1.3139648l0 0c0 -1.0263062 -0.83203125 -1.8582764 -1.8582764 -1.8582764l0 0c-1.0262451 0 -1.8582764 0.8319702 -1.8582764 1.8582764z" fill-rule="evenodd"/><path fill="#ffffff" d="m1434.0682 130.2317l0 0c0 1.0262909 0.83203125 1.8582611 1.8582764 1.8582611l0 0c0.49279785 0 0.9654541 -0.19577026 1.3139648 -0.54426575c0.34851074 -0.34849548 0.5443115 -0.82115173 0.5443115 -1.3139954l0 0c0 -1.0262909 -0.83203125 -1.8582611 -1.8582764 -1.8582611l0 0c-1.0262451 0 -1.8582764 0.8319702 -1.8582764 1.8582611z" fill-rule="evenodd"/></g></svg>