<svg version="1.1" viewBox="0.0 0.0 256.0 384.0" fill="none" stroke="none" stroke-linecap="square" stroke-miterlimit="10" xmlns:xlink="http://www.w3.org/1999/xlink" xmlns="http://www.w3.org/2000/svg"><clipPath id="p.0"><path d="m0 0l256.0 0l0 384.0l-256.0 0l0 -384.0z" clip-rule="nonzero"/></clipPath><g clip-path="url(#p.0)"><path fill="#000000" fill-opacity="0.0" d="m0 0l256.0 0l0 384.0l-256.0 0z" fill-rule="evenodd"/><path fill="#6d9eeb" d="m17.312313 48.468754c1.1865063 0 2.3026257 0.23868561 3.34836 0.716053c1.0457344 0.47034836 1.9607506 1.1161957 2.7450504 1.9375496c0.78430176 0.8213539 1.4010181 1.7866211 1.8501453 2.8957977c0.45583344 1.1021576 0.68374825 2.274517 0.68374825 3.5170784c0 1.2425575 -0.22791481 2.4184303 -0.68374825 3.527607c-0.4491272 1.1021576 -1.0658436 2.0639153 -1.8501453 2.8852654c-0.78429985 0.8213577 -1.699316 1.4707184 -2.7450504 1.948082c-1.0457344 0.47034454 -2.1618538 0.70552063 -3.34836 0.70552063l-8.65747 0l0 -18.132954zm-17.31494 -9.066479l0 45.300804l8.657471 0l0 -9.066483l8.65747 0c2.3730125 0 4.6086044 -0.47385406 6.7067738 -1.4215698c2.1048775 -0.94771576 3.9416122 -2.2429276 5.510214 -3.8856354c1.5686016 -1.6427078 2.8053818 -3.5627136 3.7103462 -5.760002c0.90496063 -2.204319 1.357441 -4.549038 1.357441 -7.034157c0 -1.6637688 -0.20780563 -3.2643547 -0.6234169 -4.801758c-0.40890884 -1.5374069 -0.9921074 -2.9800415 -1.7495956 -4.3279037c-0.7507801 -1.3478622 -1.6557426 -2.5728683 -2.7148857 -3.6750298c-1.0524349 -1.1091766 -2.21883 -2.0568924 -3.4991856 -2.8431473c-1.2736492 -0.7932701 -2.6445007 -1.4040222 -4.1125507 -1.8322487c-1.4680481 -0.4352455 -2.9964294 -0.6528702 -4.58514 -0.6528702z" fill-rule="evenodd"/><path fill="#6d9eeb" d="m53.571125 58.293404c0.40220642 0 0.78765106 0.021060944 1.1563416 0.06318283c0.3753891 0.042118073 0.75413513 0.13689041 1.1362305 0.2843132l-9.592598 13.3312c-0.16088104 -0.29484558 -0.29159927 -0.63181305 -0.39215088 -1.0108948c-0.100551605 -0.37908936 -0.18769455 -0.7722168 -0.26143265 -1.1793823c-0.06703186 -0.4141922 -0.11730957 -0.8213577 -0.15082932 -1.2215042c-0.026809692 -0.40014648 -0.040218353 -0.7581711 -0.040218353 -1.0740738c0 -1.4110413 0.21115875 -2.6781693 0.63347244 -3.8013916c0.4223175 -1.1302376 0.9988136 -2.0955048 1.7294846 -2.8957977c0.73737717 -0.80029297 1.6021194 -1.4145508 2.594223 -1.8427811c0.9988098 -0.4352455 2.0613022 -0.6528702 3.187477 -0.6528702zm0 -8.718983c-2.272461 0 -4.4108505 0.431736 -6.4151764 1.2952118c-1.9976158 0.8634758 -3.7472115 2.0744438 -5.2487793 3.6329079c-1.4948616 1.5584679 -2.6746635 3.443367 -3.5394058 5.654705c-0.8647423 2.2113342 -1.2971115 4.654331 -1.2971115 7.3289986c0 2.6114807 0.43236923 5.00885 1.2971115 7.192108c0.8647423 2.1762314 2.0445442 4.0541153 3.5394058 5.633644c1.5015678 1.5795212 3.2511635 2.811554 5.2487793 3.6960907c2.0043259 0.8845291 4.1427193 1.3267975 6.4151764 1.3267975c1.3473892 0 2.6579056 -0.1649704 3.9315567 -0.49491882c1.2803535 -0.32292175 2.4970245 -0.80029297 3.650013 -1.4320984c1.1596947 -0.63181305 2.235592 -1.4005127 3.2276993 -2.3061142c0.9988098 -0.9055939 1.88031 -1.9270172 2.6445007 -3.0642776l-6.033081 -6.3496933c-0.32176208 0.7581711 -0.7407265 1.4496536 -1.2568893 2.0744476c-0.50946426 0.61776733 -1.092659 1.1442719 -1.7495956 1.5795212c-0.6502304 0.4282303 -1.3473854 0.7581711 -2.0914688 0.98983765c-0.7440796 0.23166656 -1.518322 0.34749603 -2.3227348 0.34749603c-0.32176208 0 -0.643528 -0.014045715 -0.9652939 -0.042121887c-0.32176208 -0.035102844 -0.643528 -0.1053009 -0.96529007 -0.2106018l15.444687 -19.491348c-0.7641907 -1.1372604 -1.6490479 -2.162197 -2.6545563 -3.07481c-1.005516 -0.9196358 -2.0881195 -1.6953583 -3.2478104 -2.3271675c-1.1529884 -0.63181305 -2.3730125 -1.1161995 -3.6600685 -1.453167c-1.287056 -0.33696365 -2.6042786 -0.5054474 -3.9516678 -0.5054474z" fill-rule="evenodd"/><path fill="#6d9eeb" d="m87.05472 58.293404c1.1261749 0 2.185318 0.23166275 3.1774292 0.69499207c0.9988098 0.4633255 1.8702545 1.1056671 2.614334 1.927021c0.7440796 0.8213539 1.3306274 1.7971497 1.7596436 2.9273872c0.43572235 1.1232224 0.65358734 2.3377 0.65358734 3.6434402c0 1.3057404 -0.21786499 2.5167084 -0.65358734 3.6329117c-0.4290161 1.1161957 -1.015564 2.0849686 -1.7596436 2.9063263c-0.7440796 0.8213501 -1.6155243 1.4707108 -2.614334 1.948082c-0.9921112 0.47034454 -2.0512543 0.70552063 -3.1774292 0.70552063c-1.1261749 0 -2.1886673 -0.23517609 -3.187477 -0.70552063c-0.9921036 -0.47737122 -1.860199 -1.1267319 -2.6042786 -1.948082c-0.7440796 -0.8213577 -1.3272781 -1.7901306 -1.749588 -2.9063263c-0.4223175 -1.1162033 -0.63347626 -2.3271713 -0.63347626 -3.6329117c0 -1.1793823 0.21115875 -2.3201447 0.63347626 -3.4223022c0.42230988 -1.1091805 1.0055084 -2.0884857 1.749588 -2.9379234c0.7440796 -0.85645294 1.612175 -1.5409126 2.6042786 -2.0533829c0.9988098 -0.5194855 2.0613022 -0.779232 3.187477 -0.779232zm-16.500473 -20.881332l0 30.074173c0 2.6114807 0.43237305 5.00885 1.2971115 7.192108c0.8647461 2.1762314 2.044548 4.0541153 3.5394058 5.633644c1.5015717 1.5795212 3.2511673 2.811554 5.248787 3.6960907c2.0043182 0.8845291 4.1427155 1.3267975 6.415169 1.3267975c2.292572 0 4.437668 -0.43173218 6.4352875 -1.2952118c2.0043259 -0.863472 3.7505646 -2.0779572 5.2387238 -3.6434402c1.4881592 -1.5725021 2.6646118 -3.4538956 3.529358 -5.6441727c0.86473846 -2.1902695 1.2971115 -4.612213 1.2971115 -7.2658157c0 -2.5904236 -0.43237305 -4.973751 -1.2971115 -7.1499863c-0.8647461 -2.1832542 -2.0411987 -4.0751762 -3.529358 -5.675762c-1.4881592 -1.6005859 -3.234398 -2.8466568 -5.2387238 -3.7382126c-1.9976196 -0.8985748 -4.1427155 -1.3478622 -6.4352875 -1.3478622c-0.7440796 0 -1.5082703 0.08073425 -2.2925644 0.24219513c-0.78430176 0.15444183 -1.5451431 0.37908554 -2.2825165 0.6739311c-0.73067474 0.29484558 -1.4144211 0.6739311 -2.0512466 1.1372566c-0.63012695 0.46332932 -1.1663971 0.98983765 -1.6088257 1.5795288l0 -15.795261z" fill-rule="evenodd"/><path fill="#6d9eeb" d="m123.94701 58.293404c1.1261749 0 2.185318 0.23166275 3.1774216 0.69499207c0.99881744 0.4633255 1.8702621 1.1056671 2.6143417 1.927021c0.7440796 0.8213539 1.3306274 1.7971497 1.7596436 2.9273872c0.43571472 1.1232224 0.6535797 2.3377 0.6535797 3.6434402c0 1.3057404 -0.21786499 2.5167084 -0.6535797 3.6329117c-0.4290161 1.1161957 -1.015564 2.0849686 -1.7596436 2.9063263c-0.7440796 0.8213501 -1.6155243 1.4707108 -2.6143417 1.948082c-0.9921036 0.47034454 -2.0512466 0.70552063 -3.1774216 0.70552063c-1.1261749 0 -2.1886673 -0.23517609 -3.187477 -0.70552063c-0.9921036 -0.47737122 -1.860199 -1.1267319 -2.6042786 -1.948082c-0.7440796 -0.8213577 -1.3272781 -1.7901306 -1.7495956 -2.9063263c-0.4223175 -1.1162033 -0.6334686 -2.3271713 -0.6334686 -3.6329117c0 -1.1793823 0.21115112 -2.3201447 0.6334686 -3.4223022c0.4223175 -1.1091805 1.005516 -2.0884857 1.7495956 -2.9379234c0.7440796 -0.85645294 1.612175 -1.5409126 2.6042786 -2.0533829c0.9988098 -0.5194855 2.0613022 -0.779232 3.187477 -0.779232zm-16.500473 -20.881332l0 30.074173c0 2.6114807 0.43237305 5.00885 1.2971115 7.192108c0.86473846 2.1762314 2.044548 4.0541153 3.5394058 5.633644c1.501564 1.5795212 3.2511597 2.811554 5.2487793 3.6960907c2.0043259 0.8845291 4.1427155 1.3267975 6.4151764 1.3267975c2.292572 0 4.437668 -0.43173218 6.4352875 -1.2952118c2.0043182 -0.863472 3.7505646 -2.0779572 5.2387238 -3.6434402c1.4881592 -1.5725021 2.6646118 -3.4538956 3.529358 -5.6441727c0.86473083 -2.1902695 1.2971039 -4.612213 1.2971039 -7.2658157c0 -2.5904236 -0.43237305 -4.973751 -1.2971039 -7.1499863c-0.8647461 -2.1832542 -2.0411987 -4.0751762 -3.529358 -5.675762c-1.4881592 -1.6005859 -3.2344055 -2.8466568 -5.2387238 -3.7382126c-1.9976196 -0.8985748 -4.1427155 -1.3478622 -6.4352875 -1.3478622c-0.7440796 0 -1.5082703 0.08073425 -2.292572 0.24219513c-0.78430176 0.15444183 -1.5451355 0.37908554 -2.2825165 0.6739311c-0.7306671 0.29484558 -1.4144211 0.6739311 -2.0512466 1.1372566c-0.6301193 0.46332932 -1.1663895 0.98983765 -1.608818 1.5795288l0 -15.795261z" fill-rule="evenodd"/><path fill="#6d9eeb" d="m145.00246 37.41207l0 47.291008l8.295486 0l0 -47.291008z" fill-rule="evenodd"/><path fill="#6d9eeb" d="m174.3534 58.293404c0.40220642 0 0.78764343 0.021060944 1.1563416 0.06318283c0.37538147 0.042118073 0.75413513 0.13689041 1.1362305 0.2843132l-9.592606 13.3312c-0.16087341 -0.29484558 -0.29159546 -0.63181305 -0.39215088 -1.0108948c-0.10054016 -0.37908936 -0.1876831 -0.7722168 -0.26142883 -1.1793823c-0.06703186 -0.4141922 -0.11730957 -0.8213577 -0.15081787 -1.2215042c-0.026824951 -0.40014648 -0.040222168 -0.7581711 -0.040222168 -1.0740738c0 -1.4110413 0.21115112 -2.6781693 0.6334686 -3.8013916c0.4223175 -1.1302376 0.9988098 -2.0955048 1.7294769 -2.8957977c0.737381 -0.80029297 1.6021271 -1.4145508 2.594223 -1.8427811c0.9988251 -0.4352455 2.0613098 -0.6528702 3.1874847 -0.6528702zm0 -8.718983c-2.272461 0 -4.410858 0.431736 -6.4151764 1.2952118c-1.9976196 0.8634758 -3.7472076 2.0744438 -5.2487793 3.6329079c-1.4948578 1.5584679 -2.6746674 3.443367 -3.5394135 5.654705c-0.86473083 2.2113342 -1.2971039 4.654331 -1.2971039 7.3289986c0 2.6114807 0.43237305 5.00885 1.2971039 7.192108c0.8647461 2.1762314 2.0445557 4.0541153 3.5394135 5.633644c1.5015717 1.5795212 3.2511597 2.811554 5.2487793 3.6960907c2.0043182 0.8845291 4.1427155 1.3267975 6.4151764 1.3267975c1.3473816 0 2.657898 -0.1649704 3.931549 -0.49491882c1.280365 -0.32292175 2.4970245 -0.80029297 3.6500244 -1.4320984c1.1596832 -0.63181305 2.2355804 -1.4005127 3.2276917 -2.3061142c0.9988098 -0.9055939 1.88031 -1.9270172 2.6445007 -3.0642776l-6.033081 -6.3496933c-0.32176208 0.7581711 -0.74072266 1.4496536 -1.2568817 2.0744476c-0.5094757 0.61776733 -1.0926666 1.1442719 -1.7496033 1.5795212c-0.65023804 0.4282303 -1.3473816 0.7581711 -2.0914612 0.98983765c-0.7440796 0.23166656 -1.5183258 0.34749603 -2.3227386 0.34749603c-0.32176208 0 -0.64352417 -0.014045715 -0.96528625 -0.042121887c-0.32177734 -0.035102844 -0.6435394 -0.1053009 -0.9653015 -0.2106018l15.444687 -19.491348c-0.7641907 -1.1372604 -1.6490479 -2.162197 -2.6545563 -3.07481c-1.0055084 -0.9196358 -2.0881195 -1.6953583 -3.2478027 -2.3271675c-1.1529999 -0.63181305 -2.3730164 -1.1161995 -3.66008 -1.453167c-1.2870483 -0.33696365 -2.6042786 -0.5054474 -3.9516602 -0.5054474z" fill-rule="evenodd"/><path fill="#f1c232" d="m119.48586 106.068596c-9.824745 0 -17.651642 2.717041 -23.480675 8.151123c-5.8290405 5.4174194 -9.19014 13.301842 -10.083298 23.653282l13.044823 1.4251862c0.0470047 -6.900955 1.9038391 -12.301697 5.570488 -16.20224c3.6666565 -3.9005356 8.555527 -5.850807 14.666618 -5.850807c5.782028 0 10.467201 1.841919 14.055504 5.5257645c3.6039734 3.6671753 5.40596 8.176132 5.40596 13.526871c0 5.100708 -1.97435 10.518127 -5.92305 16.252258c-3.9487152 5.717453 -11.5405655 13.476852 -22.775566 23.278214c-7.2392883 6.300873 -12.778442 11.851639 -16.617455 16.652313c-3.823349 4.800659 -6.6046753 9.676331 -8.3439865 14.627014c-1.081192 3.0004272 -1.5747833 6.1258545 -1.4807663 9.376297l68.326675 0l0 -12.976791l-50.698532 0c1.4102478 -2.4503326 3.1965637 -4.884018 5.3589554 -7.30101c2.162384 -2.43367 7.0512543 -7.0509796 14.666611 -13.851913c9.119621 -8.201141 15.638115 -14.652039 19.555473 -19.352676c3.9330444 -4.700653 6.7457123 -9.17627 8.438004 -13.426865c1.6923065 -4.250595 2.5384521 -8.576187 2.5384521 -12.976791c0 -8.651199 -2.8910065 -15.902206 -8.673035 -21.753014c-5.782028 -5.850815 -13.632431 -8.776215 -23.5512 -8.776215z" fill-rule="evenodd"/><path fill="#f1c232" d="m206.00478 119.49545c8.132446 0 14.031998 0.7500992 17.698654 2.2503128c5.0769043 2.1002884 9.386002 6.242531 12.927292 12.42672c3.5569763 6.1675262 5.335449 15.002075 5.335449 26.503662c0 8.301147 -0.90882874 15.36879 -2.7264862 21.202942c-1.8019867 5.817459 -4.324768 10.451447 -7.568344 13.9019165c-2.3034058 2.450348 -5.3981323 4.350601 -9.284149 5.7007904c-3.8703613 1.3501892 -9.213638 2.0252838 -16.029861 2.0252838l-22.07042 0l0 -84.01163zm-35.39731 -12.976799l0 109.96522l37.301147 0c6.2521057 0 11.783432 -0.6250763 16.593948 -1.8752594c4.826187 -1.2501678 8.939423 -3.0837555 12.339706 -5.500763c3.4159393 -2.43367 6.557663 -5.7591248 9.425171 -9.976379c2.867508 -4.233917 5.217926 -9.576324 7.0512543 -16.027206c1.8333282 -6.450897 2.75 -13.851929 2.75 -22.20308c0 -9.801361 -1.355423 -18.510895 -4.0662384 -26.128616c-2.6951447 -7.634392 -6.7691956 -13.901924 -12.222168 -18.802605c-4.1837463 -3.8005219 -9.237152 -6.425888 -15.160202 -7.876091c-4.2307587 -1.0501404 -10.365341 -1.5752182 -18.403778 -1.5752182z" fill-rule="evenodd"/><path fill="#93c47d" d="m-0.0026244095 106.03858l83.43307 0l-24.162235 27.810738l-31.460087 0l0 36.21057l-27.810745 32.010178z" fill-rule="evenodd"/><path fill="#4132d9" d="m211.4672 85.35723l0 -47.937008l44.53543 47.937008z" fill-rule="evenodd"/><path fill="#3c78d8" d="m-0.80052495 -0.26771653l260.53543 0l0 16.97638l-260.53543 0z" fill-rule="evenodd"/><path fill="#3c78d8" d="m0 367.02362l256.0 0l0 16.97638l-256.0 0z" fill-rule="evenodd"/><path fill="#e06666" d="m16.162727 202.89124l3.803259 13.422379l4.3620815 0l3.6676216 -13.422379l-3.466879 0l-2.3980598 10.799133l-2.3655071 -10.799133z" fill-rule="evenodd"/><path fill="#e06666" d="m37.129143 199.36082c0.8680763 0 1.5191345 0.16253662 1.9531708 0.48760986c0.43404007 0.32505798 0.7288246 0.75471497 0.88435364 1.2889404c0.15553284 0.5342102 0.23329544 1.1024628 0.23329544 1.7047272l0 8.1532135c0 0.5720215 -0.084999084 1.1251373 -0.25499725 1.6593628c-0.16638184 0.53422546 -0.46659088 0.972702 -0.90062714 1.3153992c-0.43042374 0.3401947 -1.068821 0.5102844 -1.9151955 0.5102844c-0.82105255 0 -1.4594498 -0.17008972 -1.9151917 -0.5102844c-0.45573807 -0.34269714 -0.7667999 -0.7811737 -0.93318176 -1.3153992c-0.16638184 -0.53422546 -0.24957275 -1.0873413 -0.24957275 -1.6593628l0 -8.1532135c0 -0.6022644 0.07776642 -1.170517 0.23329544 -1.7047272c0.15553284 -0.53422546 0.45574188 -0.96388245 0.90063095 -1.2889404c0.44488907 -0.32507324 1.0995636 -0.48760986 1.9640198 -0.48760986zm0 -2.0222473c-1.5553017 0 -2.8284798 0.23309326 -3.8195343 0.6992798c-0.9874344 0.46366882 -1.7144489 1.1100311 -2.1810398 1.9390869c-0.46659088 0.8265381 -0.6998863 1.7904053 -0.6998863 2.8916168l0 8.104065c0 1.0684509 0.23871994 2.0209808 0.7161617 2.857605c0.48106003 0.8340912 1.2153053 1.4917908 2.2027435 1.9730988c0.9874382 0.47879028 2.2479553 0.71817017 3.7815552 0.71817017c1.5336037 0 2.7886963 -0.23561096 3.7652817 -0.7068329c0.9802017 -0.47122192 1.7090263 -1.1251373 2.1864662 -1.9617615c0.4774437 -0.8366089 0.71616364 -1.7967072 0.71616364 -2.8802795l0 -8.104065c0 -1.1012115 -0.23329544 -2.0650787 -0.6998863 -2.8916168c-0.46659088 -0.8290558 -1.1899872 -1.4754181 -2.1701927 -1.9390869c-0.9765854 -0.46618652 -2.242527 -0.6992798 -3.7978325 -0.6992798z" fill-rule="evenodd"/><path fill="#e06666" d="m47.364014 213.55052l0 2.763092l3.564537 0l0 -2.763092z" fill-rule="evenodd"/><path fill="#e06666" d="m60.564583 206.83743c1.0236053 0 1.7451935 0.19026184 2.1647644 0.57077026c0.42318726 0.37799072 0.683609 0.88449097 0.7812691 1.519516c0.10127258 0.63500977 0.15191269 1.3242188 0.15191269 2.0675964c0 0.61990356 -0.09404373 1.1931763 -0.28212738 1.7198486c-0.18808365 0.5266571 -0.5045662 0.9487457 -0.94945526 1.2662659c-0.44488907 0.31498718 -1.0670128 0.47247314 -1.8663635 0.47247314c-0.77765274 0 -1.3889236 -0.15748596 -1.8338127 -0.47247314c-0.44488907 -0.31752014 -0.7613754 -0.74716187 -0.9494591 -1.2889557c-0.18808365 -0.54429626 -0.28212357 -1.1327057 -0.28212357 -1.7651978l0 -2.8122406c0.17723083 -0.21670532 0.41052628 -0.42082214 0.6998863 -0.6123352c0.28936005 -0.19403076 0.6329727 -0.35279846 1.0308418 -0.47627258c0.40148544 -0.12599182 0.8463745 -0.18899536 1.3346672 -0.18899536zm0 -9.498856c-1.6891327 0 -3.0165672 0.30239868 -3.9822998 0.9071808c-0.9657364 0.6047821 -1.6493454 1.4098969 -2.0508308 2.4153442c-0.40148544 1.0054474 -0.60222626 2.120514 -0.60222626 3.3451996l0 6.338867c0 1.1465759 0.22786713 2.1885529 0.683609 3.1259766c0.45573807 0.93489075 1.1719017 1.677002 2.148487 2.2263489c0.98020554 0.5493469 2.2479553 0.8240051 3.8032608 0.8240051c1.6240234 0 2.9243279 -0.2746582 3.900917 -0.8240051c0.9765854 -0.5493469 1.6873245 -1.2876892 2.1322098 -2.2150116c0.44489288 -0.92985535 0.6673355 -1.9605103 0.6673355 -3.0919495c0 -1.0986938 -0.179039 -2.0537415 -0.53712463 -2.865158c-0.35446167 -0.8139343 -0.95487976 -1.4451752 -1.8012543 -1.8937225c-0.8427582 -0.44854736 -2.0074272 -0.67282104 -3.494007 -0.67282104c-0.9548874 0 -1.7614746 0.1197052 -2.4197655 0.35908508c-0.65467453 0.23939514 -1.1592407 0.5531311 -1.5137062 0.9411926l0 -2.8575897c0 -0.92985535 0.11574173 -1.6883545 0.347229 -2.2754974c0.2351036 -0.58966064 0.58595276 -1.0268555 1.0525436 -1.311615c0.46659088 -0.28727722 1.0217972 -0.4309082 1.6656227 -0.4309082c1.1791344 0 1.9784889 0.24066162 2.3980598 0.72195435c0.42318726 0.47879028 0.6347809 1.1742859 0.6347809 2.086502l3.6025124 0c0 -0.04536438 -0.0054244995 -0.09449768 -0.016273499 -0.14741516c-0.010848999 -0.05543518 -0.016281128 -0.09828186 -0.016281128 -0.12850952c-0.025314331 -0.9752197 -0.29840088 -1.803009 -0.8192444 -2.4833984c-0.5208435 -0.68289185 -1.2659454 -1.2019958 -2.2352982 -1.557312c-0.9657326 -0.3578186 -2.1484833 -0.53674316 -3.548256 -0.53674316z" fill-rule="evenodd"/><path fill="#000000" fill-opacity="0.0" d="m0 236.21266l0 0c0 -1.7656097 1.4313073 -3.1969147 3.1969144 -3.1969147l101.70066 0c0.8478699 0 1.6610184 0.3368225 2.260559 0.9363556c0.5995407 0.5995331 0.9363556 1.4126892 0.9363556 2.260559l0 12.787277c0 1.7656097 -1.4313126 3.1969147 -3.1969147 3.1969147l-101.70066 0c-1.7656071 0 -3.1969144 -1.4313049 -3.1969144 -3.1969147z" fill-rule="evenodd"/><path fill="#ffffff" d="m27.801113 246.0663l0 -6.046875l1.96875 0l0 6.046875l-1.96875 0zm2.28125 -4.84375l0 -1.203125l2.265625 0l1.203125 1.203125l0 2.078125l-1.203125 1.21875l-2.265625 0l0 -1.21875l1.46875 0l0 -2.078125l-1.46875 0zm6.2814484 4.84375l-0.8125 0l-1.203125 -1.203125l0 -2.421875l1.203125 -1.21875l0.8125 0l0 4.84375zm0.3125 -1.9375l0 -0.84375l1.0625 0l0 -0.84375l-1.0625 0l0 -1.21875l1.703125 0l1.21875 1.21875l0 1.6875l-2.921875 0zm0 1.9375l0 -1.125l2.703125 0l0 0.515625l-0.59375 0.609375l-2.109375 0zm5.781128 -6.6875l0 6.6875l-2.015625 0l0 -6.6875l2.015625 0zm1.21875 3.0625l-0.890625 0l0 -0.609375l0.578125 -0.609375l1.109375 0l1.21875 1.21875l0 2.421875l-1.21875 1.203125l-1.6875 0l0 -1.125l0.890625 0l0 -2.5zm4.884613 -3.0625l0 6.6875l-2.015625 0l0 -6.6875l2.015625 0zm1.21875 3.0625l-0.890625 0l0 -0.609375l0.578125 -0.609375l1.109375 0l1.21875 1.21875l0 2.421875l-1.21875 1.203125l-1.6875 0l0 -1.125l0.890625 0l0 -2.5zm5.790863 3.625l-1.78125 0l-1.140625 -1.125l0 -5.5625l2.015625 0l0 5.484375l0.90625 0l0 1.203125zm2.4922333 0l-0.8125 0l-1.203125 -1.203125l0 -2.421875l1.203125 -1.21875l0.8125 0l0 4.84375zm0.3125 -1.9375l0 -0.84375l1.0625 0l0 -0.84375l-1.0625 0l0 -1.21875l1.703125 0l1.21875 1.21875l0 1.6875l-2.921875 0zm0 1.9375l0 -1.125l2.703125 0l0 0.515625l-0.59375 0.609375l-2.109375 0zm4.140503 -3.375l4.031254 0l0 1.09375l-4.031254 0l0 -1.09375zm7.372471 3.375l-2.015625 0l0 -2.171875l1.296875 -1.203125l2.375 0l0 -2.671875l0.8125 0l1.203125 1.203125l0 1.5l-1.203125 1.203125l-2.46875 0l0 2.140625zm0 -4.953125l0 0.875l-2.015625 0l0 -0.765625l1.21875 -1.203125l2.140625 0l0 1.09375l-1.34375 0zm0.328125 4.953125l0 -1.09375l3.34375 0l0 1.09375l-3.34375 0zm6.699402 0l0 -1.203125l1.5 0l0 -3.640625l-1.5 0l0 -1.203125l2.3125 0l1.203125 1.203125l0 3.640625l-1.203125 1.203125l-2.3125 0zm-2.328125 -6.046875l2.015625 0l0 6.046875l-2.015625 0l0 -6.046875z" fill-rule="nonzero"/><path fill="#000000" fill-opacity="0.0" d="m124.16535 236.21266l0 0c0 -1.7656097 1.4313126 -3.1969147 3.1969147 -3.1969147l147.59042 0c0.8478699 0 1.6610107 0.3368225 2.260559 0.9363556c0.5995178 0.5995331 0.93634033 1.4126892 0.93634033 2.260559l0 12.787277c0 1.7656097 -1.4313049 3.1969147 -3.1968994 3.1969147l-147.59042 0c-1.7656021 0 -3.1969147 -1.4313049 -3.1969147 -3.1969147z" fill-rule="evenodd"/><path fill="#ffffff" d="m153.09634 246.0663l0 -6.046875l1.96875 0l0 6.046875l-1.96875 0zm2.28125 -4.84375l0 -1.203125l2.265625 0l1.203125 1.203125l0 2.078125l-1.203125 1.21875l-2.265625 0l0 -1.21875l1.46875 0l0 -2.078125l-1.46875 0zm6.2814484 4.84375l-0.8125 0l-1.203125 -1.203125l0 -2.421875l1.203125 -1.21875l0.8125 0l0 4.84375zm0.3125 -1.9375l0 -0.84375l1.0625 0l0 -0.84375l-1.0625 0l0 -1.21875l1.703125 0l1.21875 1.21875l0 1.6875l-2.921875 0zm0 1.9375l0 -1.125l2.703125 0l0 0.515625l-0.59375 0.609375l-2.109375 0zm5.781128 -6.6875l0 6.6875l-2.015625 0l0 -6.6875l2.015625 0zm1.21875 3.0625l-0.890625 0l0 -0.609375l0.578125 -0.609375l1.109375 0l1.21875 1.21875l0 2.421875l-1.21875 1.203125l-1.6875 0l0 -1.125l0.890625 0l0 -2.5zm4.884613 -3.0625l0 6.6875l-2.015625 0l0 -6.6875l2.015625 0zm1.21875 3.0625l-0.890625 0l0 -0.609375l0.578125 -0.609375l1.109375 0l1.21875 1.21875l0 2.421875l-1.21875 1.203125l-1.6875 0l0 -1.125l0.890625 0l0 -2.5zm5.790863 3.625l-1.78125 0l-1.140625 -1.125l0 -5.5625l2.015625 0l0 5.484375l0.90625 0l0 1.203125zm2.4922333 0l-0.8125 0l-1.203125 -1.203125l0 -2.421875l1.203125 -1.21875l0.8125 0l0 4.84375zm0.3125 -1.9375l0 -0.84375l1.0625 0l0 -0.84375l-1.0625 0l0 -1.21875l1.703125 0l1.21875 1.21875l0 1.6875l-2.921875 0zm0 1.9375l0 -1.125l2.703125 0l0 0.515625l-0.59375 0.609375l-2.109375 0zm4.140503 -3.375l4.03125 0l0 1.09375l-4.03125 0l0 -1.09375zm5.309967 2.09375l0.609375 0l0 -3.484375l-0.609375 0l0 -1.28125l3.234375 0l0 1.28125l-0.609375 0l0 3.484375l0.609375 0l0 1.28125l-3.234375 0l0 -1.28125zm4.139633 1.28125l0 -4.84375l2.03125 0l0 4.84375l-2.03125 0zm3.234375 -3.625l-0.875 0l0 -0.53125l0.671875 -0.6875l1.125 0l1.09375 1.09375l0 3.75l-2.015625 0l0 -3.625zm5.019989 2.421875l1.328125 0l0 1.203125l-2.140625 0l-1.203125 -1.203125l0 -2.421875l-0.40625 0l0 -1.21875l0.40625 0l0 -0.515625l2.015625 -0.6875l0 4.84375zm0.3125 -2.421875l0 -1.21875l1.078125 0l0 1.21875l-1.078125 0zm3.7613525 3.625l-0.8125 0l-1.203125 -1.203125l0 -2.421875l1.203125 -1.21875l0.8125 0l0 4.84375zm0.3125 -1.9375l0 -0.84375l1.0625 0l0 -0.84375l-1.0625 0l0 -1.21875l1.703125 0l1.21875 1.21875l0 1.6875l-2.921875 0zm0 1.9375l0 -1.125l2.703125 0l0 0.515625l-0.59375 0.609375l-2.109375 0zm6.968628 -3.625l-0.859375 0l0 -0.53125l0.671875 -0.6875l1.21875 0l0.984375 1.140625l0 1.25l-2.015625 0l0 -1.171875zm-3.203125 3.625l0 -4.84375l2.015625 0l0 4.84375l-2.015625 0zm9.017578 0l0 -3.625l-2.859375 0l0 -0.609375l0.609375 -0.609375l3.015625 0l1.203125 1.21875l0 3.625l-1.96875 0zm-0.3125 -2.8125l0 0.828125l-1.03125 0l0 0.859375l1.03125 0l0 0.53125l-0.609375 0.59375l-1.53125 0l-0.8125 -0.796875l0 -1.21875l0.8125 -0.796875l2.140625 0zm5.171753 2.8125l-0.8125 0l-1.203125 -1.203125l0 -2.421875l1.203125 -1.21875l0.8125 0l0 4.84375zm0.3125 -3.625l0 -1.21875l1.703125 0l1.203125 1.21875l0 0.71875l-2.015625 0l0 -0.71875l-0.890625 0zm0 3.625l0 -1.125l0.890625 0l0 -0.609375l2.015625 0l0 0.53125l-1.203125 1.203125l-1.703125 0zm5.80719 -1.203125l1.328125 0l0 1.203125l-2.140625 0l-1.203125 -1.203125l0 -2.421875l-0.40625 0l0 -1.21875l0.40625 0l0 -0.515625l2.015625 -0.6875l0 4.84375zm0.3125 -2.421875l0 -1.21875l1.078125 0l0 1.21875l-1.078125 0zm1.7926025 -1.21875l2.015625 0l0 4.84375l-2.015625 0l0 -4.84375zm0 -1.875l2.015625 0l0 1.28125l-2.015625 0l0 -1.28125zm2.4273834 1.875l2.0 0l1.71875 4.84375l-1.90625 0l-1.8125 -4.84375zm3.921875 4.578125l-0.90625 -2.5625l0.65625 -2.015625l1.890625 0l-1.640625 4.578125zm4.0230103 0.265625l-0.8125 0l-1.203125 -1.203125l0 -2.421875l1.203125 -1.21875l0.8125 0l0 4.84375zm0.3125 -1.9375l0 -0.84375l1.0625 0l0 -0.84375l-1.0625 0l0 -1.21875l1.703125 0l1.21875 1.21875l0 1.6875l-2.921875 0zm0 1.9375l0 -1.125l2.703125 0l0 0.515625l-0.59375 0.609375l-2.109375 0z" fill-rule="nonzero"/><path fill="#000000" fill-opacity="0.0" d="m-28.661417 271.8872l0 0c0 -1.765625 1.4313068 -3.19693 3.1969147 -3.19693l159.0235 0c0.8478699 0 1.661026 0.3368225 2.260559 0.93637085c0.5995331 0.5995178 0.9363556 1.4126892 0.9363556 2.260559l0 12.787262c0 1.765625 -1.4313049 3.19693 -3.1969147 3.19693l-159.0235 0c-1.7656078 0 -3.1969147 -1.4313049 -3.1969147 -3.19693z" fill-rule="evenodd"/><path fill="#ffffff" d="m9.459108 281.74084l0 -6.046875l1.96875 0l0 6.046875l-1.96875 0zm2.28125 -4.84375l0 -1.203125l2.265625 0l1.203125 1.203125l0 2.078125l-1.203125 1.21875l-2.265625 0l0 -1.21875l1.46875 0l0 -2.078125l-1.46875 0zm6.2814484 4.84375l-0.8125 0l-1.203125 -1.203125l0 -2.421875l1.203125 -1.21875l0.8125 0l0 4.84375zm0.3125 -1.9375l0 -0.84375l1.0625 0l0 -0.84375l-1.0625 0l0 -1.21875l1.703125 0l1.21875 1.21875l0 1.6875l-2.921875 0zm0 1.9375l0 -1.125l2.703125 0l0 0.515625l-0.59375 0.609375l-2.109375 0zm5.781128 -6.6875l0 6.6875l-2.015625 0l0 -6.6875l2.015625 0zm1.21875 3.0625l-0.890625 0l0 -0.609375l0.578125 -0.609375l1.109375 0l1.21875 1.21875l0 2.421875l-1.21875 1.203125l-1.6875 0l0 -1.125l0.890625 0l0 -2.5zm4.884613 -3.0625l0 6.6875l-2.015625 0l0 -6.6875l2.015625 0zm1.21875 3.0625l-0.890625 0l0 -0.609375l0.578125 -0.609375l1.1093731 0l1.21875 1.21875l0 2.421875l-1.21875 1.203125l-1.6874981 0l0 -1.125l0.890625 0l0 -2.5zm5.790861 3.625l-1.78125 0l-1.140625 -1.125l0 -5.5625l2.015625 0l0 5.484375l0.90625 0l0 1.203125zm2.4922333 0l-0.8125 0l-1.203125 -1.203125l0 -2.421875l1.203125 -1.21875l0.8125 0l0 4.84375zm0.3125 -1.9375l0 -0.84375l1.0625 0l0 -0.84375l-1.0625 0l0 -1.21875l1.703125 0l1.21875 1.21875l0 1.6875l-2.921875 0zm0 1.9375l0 -1.125l2.703125 0l0 0.515625l-0.59375 0.609375l-2.109375 0zm4.140503 -3.375l4.03125 0l0 1.09375l-4.03125 0l0 -1.09375zm7.325592 3.375l-0.796875 0l-1.21875 -1.203125l0 -3.640625l1.21875 -1.203125l0.796875 0l0 6.046875zm0.328125 -4.84375l0 -1.203125l2.140625 0l1.203125 1.203125l0 1.21875l-2.015625 0l0 -1.21875l-1.328125 0zm0 4.84375l0 -1.203125l1.328125 0l0 -0.890625l2.015625 0l0 0.890625l-1.203125 1.203125l-2.140625 0zm9.636963 -1.203125l-1.203125 1.203125l-1.34375 0l0 -1.125l0.5 0l0 -2.5l-0.5 0l0 -1.21875l1.34375 0l1.203125 1.21875l0 2.421875zm-3.390625 0.078125l0.53125 0l0 1.125l-1.359375 0l-1.203125 -1.203125l0 -2.421875l1.203125 -1.21875l1.359375 0l0 1.21875l-0.53125 0l0 2.5zm7.2211 1.125l-1.78125 0l-1.140625 -1.125l0 -5.5625l2.015625 0l0 5.484375l0.90625 0l0 1.203125zm3.4297333 0l-1.78125 0l-1.140625 -1.125l0 -5.5625l2.015625 0l0 5.484375l0.90625 0l0 1.203125zm0.5234833 -4.84375l2.015625 0l0 4.84375l-2.015625 0l0 -4.84375zm0 -1.875l2.015625 0l0 1.28125l-2.015625 0l0 -1.28125zm4.0211334 1.875l0.796875 0l0 1.71875l2.296875 0l1.046875 1.046875l0 0.953125l-1.125 1.125l-0.890625 0l0 -1.828125l-2.171875 0l-1.046875 -1.0l0 -0.921875l1.09375 -1.09375zm0.921875 3.953125l0.890625 0l0 0.890625l-2.078125 0l-0.828125 -1.0l0 -0.390625l2.015625 0l0 0.5zm1.203125 -3.0625l-1.0 0l0 -0.890625l2.140625 0l0.71875 0.71875l0 0.546875l-1.859375 0l0 -0.375zm2.817627 -0.890625l2.015625 0l0 4.84375l-2.015625 0l0 -4.84375zm0 -1.875l2.015625 0l0 1.28125l-2.015625 0l0 -1.28125zm8.349258 5.515625l-1.203125 1.203125l-1.34375 0l0 -1.125l0.5 0l0 -2.5l-0.5 0l0 -1.21875l1.34375 0l1.203125 1.21875l0 2.421875zm-3.390625 0.078125l0.53125 0l0 1.125l-1.359375 0l-1.203125 -1.203125l0 -2.421875l1.203125 -1.21875l1.359375 0l0 1.21875l-0.53125 0l0 2.5zm4.299225 1.125l0 -4.84375l2.03125 0l0 4.84375l-2.03125 0zm3.234375 -3.625l-0.875 0l0 -0.53125l0.671875 -0.6875l1.125 0l1.09375 1.09375l0 3.75l-2.015625 0l0 -3.625zm4.004364 -1.21875l0.796875 0l0 1.71875l2.296875 0l1.046875 1.046875l0 0.953125l-1.125 1.125l-0.890625 0l0 -1.828125l-2.171875 0l-1.046875 -1.0l0 -0.921875l1.09375 -1.09375zm0.921875 3.953125l0.890625 0l0 0.890625l-2.078125 0l-0.828125 -1.0l0 -0.390625l2.015625 0l0 0.5zm1.203125 -3.0625l-1.0 0l0 -0.890625l2.140625 0l0.71875 0.71875l0 0.546875l-1.859375 0l0 -0.375z" fill-rule="nonzero"/><path fill="#000000" fill-opacity="0.0" d="m131.11023 271.8872l0 0c0 -1.765625 1.4313202 -3.19693 3.1969147 -3.19693l133.70067 0c0.8478699 0 1.6610107 0.3368225 2.260559 0.93637085c0.59954834 0.5995178 0.93634033 1.4126892 0.93634033 2.260559l0 12.787262c0 1.765625 -1.4313049 3.19693 -3.1968994 3.19693l-133.70067 0c-1.7655945 0 -3.1969147 -1.4313049 -3.1969147 -3.19693z" fill-rule="evenodd"/><path fill="#ffffff" d="m167.39145 281.74084l0 -6.046875l1.96875 0l0 6.046875l-1.96875 0zm2.28125 -4.84375l0 -1.203125l2.265625 0l1.203125 1.203125l0 2.078125l-1.203125 1.21875l-2.265625 0l0 -1.21875l1.46875 0l0 -2.078125l-1.46875 0zm6.2814484 4.84375l-0.8125 0l-1.203125 -1.203125l0 -2.421875l1.203125 -1.21875l0.8125 0l0 4.84375zm0.3125 -1.9375l0 -0.84375l1.0625 0l0 -0.84375l-1.0625 0l0 -1.21875l1.703125 0l1.21875 1.21875l0 1.6875l-2.921875 0zm0 1.9375l0 -1.125l2.703125 0l0 0.515625l-0.59375 0.609375l-2.109375 0zm5.781128 -6.6875l0 6.6875l-2.015625 0l0 -6.6875l2.015625 0zm1.21875 3.0625l-0.890625 0l0 -0.609375l0.578125 -0.609375l1.109375 0l1.21875 1.21875l0 2.421875l-1.21875 1.203125l-1.6875 0l0 -1.125l0.890625 0l0 -2.5zm4.884613 -3.0625l0 6.6875l-2.015625 0l0 -6.6875l2.015625 0zm1.21875 3.0625l-0.890625 0l0 -0.609375l0.578125 -0.609375l1.109375 0l1.21875 1.21875l0 2.421875l-1.21875 1.203125l-1.6875 0l0 -1.125l0.890625 0l0 -2.5zm5.790863 3.625l-1.78125 0l-1.140625 -1.125l0 -5.5625l2.015625 0l0 5.484375l0.90625 0l0 1.203125zm2.4922333 0l-0.8125 0l-1.203125 -1.203125l0 -2.421875l1.203125 -1.21875l0.8125 0l0 4.84375zm0.3125 -1.9375l0 -0.84375l1.0625 0l0 -0.84375l-1.0625 0l0 -1.21875l1.703125 0l1.21875 1.21875l0 1.6875l-2.921875 0zm0 1.9375l0 -1.125l2.703125 0l0 0.515625l-0.59375 0.609375l-2.109375 0zm4.140503 -3.375l4.03125 0l0 1.09375l-4.03125 0l0 -1.09375zm9.372467 2.71875l-1.984375 0l0.421875 -1.203125l1.09375 0l-1.609375 -4.1875l1.953125 0l2.421875 6.046875l-2.046875 0l-0.25 -0.65625zm-2.515625 0.65625l-1.9375 0l2.15625 -5.765625l0.890625 2.390625l-1.109375 3.375zm10.519623 -4.84375l0 4.84375l-2.015625 0l0 -4.84375l2.015625 0zm-3.21875 3.640625l0.890625 0l0 0.59375l-0.578125 0.609375l-1.125 0l-1.203125 -1.203125l0 -3.640625l2.015625 0l0 3.640625zm9.4457855 -5.484375l0 6.6875l-2.015625 0l0 -6.6875l2.015625 0zm-3.296875 5.5625l0.96875 0l0 0.640625l-0.484375 0.484375l-1.421875 0l-1.078125 -1.09375l0 -2.65625l1.078125 -1.09375l1.90625 0l0 1.21875l-0.96875 0l0 2.5zm4.2530365 -3.71875l2.015625 0l0 4.84375l-2.015625 0l0 -4.84375zm0 -1.875l2.015625 0l0 1.28125l-2.015625 0l0 -1.28125zm8.349258 5.515625l-1.203125 1.203125l-1.34375 0l0 -1.125l0.5 0l0 -2.5l-0.5 0l0 -1.21875l1.34375 0l1.203125 1.21875l0 2.421875zm-3.390625 0.078125l0.53125 0l0 1.125l-1.359375 0l-1.203125 -1.203125l0 -2.421875l1.203125 -1.21875l1.359375 0l0 1.21875l-0.53125 0l0 2.5z" fill-rule="nonzero"/><path fill="#000000" fill-opacity="0.0" d="m-19.905512 305.32553l0 0c0 -1.765625 1.4313068 -3.19693 3.1969147 -3.19693l141.51169 0c0.8478775 0 1.661026 0.3368225 2.260559 0.93637085c0.5995407 0.5995178 0.9363556 1.4126892 0.9363556 2.260559l0 12.787262c0 1.765625 -1.4313049 3.19693 -3.1969147 3.19693l-141.51169 0c-1.7656078 0 -3.1969147 -1.4313049 -3.1969147 -3.19693z" fill-rule="evenodd"/><path fill="#ffffff" d="m17.00406 315.17917l0 -6.046875l1.96875 0l0 6.046875l-1.96875 0zm2.28125 -4.84375l0 -1.203125l2.265625 0l1.203125 1.203125l0 2.078125l-1.203125 1.21875l-2.265625 0l0 -1.21875l1.46875 0l0 -2.078125l-1.46875 0zm6.2814484 4.84375l-0.8125 0l-1.203125 -1.203125l0 -2.421875l1.203125 -1.21875l0.8125 0l0 4.84375zm0.3125 -1.9375l0 -0.84375l1.0625 0l0 -0.84375l-1.0625 0l0 -1.21875l1.703125 0l1.21875 1.21875l0 1.6875l-2.921875 0zm0 1.9375l0 -1.125l2.703125 0l0 0.515625l-0.59375 0.609375l-2.109375 0zm5.781128 -6.6875l0 6.6875l-2.015625 0l0 -6.6875l2.015625 0zm1.2187519 3.0625l-0.8906269 0l0 -0.609375l0.5781269 -0.609375l1.109375 0l1.21875 1.21875l0 2.421875l-1.21875 1.203125l-1.6875019 0l0 -1.125l0.8906269 0l0 -2.5zm4.884613 -3.0625l0 6.6875l-2.015625 0l0 -6.6875l2.015625 0zm1.21875 3.0625l-0.890625 0l0 -0.609375l0.578125 -0.609375l1.109375 0l1.21875 1.21875l0 2.421875l-1.21875 1.203125l-1.6875 0l0 -1.125l0.890625 0l0 -2.5zm5.790863 3.625l-1.78125 0l-1.140625 -1.125l0 -5.5625l2.015625 0l0 5.484375l0.90625 0l0 1.203125zm2.4922333 0l-0.8125 0l-1.203125 -1.203125l0 -2.421875l1.203125 -1.21875l0.8125 0l0 4.84375zm0.3125 -1.9375l0 -0.84375l1.0625 0l0 -0.84375l-1.0625 0l0 -1.21875l1.703125 0l1.21875 1.21875l0 1.6875l-2.921875 0zm0 1.9375l0 -1.125l2.703125 0l0 0.515625l-0.59375 0.609375l-2.109375 0zm4.140503 -3.375l4.03125 0l0 1.09375l-4.03125 0l0 -1.09375zm9.372467 2.71875l-1.984375 0l0.421875 -1.203125l1.09375 0l-1.609375 -4.1875l1.953125 0l2.421875 6.046875l-2.046875 0l-0.25 -0.65625zm-2.515625 0.65625l-1.9375 0l2.15625 -5.765625l0.890625 2.390625l-1.109375 3.375zm6.378994 -4.84375l0.796875 0l0 1.71875l2.296875 0l1.046875 1.046875l0 0.953125l-1.125 1.125l-0.890625 0l0 -1.828125l-2.171875 0l-1.0468712 -1.0l0 -0.921875l1.0937462 -1.09375zm0.921875 3.953125l0.890625 0l0 0.890625l-2.078125 0l-0.8281212 -1.0l0 -0.390625l2.0156212 0l0 0.5zm1.203125 -3.0625l-1.0 0l0 -0.890625l2.140625 0l0.71875 0.71875l0 0.546875l-1.859375 0l0 -0.375zm3.864502 -0.890625l0.796875 0l0 1.71875l2.296875 0l1.046875 1.046875l0 0.953125l-1.125 1.125l-0.890625 0l0 -1.828125l-2.171875 0l-1.046875 -1.0l0 -0.921875l1.09375 -1.09375zm0.921875 3.953125l0.890625 0l0 0.890625l-2.078125 0l-0.828125 -1.0l0 -0.390625l2.015625 0l0 0.5zm1.203125 -3.0625l-1.0 0l0 -0.890625l2.140625 0l0.71875 0.71875l0 0.546875l-1.859375 0l0 -0.375zm4.786377 3.953125l-0.8125 0l-1.203125 -1.203125l0 -2.421875l1.203125 -1.21875l0.8125 0l0 4.84375zm0.3125 -1.9375l0 -0.84375l1.0625 0l0 -0.84375l-1.0625 0l0 -1.21875l1.703125 0l1.21875 1.21875l0 1.6875l-2.921875 0zm0 1.9375l0 -1.125l2.703125 0l0 0.515625l-0.59375 0.609375l-2.109375 0zm5.843628 -1.203125l1.328125 0l0 1.203125l-2.140625 0l-1.203125 -1.203125l0 -2.421875l-0.40625 0l0 -1.21875l0.40625 0l0 -0.515625l2.015625 -0.6875l0 4.84375zm0.3125 -2.421875l0 -1.21875l1.078125 0l0 1.21875l-1.078125 0zm2.8394775 -1.21875l0.796875 0l0 1.71875l2.296875 0l1.046875 1.046875l0 0.953125l-1.125 1.125l-0.890625 0l0 -1.828125l-2.171875 0l-1.046875 -1.0l0 -0.921875l1.09375 -1.09375zm0.921875 3.953125l0.890625 0l0 0.890625l-2.078125 0l-0.828125 -1.0l0 -0.390625l2.015625 0l0 0.5zm1.203125 -3.0625l-1.0 0l0 -0.890625l2.140625 0l0.71875 0.71875l0 0.546875l-1.859375 0l0 -0.375z" fill-rule="nonzero"/><path fill="#000000" fill-opacity="0.0" d="m109.47244 305.32553l0 0c0 -1.765625 1.4313049 -3.19693 3.1969147 -3.19693l176.97624 0c0.8478699 0 1.6610413 0.3368225 2.260559 0.93637085c0.59954834 0.5995178 0.93637085 1.4126892 0.93637085 2.260559l0 12.787262c0 1.765625 -1.4313049 3.19693 -3.19693 3.19693l-176.97624 0l0 0c-1.7656097 0 -3.1969147 -1.4313049 -3.1969147 -3.19693z" fill-rule="evenodd"/><path fill="#ffffff" d="m155.87932 315.17917l0 -6.046875l1.96875 0l0 6.046875l-1.96875 0zm2.28125 -4.84375l0 -1.203125l2.265625 0l1.203125 1.203125l0 2.078125l-1.203125 1.21875l-2.265625 0l0 -1.21875l1.46875 0l0 -2.078125l-1.46875 0zm6.2814484 4.84375l-0.8125 0l-1.203125 -1.203125l0 -2.421875l1.203125 -1.21875l0.8125 0l0 4.84375zm0.3125 -1.9375l0 -0.84375l1.0625 0l0 -0.84375l-1.0625 0l0 -1.21875l1.703125 0l1.21875 1.21875l0 1.6875l-2.921875 0zm0 1.9375l0 -1.125l2.703125 0l0 0.515625l-0.59375 0.609375l-2.109375 0zm5.781128 -6.6875l0 6.6875l-2.015625 0l0 -6.6875l2.015625 0zm1.21875 3.0625l-0.890625 0l0 -0.609375l0.578125 -0.609375l1.109375 0l1.21875 1.21875l0 2.421875l-1.21875 1.203125l-1.6875 0l0 -1.125l0.890625 0l0 -2.5zm4.884613 -3.0625l0 6.6875l-2.015625 0l0 -6.6875l2.015625 0zm1.21875 3.0625l-0.890625 0l0 -0.609375l0.578125 -0.609375l1.109375 0l1.21875 1.21875l0 2.421875l-1.21875 1.203125l-1.6875 0l0 -1.125l0.890625 0l0 -2.5zm5.790863 3.625l-1.78125 0l-1.140625 -1.125l0 -5.5625l2.015625 0l0 5.484375l0.90625 0l0 1.203125zm2.4922333 0l-0.8125 0l-1.203125 -1.203125l0 -2.421875l1.203125 -1.21875l0.8125 0l0 4.84375zm0.3125 -1.9375l0 -0.84375l1.0625 0l0 -0.84375l-1.0625 0l0 -1.21875l1.703125 0l1.21875 1.21875l0 1.6875l-2.921875 0zm0 1.9375l0 -1.125l2.703125 0l0 0.515625l-0.59375 0.609375l-2.109375 0zm4.140503 -3.375l4.03125 0l0 1.09375l-4.03125 0l0 -1.09375zm11.200592 3.375l-2.140625 0l-3.65625 -6.046875l2.125 0l3.671875 6.046875zm-5.796875 0l0 -5.46875l1.75 2.875l0 2.59375l-1.75 0zm5.796875 -6.046875l0 5.46875l-1.75 -2.890625l0 -2.578125l1.75 0zm2.9935608 6.046875l-0.8125 0l-1.203125 -1.203125l0 -2.421875l1.203125 -1.21875l0.8125 0l0 4.84375zm0.3125 -1.9375l0 -0.84375l1.0625 0l0 -0.84375l-1.0625 0l0 -1.21875l1.703125 0l1.21875 1.21875l0 1.6875l-2.921875 0zm0 1.9375l0 -1.125l2.703125 0l0 0.515625l-0.59375 0.609375l-2.109375 0zm8.968628 -4.84375l0 4.84375l-2.015625 0l0 -4.84375l2.015625 0zm-3.21875 3.640625l0.890625 0l0 0.59375l-0.578125 0.609375l-1.125 0l-1.203125 -1.203125l0 -3.640625l2.015625 0l0 3.640625zm7.3676605 -2.421875l-0.859375 0l0 -0.53125l0.671875 -0.6875l1.21875 0l0.984375 1.140625l0 1.25l-2.015625 0l0 -1.171875zm-3.203125 3.625l0 -4.84375l2.015625 0l0 4.84375l-2.015625 0zm9.017578 0l0 -3.625l-2.859375 0l0 -0.609375l0.609375 -0.609375l3.015625 0l1.203125 1.21875l0 3.625l-1.96875 0zm-0.3125 -2.8125l0 0.828125l-1.03125 0l0 0.859375l1.03125 0l0 0.53125l-0.609375 0.59375l-1.53125 0l-0.8125 -0.796875l0 -1.21875l0.8125 -0.796875l2.140625 0zm6.109253 2.8125l-1.78125 0l-1.140625 -1.125l0 -5.5625l2.015625 0l0 5.484375l0.90625 0l0 1.203125zm6.3672333 0l-2.140625 0l-3.65625 -6.046875l2.125 0l3.671875 6.046875zm-5.796875 0l0 -5.46875l1.75 2.875l0 2.59375l-1.75 0zm5.796875 -6.046875l0 5.46875l-1.75 -2.890625l0 -2.578125l1.75 0zm2.9935455 6.046875l-0.81248474 0l-1.203125 -1.203125l0 -2.421875l1.203125 -1.21875l0.81248474 0l0 4.84375zm0.3125 -1.9375l0 -0.84375l1.0625 0l0 -0.84375l-1.0625 0l0 -1.21875l1.703125 0l1.21875 1.21875l0 1.6875l-2.921875 0zm0 1.9375l0 -1.125l2.703125 0l0 0.515625l-0.59375 0.609375l-2.109375 0zm5.843628 -1.203125l1.328125 0l0 1.203125l-2.140625 0l-1.203125 -1.203125l0 -2.421875l-0.40625 0l0 -1.21875l0.40625 0l0 -0.515625l2.015625 -0.6875l0 4.84375zm0.3125 -2.421875l0 -1.21875l1.078125 0l0 1.21875l-1.078125 0z" fill-rule="nonzero"/><path fill="#000000" fill-opacity="0.0" d="m-19.906824 338.76385l0 0c0 -1.765625 1.4313068 -3.19693 3.1969147 -3.19693l141.51169 0c0.8478775 0 1.661026 0.3368225 2.260559 0.93637085c0.5995407 0.5995178 0.9363556 1.4126587 0.9363556 2.260559l0 12.787262c0 1.7655945 -1.4313049 3.1968994 -3.1969147 3.1968994l-141.51169 0c-1.7656078 0 -3.1969147 -1.4313049 -3.1969147 -3.1968994z" fill-rule="evenodd"/><path fill="#ffffff" d="m13.891855 348.6175l0 -6.046875l1.96875 0l0 6.046875l-1.96875 0zm2.28125 -4.84375l0 -1.203125l2.265625 0l1.203125 1.203125l0 2.078125l-1.203125 1.21875l-2.265625 0l0 -1.21875l1.46875 0l0 -2.078125l-1.46875 0zm6.2814484 4.84375l-0.8125 0l-1.203125 -1.203125l0 -2.421875l1.203125 -1.21875l0.8125 0l0 4.84375zm0.3125 -1.9375l0 -0.84375l1.0625 0l0 -0.84375l-1.0625 0l0 -1.21875l1.703125 0l1.21875 1.21875l0 1.6875l-2.921875 0zm0 1.9375l0 -1.125l2.703125 0l0 0.515625l-0.59375 0.609375l-2.109375 0zm5.781128 -6.6875l0 6.6875l-2.015625 0l0 -6.6875l2.015625 0zm1.21875 3.0625l-0.890625 0l0 -0.609375l0.578125 -0.609375l1.109375 0l1.21875 1.21875l0 2.421875l-1.21875 1.203125l-1.6875 0l0 -1.125l0.890625 0l0 -2.5zm4.884615 -3.0625l0 6.6875l-2.015625 0l0 -6.6875l2.015625 0zm1.21875 3.0625l-0.890625 0l0 -0.609375l0.578125 -0.609375l1.109375 0l1.21875 1.21875l0 2.421875l-1.21875 1.203125l-1.6875 0l0 -1.125l0.890625 0l0 -2.5zm5.790863 3.625l-1.78125 0l-1.140625 -1.125l0 -5.5625l2.015625 0l0 5.484375l0.90625 0l0 1.203125zm2.4922333 0l-0.8125 0l-1.203125 -1.203125l0 -2.421875l1.203125 -1.21875l0.8125 0l0 4.84375zm0.3125 -1.9375l0 -0.84375l1.0625 0l0 -0.84375l-1.0625 0l0 -1.21875l1.703125 0l1.21875 1.21875l0 1.6875l-2.921875 0zm0 1.9375l0 -1.125l2.703125 0l0 0.515625l-0.59375 0.609375l-2.109375 0zm4.140503 -3.375l4.03125 0l0 1.09375l-4.03125 0l0 -1.09375zm9.138092 3.375l0 -2.265625l-2.609375 0l-1.21875 -1.203125l0 -1.375l1.21875 -1.203125l0.6875 0l0 2.140625l2.765625 0l1.171875 1.21875l0 1.484375l-1.203125 1.203125l-0.8125 0zm-1.609375 -4.953125l0 -1.09375l2.421875 0l1.046875 1.0625l0 0.640625l-1.859375 0l0 -0.609375l-1.609375 0zm-2.21875 3.140625l2.015625 0l0 0.71875l1.5 0l0 1.09375l-2.5 0l-1.015625 -1.203125l0 -0.609375zm8.836746 0.609375l1.3281212 0l0 1.203125l-2.1406212 0l-1.203125 -1.203125l0 -2.421875l-0.40625 0l0 -1.21875l0.40625 0l0 -0.515625l2.015625 -0.6875l0 4.84375zm0.3125 -2.421875l0 -1.21875l1.0781212 0l0 1.21875l-1.0781212 0zm7.1675987 2.421875l-1.203125 1.203125l-1.34375 0l0 -1.125l0.5 0l0 -2.5l-0.5 0l0 -1.21875l1.34375 0l1.203125 1.21875l0 2.421875zm-3.390625 0.078125l0.53125 0l0 1.125l-1.359375 0l-1.203125 -1.203125l0 -2.421875l1.203125 -1.21875l1.359375 0l0 1.21875l-0.53125 0l0 2.5zm7.50235 -2.5l-0.859375 0l0 -0.53125l0.671875 -0.6875l1.21875 0l0.984375 1.140625l0 1.25l-2.015625 0l0 -1.171875zm-3.203125 3.625l0 -4.84375l2.015625 0l0 4.84375l-2.015625 0zm9.017578 0l0 -3.625l-2.859375 0l0 -0.609375l0.609375 -0.609375l3.015625 0l1.203125 1.21875l0 3.625l-1.96875 0zm-0.3125 -2.8125l0 0.828125l-1.03125 0l0 0.859375l1.03125 0l0 0.53125l-0.609375 0.59375l-1.53125 0l-0.8125 -0.796875l0 -1.21875l0.8125 -0.796875l2.140625 0zm6.374878 -0.8125l-0.890625 0l0 -1.21875l1.703125 0l1.203125 1.21875l0 4.109375l-1.203125 1.203125l-2.65625 0l-0.609375 -0.609375l0 -0.4375l2.453125 0l0 -4.265625zm-0.3125 2.5l0 0.53125l-0.609375 0.59375l-1.09375 0l-1.203125 -1.203125l0 -2.421875l1.203125 -1.21875l0.8125 0l0 3.71875l0.890625 0zm5.212738 1.125l-0.8125 0l-1.203125 -1.203125l0 -2.421875l1.203125 -1.21875l0.8125 0l0 4.84375zm0.3125 -1.9375l0 -0.84375l1.0625 0l0 -0.84375l-1.0625 0l0 -1.21875l1.703125 0l1.21875 1.21875l0 1.6875l-2.921875 0zm0 1.9375l0 -1.125l2.703125 0l0 0.515625l-0.59375 0.609375l-2.109375 0z" fill-rule="nonzero"/><path fill="#000000" fill-opacity="0.0" d="m109.47113 337.77304l0 0c0 -1.765625 1.4313049 -3.19693 3.1969147 -3.19693l176.97624 0c0.8478699 0 1.6610413 0.3368225 2.260559 0.93637085c0.59954834 0.5995178 0.93637085 1.4126587 0.93637085 2.260559l0 12.787262c0 1.7655945 -1.4313049 3.19693 -3.19693 3.19693l-176.97624 0l0 0c-1.7656097 0 -3.1969147 -1.4313354 -3.1969147 -3.19693z" fill-rule="evenodd"/><path fill="#ffffff" d="m161.25716 347.62668l0 -6.046875l1.96875 0l0 6.046875l-1.96875 0zm2.28125 -4.84375l0 -1.203125l2.265625 0l1.203125 1.203125l0 2.078125l-1.203125 1.21875l-2.265625 0l0 -1.21875l1.46875 0l0 -2.078125l-1.46875 0zm6.2814484 4.84375l-0.8125 0l-1.203125 -1.203125l0 -2.421875l1.203125 -1.21875l0.8125 0l0 4.84375zm0.3125 -1.9375l0 -0.84375l1.0625 0l0 -0.84375l-1.0625 0l0 -1.21875l1.703125 0l1.21875 1.21875l0 1.6875l-2.921875 0zm0 1.9375l0 -1.125l2.703125 0l0 0.515625l-0.59375 0.609375l-2.109375 0zm5.781128 -6.6875l0 6.6875l-2.015625 0l0 -6.6875l2.015625 0zm1.21875 3.0625l-0.890625 0l0 -0.609375l0.578125 -0.609375l1.109375 0l1.21875 1.21875l0 2.421875l-1.21875 1.203125l-1.6875 0l0 -1.125l0.890625 0l0 -2.5zm4.884613 -3.0625l0 6.6875l-2.015625 0l0 -6.6875l2.015625 0zm1.21875 3.0625l-0.890625 0l0 -0.609375l0.578125 -0.609375l1.109375 0l1.21875 1.21875l0 2.421875l-1.21875 1.203125l-1.6875 0l0 -1.125l0.890625 0l0 -2.5zm5.790863 3.625l-1.78125 0l-1.140625 -1.125l0 -5.5625l2.015625 0l0 5.484375l0.90625 0l0 1.203125zm2.4922333 0l-0.8125 0l-1.203125 -1.203125l0 -2.421875l1.203125 -1.21875l0.8125 0l0 4.84375zm0.3125 -1.9375l0 -0.84375l1.0625 0l0 -0.84375l-1.0625 0l0 -1.21875l1.703125 0l1.21875 1.21875l0 1.6875l-2.921875 0zm0 1.9375l0 -1.125l2.703125 0l0 0.515625l-0.59375 0.609375l-2.109375 0zm4.140503 -3.375l4.03125 0l0 1.09375l-4.03125 0l0 -1.09375zm5.403717 3.375l0 -6.046875l1.96875 0l0 6.046875l-1.96875 0zm2.28125 -4.84375l0 -1.203125l2.265625 0l1.203125 1.203125l0 2.078125l-1.203125 1.21875l-2.265625 0l0 -1.21875l1.46875 0l0 -2.078125l-1.46875 0zm7.5001984 1.21875l-0.859375 0l0 -0.53125l0.671875 -0.6875l1.21875 0l0.984375 1.140625l0 1.25l-2.015625 0l0 -1.171875zm-3.203125 3.625l0 -4.84375l2.015625 0l0 4.84375l-2.015625 0zm7.814453 0l-0.8125 0l-1.203125 -1.203125l0 -2.421875l1.203125 -1.21875l0.8125 0l0 4.84375zm0.3125 -1.9375l0 -0.84375l1.0625 0l0 -0.84375l-1.0625 0l0 -1.21875l1.703125 0l1.21875 1.21875l0 1.6875l-2.921875 0zm0 1.9375l0 -1.125l2.703125 0l0 0.515625l-0.59375 0.609375l-2.109375 0zm4.828003 -4.84375l0.796875 0l0 1.71875l2.296875 0l1.046875 1.046875l0 0.953125l-1.125 1.125l-0.890625 0l0 -1.828125l-2.171875 0l-1.046875 -1.0l0 -0.921875l1.09375 -1.09375zm0.921875 3.953125l0.890625 0l0 0.890625l-2.078125 0l-0.828125 -1.0l0 -0.390625l2.015625 0l0 0.5zm1.203125 -3.0625l-1.0 0l0 -0.890625l2.140625 0l0.71875 0.71875l0 0.546875l-1.859375 0l0 -0.375zm4.786377 3.953125l-0.8125 0l-1.203125 -1.203125l0 -2.421875l1.203125 -1.21875l0.8125 0l0 4.84375zm0.3125 -1.9375l0 -0.84375l1.0625 0l0 -0.84375l-1.0625 0l0 -1.21875l1.703125 0l1.21875 1.21875l0 1.6875l-2.921875 0zm0 1.9375l0 -1.125l2.703125 0l0 0.515625l-0.59375 0.609375l-2.109375 0zm5.843628 -1.203125l1.328125 0l0 1.203125l-2.140625 0l-1.203125 -1.203125l0 -2.421875l-0.40625 0l0 -1.21875l0.40625 0l0 -0.515625l2.015625 -0.6875l0 4.84375zm0.3125 -2.421875l0 -1.21875l1.078125 0l0 1.21875l-1.078125 0zm2.8394775 -1.21875l0.796875 0l0 1.71875l2.296875 0l1.046875 1.046875l0 0.953125l-1.125 1.125l-0.890625 0l0 -1.828125l-2.171875 0l-1.046875 -1.0l0 -0.921875l1.09375 -1.09375zm0.921875 3.953125l0.890625 0l0 0.890625l-2.078125 0l-0.828125 -1.0l0 -0.390625l2.015625 0l0 0.5zm1.203125 -3.0625l-1.0 0l0 -0.890625l2.140625 0l0.71875 0.71875l0 0.546875l-1.859375 0l0 -0.375z" fill-rule="nonzero"/></g></svg>