<svg version="1.1" viewBox="0.0 0.0 256.0 384.0" fill="none" stroke="none" stroke-linecap="square" stroke-miterlimit="10" xmlns:xlink="http://www.w3.org/1999/xlink" xmlns="http://www.w3.org/2000/svg"><clipPath id="p.0"><path d="m0 0l256.0 0l0 384.0l-256.0 0l0 -384.0z" clip-rule="nonzero"/></clipPath><g clip-path="url(#p.0)"><path fill="#000000" fill-opacity="0.0" d="m0 0l256.0 0l0 384.0l-256.0 0z" fill-rule="evenodd"/><path fill="#6d9eeb" d="m17.312313 48.468754c1.1865063 0 2.3026257 0.23868561 3.34836 0.716053c1.0457344 0.47034836 1.9607506 1.1161957 2.7450504 1.9375496c0.78430176 0.8213539 1.4010181 1.7866211 1.8501453 2.8957977c0.45583344 1.1021576 0.68374825 2.274517 0.68374825 3.5170784c0 1.2425575 -0.22791481 2.4184303 -0.68374825 3.527607c-0.4491272 1.1021576 -1.0658436 2.0639153 -1.8501453 2.8852654c-0.78429985 0.8213577 -1.699316 1.4707184 -2.7450504 1.948082c-1.0457344 0.47034454 -2.1618538 0.70552063 -3.34836 0.70552063l-8.65747 0l0 -18.132954zm-17.31494 -9.066479l0 45.300804l8.657471 0l0 -9.066483l8.65747 0c2.3730125 0 4.6086044 -0.47385406 6.7067738 -1.4215698c2.1048775 -0.94771576 3.9416122 -2.2429276 5.510214 -3.8856354c1.5686016 -1.6427078 2.8053818 -3.5627136 3.7103462 -5.760002c0.90496063 -2.204319 1.357441 -4.549038 1.357441 -7.034157c0 -1.6637688 -0.20780563 -3.2643547 -0.6234169 -4.801758c-0.40890884 -1.5374069 -0.9921074 -2.9800415 -1.7495956 -4.3279037c-0.7507801 -1.3478622 -1.6557426 -2.5728683 -2.7148857 -3.6750298c-1.0524349 -1.1091766 -2.21883 -2.0568924 -3.4991856 -2.8431473c-1.2736492 -0.7932701 -2.6445007 -1.4040222 -4.1125507 -1.8322487c-1.4680481 -0.4352455 -2.9964294 -0.6528702 -4.58514 -0.6528702z" fill-rule="evenodd"/><path fill="#6d9eeb" d="m53.571125 58.293404c0.40220642 0 0.78765106 0.021060944 1.1563416 0.06318283c0.3753891 0.042118073 0.75413513 0.13689041 1.1362305 0.2843132l-9.592598 13.3312c-0.16088104 -0.29484558 -0.29159927 -0.63181305 -0.39215088 -1.0108948c-0.100551605 -0.37908936 -0.18769455 -0.7722168 -0.26143265 -1.1793823c-0.06703186 -0.4141922 -0.11730957 -0.8213577 -0.15082932 -1.2215042c-0.026809692 -0.40014648 -0.040218353 -0.7581711 -0.040218353 -1.0740738c0 -1.4110413 0.21115875 -2.6781693 0.63347244 -3.8013916c0.4223175 -1.1302376 0.9988136 -2.0955048 1.7294846 -2.8957977c0.73737717 -0.80029297 1.6021194 -1.4145508 2.594223 -1.8427811c0.9988098 -0.4352455 2.0613022 -0.6528702 3.187477 -0.6528702zm0 -8.718983c-2.272461 0 -4.4108505 0.431736 -6.4151764 1.2952118c-1.9976158 0.8634758 -3.7472115 2.0744438 -5.2487793 3.6329079c-1.4948616 1.5584679 -2.6746635 3.443367 -3.5394058 5.654705c-0.8647423 2.2113342 -1.2971115 4.654331 -1.2971115 7.3289986c0 2.6114807 0.43236923 5.00885 1.2971115 7.192108c0.8647423 2.1762314 2.0445442 4.0541153 3.5394058 5.633644c1.5015678 1.5795212 3.2511635 2.811554 5.2487793 3.6960907c2.0043259 0.8845291 4.1427193 1.3267975 6.4151764 1.3267975c1.3473892 0 2.6579056 -0.1649704 3.9315567 -0.49491882c1.2803535 -0.32292175 2.4970245 -0.80029297 3.650013 -1.4320984c1.1596947 -0.63181305 2.235592 -1.4005127 3.2276993 -2.3061142c0.9988098 -0.9055939 1.88031 -1.9270172 2.6445007 -3.0642776l-6.033081 -6.3496933c-0.32176208 0.7581711 -0.7407265 1.4496536 -1.2568893 2.0744476c-0.50946426 0.61776733 -1.092659 1.1442719 -1.7495956 1.5795212c-0.6502304 0.4282303 -1.3473854 0.7581711 -2.0914688 0.98983765c-0.7440796 0.23166656 -1.518322 0.34749603 -2.3227348 0.34749603c-0.32176208 0 -0.643528 -0.014045715 -0.9652939 -0.042121887c-0.32176208 -0.035102844 -0.643528 -0.1053009 -0.96529007 -0.2106018l15.444687 -19.491348c-0.7641907 -1.1372604 -1.6490479 -2.162197 -2.6545563 -3.07481c-1.005516 -0.9196358 -2.0881195 -1.6953583 -3.2478104 -2.3271675c-1.1529884 -0.63181305 -2.3730125 -1.1161995 -3.6600685 -1.453167c-1.287056 -0.33696365 -2.6042786 -0.5054474 -3.9516678 -0.5054474z" fill-rule="evenodd"/><path fill="#6d9eeb" d="m87.05472 58.293404c1.1261749 0 2.185318 0.23166275 3.1774292 0.69499207c0.9988098 0.4633255 1.8702545 1.1056671 2.614334 1.927021c0.7440796 0.8213539 1.3306274 1.7971497 1.7596436 2.9273872c0.43572235 1.1232224 0.65358734 2.3377 0.65358734 3.6434402c0 1.3057404 -0.21786499 2.5167084 -0.65358734 3.6329117c-0.4290161 1.1161957 -1.015564 2.0849686 -1.7596436 2.9063263c-0.7440796 0.8213501 -1.6155243 1.4707108 -2.614334 1.948082c-0.9921112 0.47034454 -2.0512543 0.70552063 -3.1774292 0.70552063c-1.1261749 0 -2.1886673 -0.23517609 -3.187477 -0.70552063c-0.9921036 -0.47737122 -1.860199 -1.1267319 -2.6042786 -1.948082c-0.7440796 -0.8213577 -1.3272781 -1.7901306 -1.749588 -2.9063263c-0.4223175 -1.1162033 -0.63347626 -2.3271713 -0.63347626 -3.6329117c0 -1.1793823 0.21115875 -2.3201447 0.63347626 -3.4223022c0.42230988 -1.1091805 1.0055084 -2.0884857 1.749588 -2.9379234c0.7440796 -0.85645294 1.612175 -1.5409126 2.6042786 -2.0533829c0.9988098 -0.5194855 2.0613022 -0.779232 3.187477 -0.779232zm-16.500473 -20.881332l0 30.074173c0 2.6114807 0.43237305 5.00885 1.2971115 7.192108c0.8647461 2.1762314 2.044548 4.0541153 3.5394058 5.633644c1.5015717 1.5795212 3.2511673 2.811554 5.248787 3.6960907c2.0043182 0.8845291 4.1427155 1.3267975 6.415169 1.3267975c2.292572 0 4.437668 -0.43173218 6.4352875 -1.2952118c2.0043259 -0.863472 3.7505646 -2.0779572 5.2387238 -3.6434402c1.4881592 -1.5725021 2.6646118 -3.4538956 3.529358 -5.6441727c0.86473846 -2.1902695 1.2971115 -4.612213 1.2971115 -7.2658157c0 -2.5904236 -0.43237305 -4.973751 -1.2971115 -7.1499863c-0.8647461 -2.1832542 -2.0411987 -4.0751762 -3.529358 -5.675762c-1.4881592 -1.6005859 -3.234398 -2.8466568 -5.2387238 -3.7382126c-1.9976196 -0.8985748 -4.1427155 -1.3478622 -6.4352875 -1.3478622c-0.7440796 0 -1.5082703 0.08073425 -2.2925644 0.24219513c-0.78430176 0.15444183 -1.5451431 0.37908554 -2.2825165 0.6739311c-0.73067474 0.29484558 -1.4144211 0.6739311 -2.0512466 1.1372566c-0.63012695 0.46332932 -1.1663971 0.98983765 -1.6088257 1.5795288l0 -15.795261z" fill-rule="evenodd"/><path fill="#6d9eeb" d="m123.94701 58.293404c1.1261749 0 2.185318 0.23166275 3.1774216 0.69499207c0.99881744 0.4633255 1.8702621 1.1056671 2.6143417 1.927021c0.7440796 0.8213539 1.3306274 1.7971497 1.7596436 2.9273872c0.43571472 1.1232224 0.6535797 2.3377 0.6535797 3.6434402c0 1.3057404 -0.21786499 2.5167084 -0.6535797 3.6329117c-0.4290161 1.1161957 -1.015564 2.0849686 -1.7596436 2.9063263c-0.7440796 0.8213501 -1.6155243 1.4707108 -2.6143417 1.948082c-0.9921036 0.47034454 -2.0512466 0.70552063 -3.1774216 0.70552063c-1.1261749 0 -2.1886673 -0.23517609 -3.187477 -0.70552063c-0.9921036 -0.47737122 -1.860199 -1.1267319 -2.6042786 -1.948082c-0.7440796 -0.8213577 -1.3272781 -1.7901306 -1.7495956 -2.9063263c-0.4223175 -1.1162033 -0.6334686 -2.3271713 -0.6334686 -3.6329117c0 -1.1793823 0.21115112 -2.3201447 0.6334686 -3.4223022c0.4223175 -1.1091805 1.005516 -2.0884857 1.7495956 -2.9379234c0.7440796 -0.85645294 1.612175 -1.5409126 2.6042786 -2.0533829c0.9988098 -0.5194855 2.0613022 -0.779232 3.187477 -0.779232zm-16.500473 -20.881332l0 30.074173c0 2.6114807 0.43237305 5.00885 1.2971115 7.192108c0.86473846 2.1762314 2.044548 4.0541153 3.5394058 5.633644c1.501564 1.5795212 3.2511597 2.811554 5.2487793 3.6960907c2.0043259 0.8845291 4.1427155 1.3267975 6.4151764 1.3267975c2.292572 0 4.437668 -0.43173218 6.4352875 -1.2952118c2.0043182 -0.863472 3.7505646 -2.0779572 5.2387238 -3.6434402c1.4881592 -1.5725021 2.6646118 -3.4538956 3.529358 -5.6441727c0.86473083 -2.1902695 1.2971039 -4.612213 1.2971039 -7.2658157c0 -2.5904236 -0.43237305 -4.973751 -1.2971039 -7.1499863c-0.8647461 -2.1832542 -2.0411987 -4.0751762 -3.529358 -5.675762c-1.4881592 -1.6005859 -3.2344055 -2.8466568 -5.2387238 -3.7382126c-1.9976196 -0.8985748 -4.1427155 -1.3478622 -6.4352875 -1.3478622c-0.7440796 0 -1.5082703 0.08073425 -2.292572 0.24219513c-0.78430176 0.15444183 -1.5451355 0.37908554 -2.2825165 0.6739311c-0.7306671 0.29484558 -1.4144211 0.6739311 -2.0512466 1.1372566c-0.6301193 0.46332932 -1.1663895 0.98983765 -1.608818 1.5795288l0 -15.795261z" fill-rule="evenodd"/><path fill="#6d9eeb" d="m145.00246 37.41207l0 47.291008l8.295486 0l0 -47.291008z" fill-rule="evenodd"/><path fill="#6d9eeb" d="m174.3534 58.293404c0.40220642 0 0.78764343 0.021060944 1.1563416 0.06318283c0.37538147 0.042118073 0.75413513 0.13689041 1.1362305 0.2843132l-9.592606 13.3312c-0.16087341 -0.29484558 -0.29159546 -0.63181305 -0.39215088 -1.0108948c-0.10054016 -0.37908936 -0.1876831 -0.7722168 -0.26142883 -1.1793823c-0.06703186 -0.4141922 -0.11730957 -0.8213577 -0.15081787 -1.2215042c-0.026824951 -0.40014648 -0.040222168 -0.7581711 -0.040222168 -1.0740738c0 -1.4110413 0.21115112 -2.6781693 0.6334686 -3.8013916c0.4223175 -1.1302376 0.9988098 -2.0955048 1.7294769 -2.8957977c0.737381 -0.80029297 1.6021271 -1.4145508 2.594223 -1.8427811c0.9988251 -0.4352455 2.0613098 -0.6528702 3.1874847 -0.6528702zm0 -8.718983c-2.272461 0 -4.410858 0.431736 -6.4151764 1.2952118c-1.9976196 0.8634758 -3.7472076 2.0744438 -5.2487793 3.6329079c-1.4948578 1.5584679 -2.6746674 3.443367 -3.5394135 5.654705c-0.86473083 2.2113342 -1.2971039 4.654331 -1.2971039 7.3289986c0 2.6114807 0.43237305 5.00885 1.2971039 7.192108c0.8647461 2.1762314 2.0445557 4.0541153 3.5394135 5.633644c1.5015717 1.5795212 3.2511597 2.811554 5.2487793 3.6960907c2.0043182 0.8845291 4.1427155 1.3267975 6.4151764 1.3267975c1.3473816 0 2.657898 -0.1649704 3.931549 -0.49491882c1.280365 -0.32292175 2.4970245 -0.80029297 3.6500244 -1.4320984c1.1596832 -0.63181305 2.2355804 -1.4005127 3.2276917 -2.3061142c0.9988098 -0.9055939 1.88031 -1.9270172 2.6445007 -3.0642776l-6.033081 -6.3496933c-0.32176208 0.7581711 -0.74072266 1.4496536 -1.2568817 2.0744476c-0.5094757 0.61776733 -1.0926666 1.1442719 -1.7496033 1.5795212c-0.65023804 0.4282303 -1.3473816 0.7581711 -2.0914612 0.98983765c-0.7440796 0.23166656 -1.5183258 0.34749603 -2.3227386 0.34749603c-0.32176208 0 -0.64352417 -0.014045715 -0.96528625 -0.042121887c-0.32177734 -0.035102844 -0.6435394 -0.1053009 -0.9653015 -0.2106018l15.444687 -19.491348c-0.7641907 -1.1372604 -1.6490479 -2.162197 -2.6545563 -3.07481c-1.0055084 -0.9196358 -2.0881195 -1.6953583 -3.2478027 -2.3271675c-1.1529999 -0.63181305 -2.3730164 -1.1161995 -3.66008 -1.453167c-1.2870483 -0.33696365 -2.6042786 -0.5054474 -3.9516602 -0.5054474z" fill-rule="evenodd"/><path fill="#f1c232" d="m-0.0026284617 237.3713l0 20.935638l19.680723 0l0 -20.935638z" fill-rule="evenodd"/><path fill="#f1c232" d="m101.18509 108.591705l0 103.14624c0 8.578491 -0.6400223 14.830811 -1.9200668 18.756958c-1.2800446 3.9034271 -3.6161346 7.0012207 -7.008255 9.2933655c-3.392128 2.2694397 -7.4242783 3.4041748 -12.096451 3.4041748c-6.3362274 0 -11.29641 -2.1105957 -14.880547 -6.3317566c-3.5841293 -4.221161 -5.6002045 -12.050751 -6.0482216 -23.488754l-16.800617 2.451004c-0.25600815 14.910248 2.89077 26.143997 9.44035 33.70125c6.570904 7.5572357 16.032581 11.335861 28.385044 11.335861c8.320305 0 15.563232 -1.8041992 21.728798 -5.412613c6.1868896 -3.6084137 10.699059 -8.85083 13.536499 -15.727249c2.8587723 -6.876419 4.2881546 -16.578293 4.2881546 -29.105621l0 -102.02286z" fill-rule="evenodd"/><path fill="#f1c232" d="m198.82068 106.03858c-9.472351 0 -18.080658 1.7020798 -25.824951 5.106247c-7.744278 3.4041672 -13.632492 8.396942 -17.664642 14.9783325c-4.0321503 6.558693 -6.048218 13.616661 -6.048218 21.173912c0 6.876419 1.6427155 13.094696 4.928177 18.65483c3.3067932 5.537445 8.320297 10.178452 15.040558 13.923035c5.184189 2.9275818 14.240509 6.0480804 27.168991 9.361465c12.928482 3.2906952 21.280777 5.718994 25.056915 7.284912c5.8882294 2.3829193 10.112381 5.333191 12.67247 8.85083c2.560089 3.494934 3.840149 7.5912933 3.840149 12.289047c0 4.629669 -1.3333893 8.907562 -4.0001526 12.83371c-2.6454315 3.9034271 -6.6882477 6.978531 -12.1284485 9.225281c-5.440201 2.2467499 -11.712433 3.3701324 -18.816696 3.3701324c-8.00029 0 -15.200546 -1.4751434 -21.600784 -4.425415c-6.400238 -2.9729767 -11.125748 -6.8537292 -14.176529 -11.642258c-3.0294342 -4.8112183 -4.9601746 -10.9614105 -5.792206 -18.450577l-17.56865 1.6340027c0.25601196 10.00824 2.826767 18.983887 7.7122803 26.926956c4.906845 7.920349 11.659103 13.85495 20.256744 17.803787c8.618988 3.9488373 19.296707 5.923233 32.033188 5.923233c10.04837 0 19.083359 -1.9517212 27.104996 -5.8551483c8.0429535 -3.9261475 14.208511 -9.40686 18.496674 -16.442123c4.288162 -7.0579834 6.4322357 -14.5698395 6.4322357 -22.535583c0 -8.033829 -1.9520721 -15.1258545 -5.8562164 -21.276047c-3.9041443 -6.172882 -9.952362 -11.2677765 -18.144669 -15.2846985c-5.632202 -2.7233276 -16.021927 -5.9005585 -31.169144 -9.531662c-15.125885 -3.6538086 -24.480896 -7.2168427 -28.065033 -10.689087c-3.6481323 -3.4722443 -5.4721985 -7.8976593 -5.4721985 -13.276245c0 -6.195587 2.5707703 -11.483383 7.7122803 -15.863419c5.162857 -4.402725 13.376495 -6.60408 24.640915 -6.60408c10.816391 0 18.98735 2.416954 24.512894 7.2508698c5.546875 4.8339233 8.8003235 11.982666 9.760361 21.446243l17.856659 -1.4297485c-0.32000732 -8.782745 -2.6240997 -16.646362 -6.912262 -23.590866c-4.288147 -6.944504 -10.421707 -12.198265 -18.400665 -15.7612915c-7.9576263 -3.5857239 -17.152634 -5.378578 -27.585022 -5.378578z" fill-rule="evenodd"/><path fill="#93c47d" d="m-0.0026244095 106.03858l83.43307 0l-24.162235 27.810738l-31.460087 0l0 36.21057l-27.810745 32.010178z" fill-rule="evenodd"/><path fill="#4132d9" d="m211.4672 85.35723l0 -47.937008l44.53543 47.937008z" fill-rule="evenodd"/><path fill="#cc0000" d="m48.615345 306.8124l16.242794 42.819397l6.8371735 0l16.351318 -42.819397l-7.1265717 0l-12.4081955 34.079193l-12.516716 -34.079193z" fill-rule="evenodd"/><path fill="#cc0000" d="m113.83975 297.72717c2.2911148 0 4.1642075 0.49835205 5.6192627 1.4950256c1.4630966 0.9967041 2.6166916 2.4789734 3.460785 4.4467773c0.86821747 1.9933777 1.4510422 4.421234 1.7484894 7.283539c0.30548096 2.8622742 0.45822144 6.235718 0.45822144 10.120239c0 3.935669 -0.15274048 7.3048096 -0.45822144 10.107483c-0.2974472 2.794159 -0.86821747 5.2262573 -1.7123108 7.296295c-0.8199768 2.0189514 -1.9775925 3.526764 -3.472847 4.523468c-1.4952545 0.9966736 -3.376381 1.4950256 -5.643379 1.4950256c-2.4116974 0 -4.3490906 -0.52389526 -5.812195 -1.5717163c-1.4550552 -1.0477905 -2.580513 -2.56839 -3.3763733 -4.5617676c-0.86821747 -2.1211853 -1.434967 -4.523468 -1.7002487 -7.206848c-0.2652893 -2.6834106 -0.39793396 -6.0184937 -0.39793396 -10.005249c0 -3.6289978 0.14871979 -6.964081 0.446167 -10.00528c0.30548096 -3.0411682 0.86820984 -5.5073547 1.6881866 -7.3984985c0.86820984 -2.0189514 2.0419083 -3.526764 3.52108 -4.523468c1.4872208 -0.9966736 3.3643265 -1.4950256 5.631317 -1.4950256zm0 -6.325165c-6.390999 0 -11.093811 2.423584 -14.108437 7.270752c-3.0146255 4.838623 -4.5219345 12.330841 -4.5219345 22.476685c0 10.069122 1.4872131 17.531555 4.4616394 22.387207c2.9824677 4.8556824 7.7053757 7.283539 14.168732 7.283539c6.36689 0 11.061661 -2.3937683 14.084328 -7.181305c3.0307083 -4.796051 4.5460587 -12.318085 4.5460587 -22.566132c0 -9.941345 -1.4912415 -17.36969 -4.473709 -22.285004c-2.9744263 -4.923828 -7.693321 -7.385742 -14.156677 -7.385742z" fill-rule="evenodd"/><path fill="#cc0000" d="m146.50623 338.70654l0 10.925262l8.645935 0l0 -10.925262z" fill-rule="evenodd"/><path fill="#cc0000" d="m187.85481 319.4627c1.4711304 0 2.8819733 0.12780762 4.2325287 0.38336182c1.3505554 0.2555542 2.5805206 0.7922363 3.6898956 1.6100464c1.5193787 1.1500244 2.6086578 2.504486 3.2678528 4.0634155c0.6672363 1.5589294 1.0008545 3.526764 1.0008545 5.9035034c0 4.2423096 -1.0008545 7.49646 -3.0025635 9.762451c-2.001709 2.2574768 -4.751053 3.3862 -8.248016 3.3862c-1.5193634 0 -2.9261932 -0.25982666 -4.2204742 -0.77944946c-1.2862244 -0.5281677 -2.4840393 -1.3544922 -3.5934296 -2.4789734c-1.3746643 -1.3544617 -2.455902 -3.198761 -3.2437286 -5.532898c-0.77978516 -2.3426514 -1.1696777 -5.5329285 -1.1696777 -9.570801c0 -0.7922363 0.012054443 -1.4481812 0.03617859 -1.9678345c0.024108887 -0.5281677 0.060287476 -1.0733643 0.10852051 -1.6355896c1.8570099 -1.0733643 3.6657867 -1.8656006 5.4263306 -2.3767395c1.7605438 -0.5111084 3.6657867 -0.7666931 5.7157288 -0.7666931zm7.777725 -27.98404c-4.4616394 0 -8.368591 0.8135376 -11.720856 2.4406128c-3.3522644 1.6185608 -6.0895386 3.8717651 -8.211838 6.759613c-2.2428741 3.0411987 -3.8788147 6.5168457 -4.9078064 10.426941c-1.0209503 3.9100952 -1.5314331 8.395233 -1.5314331 13.455353c0 4.9323425 0.5587158 9.149109 1.6761322 12.65033c1.1254578 3.5011902 2.7252197 6.312378 4.799286 8.433533c1.6640625 1.7122803 3.5813751 3.0028687 5.751892 3.8717651c2.1705322 0.868927 4.5822296 1.3033752 7.2351074 1.3033752c5.233383 0 9.650818 -1.831543 13.252289 -5.4945984c3.6095123 -3.6715698 5.414261 -8.4079895 5.414261 -14.2092285c0 -3.3989868 -0.53860474 -6.2868347 -1.6158447 -8.663574c-1.0691833 -2.376709 -2.664917 -4.3445435 -4.787216 -5.903473c-1.8328857 -1.3544922 -3.6255798 -2.2532043 -5.3780823 -2.6961975c-1.744461 -0.45147705 -3.7622528 -0.6772156 -6.0533752 -0.6772156c-2.5805206 0 -4.855545 0.34072876 -6.8251038 1.0222473c-1.9615173 0.67297363 -3.955185 1.6611328 -5.981018 2.964508c0.50645447 -5.852356 2.3031769 -10.495087 5.390152 -13.928131c3.086975 -3.4415588 7.2230377 -5.1623535 12.408188 -5.1623535c1.4228973 0 2.8136597 0.17462158 4.172241 0.52389526c1.3666382 0.34075928 2.3875885 0.7027893 3.0628662 1.0861511l0.3617401 0l0 -7.321869c-0.9887848 -0.33221436 -1.9655304 -0.56222534 -2.9302063 -0.69000244c-0.9646759 -0.1277771 -2.1584778 -0.19168091 -3.5813751 -0.19168091z" fill-rule="evenodd"/><path fill="#3c78d8" d="m-0.80052495 -0.26771653l260.53543 0l0 16.97638l-260.53543 0z" fill-rule="evenodd"/><path fill="#3c78d8" d="m0 367.02362l256.0 0l0 16.97638l-256.0 0z" fill-rule="evenodd"/></g></svg>