<svg version="1" xmlns="http://www.w3.org/2000/svg" width="933.333" height="933.333" viewBox="0 0 700.000000 700.000000"><path d="M533.4 17.7c-6.4 9.8-16.3 25-22.1 33.8-5.7 8.8-15.2 23.2-20.9 32-5.8 8.8-15.1 22.9-20.7 31.3-5.6 8.4-10.6 16.2-11.2 17.3-.5 1-1.3 1.9-1.7 1.9-.5 0-.8.5-.8 1 0 1.3-7.9 12.9-10 14.8-1.3 1.2-1.3 1.3 0 .7 1.2-.5 1.2-.4-.1.7-.8.7-1.8 2.1-2.2 3.1-.4 1.1-1.2 1.5-1.8 1.1-.8-.5-.9-.3-.4.6.5.8.2 1.8-.9 2.6-1 .7-1.8 1.6-1.9 2.1-.1.4-.5.7-1 .5-.4-.1-.6.1-.6.5.3 2-.2 3.4-1.1 2.8-.5-.3-.7 0-.5.7.3.8-.4 2.4-1.5 3.6-1.1 1.2-2 2.3-1.9 2.4.2.2-1 2.3-2.5 4.7-2.2 3.4-3 4.1-3.8 3-.7-1-.8-.8-.3.8.4 1.4.2 2.3-.5 2.3-.6 0-.9.3-.6.8.2.4-.2 1.6-.9 2.6-1.2 1.6-1.6 1.6-3.4.4-1.2-.8-1.8-1.8-1.3-2.2.4-.5 0-.7-.8-.5-2.6.5-11-4.3-11-6.3 0-1-.4-1.8-1-1.8-.5 0-.7.7-.4 1.5.4 1.1-.7.9-4.8-.8-2.9-1.2-5.6-2.7-6-3.2-.4-.6-.8-.6-.8-.1 0 .4-.8-.2-1.8-1.5-1.5-1.7-2.1-1.9-2.7-.9-.5.8-.4 1.1.3.6.6-.3 1.4-.1 1.8.5.5.9 0 1-1.7.5-1.3-.4-3.4-1-4.6-1.3-1.3-.3-2.3-1.3-2.3-2.2 0-1.3-.2-1.4-.9-.2-.8 1.2-1.4 1.2-3.9.2-1.7-.7-3.6-1-4.1-.6-1 .6-1.6-.8-1.2-2.8.1-.5-.3-.6-.9-.2-.6.3-.8 1.1-.5 1.6.4.5-.1.9-1 .9s-1.4-.4-1.1-.9c.3-.5-.1-1.2-1-1.5-.8-.3-1.2-.2-.9.4 1 1.6-1.7 1.1-3.7-.7-1.6-1.4-1.8-1.4-1.3-.1.5 1.2.1 1.4-2.2 1-1.5-.2-3.4-1-4.2-1.6-1.1-.8-1.3-.8-.7.1.4.7.3 1.3-.3 1.3-.5 0-1.2-.8-1.4-1.8-.4-1.6-.5-1.6-.6 0 0 1-.5 1.8-1.1 1.8-.5 0-1-.8-1.1-1.8 0-1.4-.2-1.4-.9.3-.5 1.1-.9 1.4-.9.6-.1-1.1-.4-1.1-1.8 0-1.1 1-1.4 1-.9.1.8-1.3-.6-1.7-1.8-.5-1.2 1.2-3.7 1.2-2.9 0 .4-.7-.1-.6-1 .2-1.5 1.2-2.1.9-1.9-1 .1-.4-.8-.5-1.9-.2-1.6.5-1.8.8-.7 1.4.7.5.8.9.2.9-.5 0-1.6-.6-2.3-1.3-1.1-1-1.3-1-.7 0 .5.9-.4 1.3-3.1 1.5-5.7.2-7.6.4-9.3 1.1-3.9 1.5-7.3 1.7-8.7.6-1.1-1-1.4-1-1.1.1.2.8-.5 1.6-1.4 1.8-1.1.2-1.8-.2-1.8-1.2 0-.8-.4-1.7-.9-2-.4-.3-.6.6-.3 2 .3 1.8.1 2.5-.9 2.3-.8-.1-2.7.3-4.4 1-1.6.7-3.7 1.4-4.6 1.6-.9.2-2.5.8-3.5 1.3-6.4 3.2-11.7 5.1-12.6 4.6-.6-.4-.8-.3-.5.3.4.6-1.1 1.8-3.3 2.8-2.2 1-4.5 2.4-5.1 3.1-.6.7-1.9 1.1-3 .9-1.1-.2-1.7 0-1.4.5.7 1.2-4.1 4.4-5.4 3.5-.7-.4-.8.1-.4 1.1.4 1.1.3 1.5-.4 1.1-.6-.4-1.4-.1-1.6.5-.4.9-1.2.6-2.5-1.1-1.3-1.7-1.9-1.9-1.9-.7 0 .8.6 1.7 1.4 2 1.5.6 1.8 2.6.3 2.6-.5 0-2.3 1.3-4 3-1.7 1.6-3.8 3-4.8 3-1.3 0-1.4.2-.4.9 1.1.7 1.1.9-.2 1.4-.8.3-1.7.1-2-.6-.2-.7-.5-.1-.5 1.1-.1 1.5-.9 2.6-2.1 2.9-1.1.3-1.8.9-1.5 1.3.3.5-.5 1.6-1.7 2.4-1.2.9-1.9 1.6-1.5 1.6.4 0-.1.8-1 1.9-1.8 1.8-1.8 1.8-3.5-.1-1-1.1-1.8-1.6-1.8-1.2 0 .5-.4.4-.8-.1-.4-.6-2.4-2.3-4.5-3.8-2-1.6-3.5-3.2-3.2-3.8.4-.5-.2-.6-1.1-.2-1.3.5-1.6.3-1.1-1 .3-.9.1-1.9-.5-2.3-.7-.4-.8-.3-.4.4 1 1.6 0 1.5-2.1-.2-8.5-6.9-16.3-13.5-18.5-15.8-1.6-1.5-2.8-2.5-2.8-2.1 0 .3-.9-.2-2-1.2s-1.7-2.2-1.3-2.8c.3-.5.2-.7-.4-.4-.9.6-9.6-5.9-12.1-9.1-.6-.9-1.2-1.2-1.2-.6 0 .5-.4.4-.8-.1-.4-.6-1.9-2-3.4-3.1-1.5-1.2-5.1-4.1-8-6.7-2.9-2.5-12.7-10.7-21.8-18.2-9.1-7.5-17.6-14.7-19-15.9-1.4-1.2-20.5-17.2-42.5-35.6-22-18.4-48.1-40.2-58-48.4C16.6 33.3 7.4 25.5 6 24.2c-1.4-1.3-3.3-2.8-4.2-3.3C.1 20 0 23.4 0 86.9v67l17.7 11.7c9.8 6.4 25.1 16.4 34.1 22.2 18.2 12 73.8 48.6 83.9 55.3 3.5 2.4 7.3 4.9 8.4 5.5 1.8 1 1.7 1.2-1 3.7-1.6 1.4-3.3 2.2-3.8 1.9-.4-.4-.5-.3-.1.1.3.5-1.7 4.3-4.6 8.6-2.9 4.2-6.1 9.9-7.1 12.7-1 2.7-2.2 5.4-2.6 5.9-.4.6-1 2.2-1.3 3.5-.3 1.4-.8 3.6-1.2 5-.9 3.2-1.3 31.3-.5 32 .8.7 3.4 9.9 3.5 12.7.1 1.1.5 1.9 1 1.5.5-.3.6.2.3 1.2-.4.9-.3 1.5.2 1.2.5-.3 1.3.6 1.9 2.2.8 2.4 2 4.4 7.5 12.5.6 1 1.1 2.3 1 2.8-.2.5.3.8 1 .6.6-.1 1.1.4 1 1-.2.7.4 1.3 1.3 1.3.8 0 1.3.4 1 .9-.3.5.4 1.1 1.5 1.4 1.4.4 2 1.1 1.6 2.1-.4 1-.1 1.3.9.9.7-.3 1.4-.1 1.4.3 0 .5 3.6 3.1 8 5.9 5.4 3.4 7.9 5.5 7.6 6.6-.2.9.2 1.6.9 1.6s1.1-.6.8-1.3c-.3-.9 1-.7 4.5.6 6.3 2.4 17.9 5.2 21.5 5.2 1.5-.1 2.7.4 2.7.9s.5.9 1.1.9c.5 0 .7-.5.4-1-.3-.6-.1-1 .4-1 .6 0 1.1.4 1.1 1 0 .5.5 1 1.1 1 .5 0 .7-.4.4-1-.3-.5.3-1 1.4-1 1.2 0 2.1.5 2.1 1.1 0 .5-.4.7-1 .4-.5-.3-.7 0-.4.8.4 1-.6 1.3-4.1 1.2-4.1-.2-4.4-.1-2.8 1.2 1.7 1.4 1.7 1.4 0 .9-.9-.3-1.7-.1-1.7.4 0 1.5 3 1.2 3.6-.3.2-.7 1.4-1.3 2.4-1.4 2.7-.2 1.6 1.3-2.1 3.3-2.5 1.3-3.3 1.3-4.7.2-3-2.3-4.2-4.8-2.3-4.8.5 0 1.2.8 1.5 1.7.4 1.5.5 1.5.3-.1-.3-2.8-2.4-3.1-3.8-.4-.6 1.3-.9 2-.5 1.7.4-.4 1.9.4 3.3 1.7 1.5 1.4 3.6 2.3 4.6 2.2 1.1-.2 2.2.3 2.4 1 .3.8-.1 1-1.4.5-1.2-.4-1 0 .7 1.4 1.4 1.2 2.2 2.5 1.8 2.9-.4.4-1.9-.5-3.3-2s-2.5-2.4-2.5-2c0 .4 1 1.8 2.2 3.1 1.2 1.3 1.7 2.3 1.2 2.3-1.4 0-3-1.3-4.2-3.5-1-1.8-1.1-1.8-1.2-.2 0 1 1.5 2.7 3.5 3.8 1.9 1.2 3.5 2.8 3.6 3.7 0 1.1.2 1.3.6.4.3-.7-.1-1.9-.7-2.7-.8-1-.9-1.5-.2-1.5.6 0 1.5.8 2.1 1.7.5 1 1.3 1.7 1.8 1.5.4-.2.9.2 1.2 1 .2.7 0 1-.4.5-.5-.4-1.7 0-2.7.9-1.6 1.6-1.8 1.5-2.7-.7-.7-1.7-1-1.9-1-.7-.1.9.3 1.9.9 2.3.5.3.7 1.3.4 2.3-.5 1.6-.5 1.6.6-.1.6-.9 1.6-1.7 2.2-1.7.7 0 .6.5-.2 1.5-.9 1-.9 1.5-.1 1.5.6 0 1.1-.5 1.1-1.1 0-.5.6-.7 1.3-.3.9.6.9.4 0-.7-2-2-1.5-3.1.6-1.7 1.1.7 1.7 1.6 1.5 2-.3.4 1.2.6 3.2.3 3-.4 3.5-.2 2.5.8-1.1 1.1-4 1.5-10.6 1.7-2 .1-5.5 4-3.6 4 .5 0 1.1-.7 1.5-1.5.3-.8 1-1.5 1.6-1.5.6 0 .8.4.5 1-.3.5-.1 1 .4 1 .6 0 1.1-.5 1.1-1.1 0-.8.5-.7 1.5.1.9.7 1.8 1 2.2.6.3-.3.1-.6-.5-.6-.7 0-1.2-.4-1.2-1 0-.5 1-.8 2.3-.6 1.2.3 2.4.5 2.7.5.3.1-.1.5-.9 1-1.3.8-.2.8 7.2.2.5-.1.5-.6.1-1.2-.4-.8-.9-.7-1.5.2-.7 1.2-.9 1.2-.9 0 0-1.1-.3-1.1-1.5-.1-.8.7-1.5.8-1.5.2 0-.5.7-1.5 1.5-2.2.8-.7 1.5-.8 1.5-.3s1.4.9 3 .8c1.7-.1 3.3.2 3.6.7.3.4-.2.8-1.1.8-.9 0-1.4.4-1.1.9.9 1.3-3.6 2.7-8.2 2.5-4-.2-4.2-.1-2.3 1.3 1.5 1 2.6 1.1 4 .3 1.2-.6 2.2-.6 2.6-.1.3.5-.4 1.2-1.5 1.6-1.2.4-1.7 1.1-1.3 1.8.3.6-.8.1-2.5-1.2-1.8-1.2-3.2-1.8-3.2-1.2 0 .6.5 1.1 1.1 1.1.5 0 .7.4.4 1-.3.5 0 .7.7.5.9-.4 1.4.2 1.4 1.5 0 2.2-1.1 2.7-2 .7-.4-.6-.4-.2-.2 1 .2 1.3-.2 2.4-1.1 2.7-.8.3-1.2 1-.9 1.5.3.5-.3 1.1-1.3 1.4-1.3.3-2.2-.3-3-2-1-2.2-3.5-2.9-3.1-.9.1.5-.4 1.3-1.2 1.8-1 .8-1 .9.2.5.8-.2 1.4-1 1.3-1.6-.5-2.1 1.4-1.1 2.5 1.5.7 1.4 1.7 2.2 2.2 1.9.6-.3 1-.1 1 .4 0 .6-.5 1.1-1.1 1.1-.5 0-.7.4-.4 1 .3.5-.3 1.5-1.3 2.1-1.2.7-1.7 1.9-1.5 3 .3 1.1-.1 2.1-1.1 2.5-.9.3-1.3 1-1 1.6.3.5-.2 1.6-1.2 2.4-1.1.9-1.3 1.3-.6.9.6-.3 1.2-.1 1.2.4 0 .6-.5 1.1-1.1 1.1-.5 0-.8.4-.5.9.4.5-.1 3.5-.9 6.7-.8 3.1-1.6 7.9-1.6 10.5-.1 2.7-.6 4.6-1.1 4.3-.4-.3-.8 0-.8.5 0 .6.3 1.1.8 1.1.6 0 1.3 6.1 1.6 14.7.1 1.8.4 3.3.7 3.3.4 0 .9 1.2 1.2 2.7.4 2.1-.3 3.8-2.6 6.8-1.8 2.2-3.7 4.4-4.3 5-.5.5-3 3.5-5.5 6.5-2.4 3-4.8 6-5.4 6.6-.5.6-2.6 3-4.5 5.4-1.9 2.4-4.7 5.8-6.1 7.5-1.4 1.6-3.5 4.1-4.7 5.5-10.3 12.4-100.7 121-102 122.5-3 3.6-26.6 31.8-31.1 37.2l-4.3 5.3h133l2.3-3.8c2.2-3.5 10.5-16.1 60.5-91.9 10.8-16.4 20.1-30.1 20.6-30.4.5-.3.9-.9.9-1.2-.1-1.1 3.4-6.7 4.2-6.7.4 0 .7-.7.7-1.5s.3-1.5.8-1.5c.4 0 1.3-1.4 2-3 .8-1.8 1.8-2.7 2.5-2.3.7.3.9.3.5-.2-1-1.1 1.1-4.7 2.2-4 .6.3.7-.1.4-.9-.3-.9-.2-1.6.4-1.6.5 0 1.2-.9 1.5-2 .4-1.4 1.1-1.8 2.8-1.4 2.9.7 9.8.6 10.9-.1 1.1-.7 3.1 2 2.2 3-.4.5-.2.5.5.1s.9-1.4.6-2.4c-.3-.9-.3-1.4.1-1 .4.3 2 .3 3.6-.2 1.8-.5 3.3-.4 4.1.3.8.7 1 .8.7.3-.4-.5 3.1-2.2 7.9-3.8 9.4-3.1 13.4-5.1 17.2-8.5 1.4-1.2 2.8-2 3.3-1.7.4.3.8 0 .8-.6s.4-.8 1-.5c.5.3 1-.1 1-.9 0-.9.5-1.6 1.1-1.6.6 0 2.8-1.9 4.8-4.3 2-2.3 5.1-5.8 7-7.7 1.9-1.9 3.3-3.6 3.2-3.8-.5-.6 2.5-6.2 3.3-6.2.5 0 .6.3.3.7-.4.3.1 1.2 1.1 2 1.5 1.3 1.5 1.3-.8.7-1.4-.3-2.2-.3-1.8.1.4.4 1.9.9 3.4 1.1 2.4.2 2.5.1 1-1.5-.9-1-1.6-2.2-1.6-2.8 0-.6-.6-1.4-1.2-1.6-1-.4-1-.6 0-.6.7-.1 1-.6.7-1.1-.3-.6 0-1.3.9-1.6.9-.3 1.2-1.2.8-2.2-.5-1.5-.4-1.5 1.2-.3 1.1.9 1.3 1.7.6 2.1-.6.4-.8 1.4-.4 2.3.4 1.2.2 1.6-.7 1.4-.8-.2-1.1-.2-.6 0 .4.3.5.8.2 1.3-.3.4.2 1.3 1 2s1.5 1.9 1.5 2.6c0 .8.5 1.4 1 1.4.7 0 .7-.6 0-1.9-1.4-2.8-1.2-3.6.5-2.1 1.5 1.2 2 .4 1.6-2.3-.2-1.1 1.3-.8 3.5.7 1.5 1.2 1.7 1.7.7 2.7-1.6 1.6-1.7 2.9-.2 2.9.5 0 .8-.4.4-.9-1.3-2.2 1.2-1.7 2.8.5 1.8 2.5 1.8 2.5-.5 2.1-1.3-.2-1.7-.2-1 0 .7.3.9.9.6 1.5-.4.6.1.6 1.4-.1 1.7-.9 2.3-.7 3.5 1.3 1 1.4 2.6 2.3 4.1 2.3 1.9 0 2.2-.2 1.3-1.2-.9-.9-1.4-1-1.9-.2-.4.7-1.5.1-2.8-1.6-1.2-1.5-2.8-3.4-3.7-4.3-.8-.8-1.2-1.8-.9-2.2.4-.4 1.9.7 3.4 2.4s3.8 3 5.2 3.1c1.4 0 1.9-.1 1.2-.4-.6-.3-1-.9-.6-1.4.3-.5 0-.9-.5-.9-.6 0-1.1.5-1.1 1.2s-1.5-.3-3.4-2.1c-2.1-2-3.9-3-4.6-2.6-.8.5-1.1.3-.8-.6.6-1.5 3.9-1.3 4.9.3.4.6.6-.2.5-1.8 0-1.6-.6-2.9-1.1-2.9-.6 0-.9.6-.9 1.2.2 1.6-1.2 1.7-2.2.1-.4-.6.3-1.9 1.6-3 3.7-3 4-2.6 4.1 5.5 0 2 .4 3.7.9 3.7s.7-1.4.5-3.1c-.4-2.6-.2-2.9 1.1-1.9.8.8 1.2 2.1.9 3.1-.4 1.1-.2 1.9.5 1.9.6 0 .9-.4.5-.9-.3-.5-.1-1.2.5-1.6.5-.3 1-.1 1 .5s.5.8 1.1.4c.8-.5.6-1-.7-1.8-1.1-.6-2-2-2.2-3.1-.2-1.9-.1-1.9 1.7.2 1 1.3 2.4 2.3 3 2.3 1.4 0 1.4 1.7.1 2.5-.5.3-1 1.2-1 1.8 0 .7.5.4 1.1-.5.5-1 1.5-1.8 2.1-1.8.7 0 .7.4-.1 1.4-.9 1.1-.8 1.5.6 2 1.1.5 2.2.1 3-1 1.6-2.1 1.7-3.4.3-3.4-.5 0-.9.3-.9.7.3 1.9-.2 3.3-1.2 3.3-.6 0-.9-.6-.6-1.3.2-.6-.4-2.3-1.4-3.6-1.4-1.7-1.6-2.8-.8-4.2 1.2-2.4 2.2-2.5 1.5-.2-.8 2.5.9 4.7 2.8 4 2.1-.8 4 2.5 2.4 4.1-.9.9-.9 1.2 0 1.2.7 0 1.2-.5 1.2-1.1 0-.5.6-.7 1.3-.3.7.5.6.1-.3-1-1.3-1.6-1.2-2 .5-3.2 2.3-1.7 3.6-1.8 3.2-.3-.1.6.5 1.4 1.3 1.6.9.3 1.1.1.5-.4-1.6-1.3-1.6-4 0-4 1 0 1.4.6 1 1.6-.5 1.2-.3 1.3.5.5.9-.9.9-1.7.1-3.2-.6-1.2-.7-2.3-.2-2.6.4-.3 1.3.5 1.9 1.8.8 1.8.7 2.9-.4 4.5-.8 1.1-1.1 2.1-.6 2.1.5 0 1.3-1 1.9-2.2 1-2.3 1-2.3 2.5.7.8 1.7 1.3 3.6 1.1 4.2-.3.7-.1 1.3.4 1.3 1.2 0 1.4-3.8.2-4.5-.5-.4-.9-1.1-.9-1.7 0-.6.8-.4 1.8.5 1 1 2.5 1.7 3.3 1.6.8 0 .3-.5-1-1-2.2-.8-2.2-1.1-.9-2.7.9-.9 1.4-2.2 1.2-2.7-.3-.6.5-1.1 1.6-1.2 1.6-.1 1.8.2 1.1 1.5s-.3 2 2 3.4c3.8 2.3 4.4 2.3 2.2 0-1-1.1-2.1-1.7-2.5-1.5-.5.2-.8-.3-.8-1.1 0-2.2 1.6-2 3.3.4 1.4 2 1.4 2 3.5-.1 1.7-1.5 2.6-1.7 4.1-.9 1.1.6 1.7 1.7 1.5 2.7-.3 1.1.3 2.3 1.6 3.1 1.1.7 2 .8 2 .3s-.7-1.1-1.5-1.5c-.8-.3-1.5-1-1.5-1.6 0-.6.5-.8 1-.5.6.3 1 .2 1-.3 0-.4-1.8-1.8-4-3.1-4.6-2.6-5.5-4.9-1-2.6 2.3 1.2 3.5 1.3 5 .5 2.5-1.3 2.6-2.1.3-1.4-1.5.5-1.6.4-.3-.5 1.1-.8 1.8-.7 2.6.4.6.8 1.9 1.5 2.8 1.5.9 0 1.6.4 1.6 1 0 .5.5 1 1.2 1 2.4 0 9.7 3.3 9.2 4.1-.3.5 0 .9.5.9.6 0 1.1-.5 1.1-1 0-.7.8-.6 2.2.1 2.6 1.4 5.9 2.1 10.6 2.2 2.5 0 3.2.5 3.3 2.1.1 1.7.2 1.7.6.4.3-1.3 1.4-1.7 4.1-1.7 4.5.1 14.4-1.3 19.7-2.8 1.6-.5 1.8-.3 1 .9-.6.7-.3.6.7-.4.9-1 2.2-1.8 2.8-1.8.7 0 4.1-1.4 7.6-3 6.1-2.9 8.2-3.4 7.7-1.8-.2.5 0 .7.5.6 1.4-.4 5.2 2.3 5.2 3.8 0 .8.4 1.3.9 1 .4-.3 1.9.4 3.2 1.5 1.3 1.2 3.9 3.3 5.6 4.6 1.8 1.4 3 3 2.6 3.7-.3.6-.3.8.2.4 1.1-1 7.6 4.2 6.8 5.5-.4.6-.1.7.7.2.8-.5 1.7-.2 2.4.6.6.8 3.6 3.4 6.6 5.9 3 2.4 6.2 5 7 5.7.8.8 11.6 9.8 24 20 20.2 16.8 79.6 66.5 86 71.9 2.5 2.1 20.4 17.1 48 40.2l14.5 12.1.3-66.7.3-66.7-2.8-2.2c-1.5-1.2-12.7-8.6-24.8-16.5-12.1-8-28.7-18.9-37-24.2-8.2-5.4-26.5-17.4-40.5-26.7s-36-23.7-48.8-32.2c-12.8-8.4-22.9-15.7-22.5-16.1.4-.4 0-.4-1 0-1.7.6-1.7.6-2.1-7.4-.1-.9-.3-1.9-.6-2.2-.3-.3-1.2-3.3-2.1-6.8-1.5-5.7-1.5-6.4 0-7.3 1.3-.8 1.2-.9-.4-.4-1.7.4-2.3-.2-3.4-3-1.3-3.8-11.4-18.2-14-20.2-1.4-1-1.4-1.4-.2-2.5s1.3-1 .7.7c-.4 1.1-.4 1.6 0 1.2.5-.4 1.4.3 2.1 1.5.7 1.3 1.2 1.7 1.3 1.1 0-.9.7-.7 2 .5 2.5 2.1 6.1 2.5 5.3.6-.3-.8-.9-1.4-1.5-1.4-.5 0-.6.4-.3 1 1.1 1.7-1.1 1.1-2.9-.9-1.6-1.8-1.6-1.9 1.5-1.6 1.7.1 3.4.8 3.9 1.4.5 1 .9.9 1.3-.3.7-1.9-.1-4.6-1.4-4.6-.5 0-1.2.7-1.5 1.5-.4.8-1.4 1.5-2.3 1.5-1.3 0-1.4-.2-.1-.9.9-.7.2-.9-2.3-.7-2.4.2-3.6-.1-3.4-.8.2-.6 2.1-1.1 4.2-1.1 2.2 0 4-.5 4.2-1.3.3-.6 0-1.2-.7-1.2-.6 0-.8.4-.5 1 .3.6.2 1-.4 1-1.2 0-2.5-1.9-1.8-2.6.3-.3 1.4-.6 2.5-.7 1.2 0 1.9-.3 1.7-.6-.3-.2.3-1 1.3-1.8 1.6-1.2 1.6-1.4-.3-2.8-2.1-1.7-4.2-1.4-3.7.5.1.6-.2 1-.8.8-1.9-.6-1.6-2 .6-3.4 1.8-1.3 2.4-1.2 4.7.7 3.2 2.4 3.5 2.1.8-.9-1-1.2-2.1-1.9-2.5-1.5-.3.3-.6.2-.6-.4 0-2.1 1.5-2.2 3.7-.1 1.3 1.2 2.3 1.7 2.3 1.2s-.9-1.6-1.9-2.4c-1.1-.7-1.8-1.7-1.5-2.1.2-.4-.2-1.4-1-2.2-.8-.8-1.3-1.6-1.1-1.9 1-.9-4-.6-5.2.4-.9.8-1.3.7-1.3-.2 0-1-.3-1-1.4-.1-1.1.9-1.5.9-1.9-.1-.4-1-.6-1-.6-.1-.1.7-.6 1.3-1.2 1.3-.5 0-.8-.4-.5-.8.3-.5-.8-.8-2.4-.8-2.1 0-2.7.3-2 1.1 1 1.2.4 2.5-1.1 2.5-.8 0-.5-4.8.5-5.7.3-.3.6-.2.6.3s3.7.8 8.5.7c7.8-.2 8.6 0 10.3 2.1 1.6 2.1 2 2.2 3.8.9 1.9-1.4 1.9-1.4-.1-3-2-1.5-2-1.5.3-1 1.2.3 2.2.1 2.2-.4s.4-.9 1-.9c.5 0 .7.8.4 1.7-.5 1.7-.5 1.7.9.1.8-1 1.7-1.5 2-1.1.4.3.7.2.7-.4 0-.6 2-1.6 4.4-2.2 2.5-.6 4.8-1.6 5.1-2.1.5-.8 1.1-.7 2.1.1 1.2 1 1.3.9.8-.6-.5-1.3-.4-1.6.4-1.1.7.4 1.2.2 1.2-.4 0-.6.5-.8 1-.5.6.3 1 .1 1-.5s.4-.9.9-.6c.5.3 1.2-.1 1.5-1 .4-.9.9-1.4 1.2-1.2.3.3 1.9-.7 3.7-2.3 1.7-1.6 3.7-2.7 4.4-2.5.7.3 1-.1.6-1-.6-1.7.8-1.8 2.7-.2 1.2 1.1 1.2 1 .3-.2-.9-1.2-.2-2.5 3.8-6.8 2.7-2.8 4.6-5.2 4.3-5.2-.2 0 0-.6.6-1.3 2.7-3.2 6-8.9 8.2-14.5 1.4-3.4 2.8-5.9 3.3-5.4.5.4.5.1.1-.5-.4-.7-.2-3 .3-5 1.4-5.4 2.1-9.6 2.3-14.5 0-2.4.6-4.6 1.2-5 .8-.5.8-.8 0-.8-.9 0-1.6-4.7-1.8-13.3-.1-1.5-.4-2.7-.7-2.7-.3 0-1.1-2.4-1.9-5.3-2-8-7.3-18.6-11.8-23.6-1.2-1.5-2-3.2-1.7-3.9.3-.7.1-1.1-.4-.7-.5.3-2-.8-3.4-2.5-3.4-3.9-14.7-12.5-20.5-15.4-6.9-3.5-16-6.4-22.1-7.2-4.6-.6-5.2-.9-3.8-1.9 1-.7 1.7-1.5 1.7-1.9 0-1.4 4.4-5.5 5.3-4.9.6.4.7.1.2-.7-.4-.7-.4-1.5.1-1.9.5-.3 3.4-3.5 6.4-7.1 3-3.6 5.7-6.7 6-7 .3-.3 1.7-2.1 3.2-4 1.4-1.9 3.4-4.4 4.4-5.5 1.1-1.1 4.8-5.6 8.4-10 3.5-4.4 6.9-8.5 7.5-9.1.5-.6 2.7-3 4.7-5.5 12.5-15 37.1-44.5 42.1-50.4 3.3-3.9 6.7-7.9 7.6-9 5-6.2 21.6-26.1 22.1-26.5.3-.3 10.6-12.5 22.8-27.2 12.3-14.7 22.8-27 23.3-27.3.5-.4.9-1 .9-1.6 0-.5-25.8-.9-67-.9h-67l-11.6 17.7zm-42.6 335.4c2.4-.1 2.8.9 1 2.7-.9.9-.9 1.2.1 1.2.7 0 1 .4.6.9-.3.5-.1 1.2.5 1.6.6.4.8 1.1.4 1.6-.4.6-1.1.6-1.9-.1-.9-.8-1.5-.8-2 0-.3.5-1.1 1-1.7 1-.6 0-.6-.6.2-1.5.7-.9 1.9-1.4 2.7-1.1 1 .4 1-.1-.2-2.4-1.6-3.1-2.9-3.7-4-2-.3.6.1.7.9.4.9-.3 1.6-.1 1.6.5s-.3 1-.7 1c-2-.3-2.4.2-1.4 1.5.8.9.8 1.6.2 2-.5.4-1.2-.3-1.6-1.4-.4-1.1-1-1.8-1.5-1.5-.7.4-.7-1.7 0-3.5.1-.3.2-.8.1-1.2 0-.4.9-.4 2.2-.1 1.2.3 3.2.5 4.5.4zm26 1.9c1.2 0 1.3.3.4 1.2-1.4 1.4-4.6-.8-3.5-2.5.5-.8.8-.7 1.1.1.2.7 1.1 1.2 2 1.2zm-15.9 2.6c1-.7 2.3 1.9 1.4 2.8-.4.3-1.3.6-2.2.6-1.3 0-1.3-.2-.3-.9 1.1-.7 1-.9-.3-1.4-1.1-.5-1.4-.3-.9.5.5.8.1.9-1.2.4-1-.4-1.5-.4-1.1 0 .4.4.2 1.3-.5 2.1-.6.8-.7 1.3-.2 1.2.5-.1 1.5-.1 2.3 0 2.1.2.5 1.4-2.3 1.7-2.7.3-3-2.1-.5-3.7.8-.5 1-.9.5-.9s-.3-.6.3-1.3c.6-.8.7-1.7.3-2.2-.4-.4.3-.2 1.6.4 1.2.7 2.6.9 3.1.7zm10.3.3c1.5 1.7 1.4 2-.9 4.5-2.9 3.1-3.8 3.3-4 .5-.2-1.6.1-1.8 1.1-1 1.6 1.4 2.9-1 2-3.4-.5-1.2-1-1.3-2-.4-1.4 1.1-2-.1-.7-1.4 1.1-1.2 2.8-.8 4.5 1.2zm-21.2-.3c0 .8-1.9 1.3-2.4.6-.3-.5.1-.9.9-.9s1.5.2 1.5.3zm15.4 1c.8 2-.2 3.6-1.7 2.8-.7-.3-.5 0 .4.8.9.7 1.5 2.3 1.4 3.5-.1 1.3.7 3 1.7 4 1.7 1.6 2.4.9 1.9-2-.1-.9.3-.9 2.3-.1.9.3 1.6 1 1.6 1.6 0 .5-.4.6-1 .3-.5-.3-1-.1-1 .5s-1.2 1.5-2.6 2c-1.7.7-2.4 1.5-2 2.5.3.8.1 1.5-.4 1.5-.9 0-1.2-.8-.9-2.6 0-.4-.5-1.1-1.3-1.6-.9-.7-.7-.8.9-.5 1.5.3 2 .1 1.6-.9-.2-.7-1-1.1-1.7-.8-.7.3-1.3-.2-1.3-1.1 0-.8.5-1.5 1.1-1.5.6 0 .4-.5-.4-1s-1.1-1-.6-1c.5 0 .2-.7-.5-1.6-1.1-1.4-1-1.8.6-3 1-.8 1.3-1.4.7-1.4-.7 0-1.2-.5-1.2-1 0-1.6 1.7-1.2 2.4.6zm-19.3 2.9c1.4 1.6 2 1.7 3.2.7 1.1-1 1.7-.9 2.7.3.7.8.9 1.5.4 1.5-.4 0-.2.6.4 1.2 1 1 .8 1.6-1 3-2.1 1.6-2.1 1.8-.3 1.2 1.5-.4 1.6-.3.6.4-1.1.8-.9 1.1.8 1.7 1.2.3 1.9 1.1 1.6 1.6-.3.5.2.6 1.1.2 1.1-.4 1.5-.2 1.1.4-.4.6 0 1.3.8 1.6.9.4 1.2.1.9-.7-.6-1.5 2.1-4.6 3.8-4.6.6 0 .8.3.5.6-.3.4-.2 1.5.3 2.4.7 1.3.5 2.2-.7 3.1-1.4 1.2-1.6 1.2-1.1-.2.3-.9.2-2.2-.3-3-.7-1.2-.9-1.2-1 .1-.1.8-.1 1.9 0 2.4s-.4 1.3-1.1 1.7c-.8.5-2.4-.4-4.5-2.4-3.8-3.8-5.4-5.1-6.8-5.8-.5-.2-.9-.7-.8-1 .1-.4-1.1-.9-2.7-1.3-2.4-.4-2.9-1-2.8-3 .1-1.4.7-2.2 1.2-1.9.5.4.7-.1.3-1-.8-2.2 1.3-1.7 3.4.8zM509 360c0 .5-.4 1-1 1-.5 0-1-.5-1-1 0-.6.5-1 1-1 .6 0 1 .4 1 1zm-7.9 3.1c1.7 1.5 1.9 1.9.7 1.5-1-.3-2.2.2-2.7 1.2-.6.9-1.1 1.2-1.1.5 0-.6.5-1.5 1.2-1.9.7-.5.5-1.1-.7-2.1-1.1-.7-1.4-1.3-.8-1.3.6 0 2.1.9 3.4 2.1zm-4.1 2.3c0 .2.3 1.2.7 2.2.5 1.3.3 1.5-.7.9-.9-.5-1.1-.4-.6.3.4.7.2 1.2-.5 1.2s-1 .2-.7.5c1.1 1.1 3.6-.7 4.2-3 .4-1.5 1.1-2.2 1.9-1.9 2.1.8 1.6 3.1-1 4.3-1.2.6-2.3 1.5-2.3 2.1 0 .6-.9.6-2.4-.1-2.4-1.1-2.9-4-.8-4.7.7-.2 1-.8.6-1.3-.3-.5 0-.9.5-.9.6 0 1.1.2 1.1.4zm16 14.7c0 .6-.4.7-1 .4-.5-.3-1-1.1-1-1.6 0-.6.5-.7 1-.4.6.3 1 1.1 1 1.6zm-8-.7c0 .3-.4.8-1 1.1-.5.3-1 .1-1-.4 0-.6.5-1.1 1-1.1.6 0 1 .2 1 .4zm-289.3 2.5c-1 1.2-.9 1.4.6.8 1.5-.6 1.9-.1 1.6 1.9 0 .4.5 1 1.3 1.5.7.5 1.3 1.3 1.3 1.9 0 .6.5 1.4 1.2 1.8.6.4 1.3 1.4 1.5 2.2.2.8 1.2 2.2 2.3 3.2 1.1.9 1.6 1.7 1.1 1.8-.5 0 .1 1.2 1.5 2.6 2.3 2.5 2.4 2.6.4 3.7-1.1.6-2.1 1-2.3.9-.1-.1-1.4.9-2.9 2.2-1.5 1.4-2.9 2.3-3.3 2-.3-.3.4-1.2 1.4-2 1.2-.8 1.5-1.4.7-1.4-1 0-1.1-.3-.2-1.3.8-1 .7-1.7-.2-2.8-1-1.2-1-1.2.3-.2.7.7 1.9 1.3 2.5 1.3.5 0 .3-.5-.5-1-1.3-.9-1.3-1 0-1 1.2-.1 1.1-.3-.3-1.1-.9-.6-1.5-1.4-1.2-1.9.3-.5.1-1.1-.4-1.5-.5-.3-.8-1.4-.6-2.4.3-1.5-.1-1.9-1.7-1.6-1.2.3-2.8 0-3.7-.6-1.2-.8-1-.8.9-.3 1.4.3 2.2.3 1.8-.1-.4-.5-.2-1.5.5-2.4 1.1-1.4 1-1.4-.5-.2-2.2 1.6-5 .7-4.2-1.4.3-.8 1.1-1.2 1.6-.9.6.4.5 1-.3 1.6-1.2.8-1.2.9 0 .6.8-.2 1.5-1.2 1.7-2.1.1-.9-.2-1.5-.6-1.2-.5.3-1.2 0-1.7-.7-1.3-2.1-1.2-3.5.3-3.5 1.1 0 1.1.3.1 1.6zm-6.2.1c-.3.5-.1 1 .5 1s.8.5.4 1.1c-.4.8-.9.7-1.5-.2-.7-1.2-.3-2.9.7-2.9.3 0 .2.4-.1 1zm4.1 4.6c-.9 2-1.3 2.1-2.5 1-.8-.9-1-1.9-.5-2.8.5-.7.9-1.6 1-2.1.1-.4.2-1 .3-1.4 0-.4.7.1 1.4 1.1 1.1 1.4 1.1 2.4.3 4.2zm-4.3-.6c1.5 2.2 3 3.4 4.1 3.2 1-.2 1.5.1 1.2.7-.6 1 2.5 3.3 4.1 3 2-.3 2.7.2 1.4 1-.9.6-2.3.4-3.8-.6-1.3-.8-2.3-1.2-2.3-.8 0 .5-.9-.2-2-1.5s-2-1.8-2-1.2c0 .6-.7.9-1.5.6-1.3-.5-1.3-.9-.3-2.2 1.1-1.3 1.1-1.4-.1-.7-1 .5-1.2.4-.7-.4.4-.6 0-1.4-.8-1.7-.9-.3-1.3-1.1-.9-1.7.3-.6.1-.7-.6-.3-.6.4-.8 1.2-.5 1.8.5.7.1.9-.9.5-1-.3-1.7-.4-1.7-.1 0 .2 1.1.8 2.3 1.3 1.3.5 2.4 1.6 2.4 2.5 0 1.8 0 1.8-2.2 1-1.3-.6-1.4-.9-.3-1.6.9-.6.5-.7-1.1-.3-1.7.5-2.2.4-1.6-.5.5-.9.4-1.1-.4-.6-.6.4-.9 1.1-.6 1.6.3.4-.1 1.1-.7 1.4-.7.3-.2.3 1.2 0 2.4-.5 2.5-.5.5 1.1-1.9 1.5-3.2 9.1-1.4 7.9.4-.2 1.1.5 1.4 1.6.5 1.7 1 1.9 2.1.9 1.7-1.4 1.8-.6.3 2.4-.9 2-.9 2.1.4.4 1.3-1.5 1.5-1.6 2.1-.2.3.8 0 1.5-.6 1.5s-.9.3-.6.6c1.3 1.2 4.9-1.7 4.3-3.5-.4-1.4.1-1.7 2.5-1.7 1.7 0 2.9.4 2.7 1-.2.6-1.1 1-1.9.8-1.8-.3-3.1 3.5-1.6 4.5.6.3.8.2.5-.3-.3-.6.3-1.5 1.4-2.2 1-.7 1.9-.8 1.9-.3 0 .6-.4 1.3-1 1.6-1.8 1.1-1 2.3 1.4 2.1 1.3 0 2.2-.4 2-.8-.2-.3.2-.9.8-1.2.7-.3.2-.3-1.2 0s-2 .2-1.4-.3c.6-.4 1-1.5.9-2.5-.2-1.3.3-1.5 2.4-1.2 1.9.3 2.2.2 1.1-.5-.8-.5-1.8-.7-2.2-.5-.4.3-.8.1-.8-.4 0-.6.7-1.3 1.6-1.6.8-.3 1.2-1 .9-1.6-.3-.5 0-1 .7-1 1 0 .9-.3-.2-1.1-1.3-.9-1.3-1 0-.6.8.2 1.5.8 1.5 1.3s.4 1.5.8 2.1c.6.9.3 1.1-.7.7-1.8-.7-2.2 1.1-.6 2.1.8.5.7 1.1-.1 2.1-.6.8-.8 1.4-.3 1.4.4 0 .3.5-.4 1.2s-1.2 2-1.2 3.1c0 1-.5 1.5-1 1.2-.6-.4-2.4-.8-4.1-1-1.7-.3-3.7-.9-4.5-1.6-.7-.6-1.7-.8-2.3-.5-1.5 1-6-1.5-5.4-3 .2-.7-.7-2-2.1-2.9-1.4-1-2.3-2.1-2-2.7.3-.5.1-1.4-.5-2.1-.6-.8-.6-1.8-.1-2.7.6-.8 1-2 1-2.5 0-.6-.4-.4-.9.4s-1.1.9-1.5.3c-.3-.6.2-1.3 1.2-1.6 1.1-.4 2.7-2.2 3.8-4.1 1.6-3.1 3.6-4.5 5.6-4.1.4 0 1.8 1.7 3.1 3.6zm-2.7 7.1c1.5 1.6 1.6 2.1.4 1.9-3.3-.5-4.5-.1-3.2 1.2.7.7 1.2 1.7 1.2 2.2 0 .6-1.1-.1-2.5-1.6-2.8-3-3.2-4.3-1.2-3.5.8.3 2 .1 2.8-.5 1.1-.8 1-.9-.4-.4-1.1.3-1.6.2-1.2-.4.9-1.5 2-1.2 4.1 1.1zm4.5-.8c.3.4 1.6 1 2.9 1.2 5.9 1.1 6.1 6.5.3 6.9-.7.1-1.3-.2-1.3-.7v-1.9c0-.6.7-.3 1.5.8 1.5 1.8 1.5 1.8.8 0-.4-1.3-.3-1.7.5-1.2.6.3 1.4.1 1.8-.5.5-.8.3-.9-.6-.4-.9.6-1.1.4-.5-.6.5-.8.5-1.1 0-.7-.4.4-2.1 0-3.7-.8-1.7-.9-2.7-1.1-2.4-.5.4.6.2 1.1-.4 1.1-.7 0-1 .6-.7 1.2.2.7 1 1.2 1.6 1 1.3-.2 1.4.8.2 2.7-.7 1.1-1 .9-1.6-.8-.3-1.1-1.1-2.1-1.7-2.1-.6 0-.6.6.2 1.5 1 1.2 1 1.8 0 3-.9 1-.9 1.5-.1 1.5.6 0 1.1.4 1.1 1 0 1.6-1.7 1.1-2.5-.8-1-2.4-1.5-8.9-.6-7.4.6 1 1 1 2-.2.8-1 .9-1.6.1-2.1-.5-.3-1-1.1-1-1.6 0-1.1 3.2-.8 4.1.4zm1.9 3.5c0 .5-.7.9-1.5.9s-1.2-.4-.9-.9c.3-.4.9-.8 1.5-.8.5 0 .9.4.9.8zm-9 4.4c0 .4-.5.8-1.1.8-.5 0-.8-.4-.5-.9.3-.5-.1-1.1-.9-1.5-.8-.3-1.5-1.1-1.5-1.7 0-.7.8-.5 2 .6 1.1 1 2 2.2 2 2.7zm169.4 58c-.5.8-.2.9 1 .5.9-.4 1.5-.3 1.1.2-.3.5.1 1.2.7 1.5.7.3.4.4-.7.1-1.6-.4-2.1 0-2.2 1.6-.2 1.6.1 1.8 1.2.9 1.5-1.3 3.9-.4 3 1.1-.4.5-.1.9.5.9.7 0 1 .6.7 1.2-.2.7.3 1.9 1.2 2.6 1.4 1 1.3 1.1-.4.5-1.8-.6-1.8-.5-.6 1 .7.9 1.8 1.4 2.5 1 .6-.3.5 0-.2.8-1.1 1.2-1.4 1.2-2.3-.1-.9-1.3-1-1.3-.6 0 .2.8 1.3 1.4 2.4 1.3 1.4-.2 2.9 1.3 5.4 5.2 1.8 2.9 3.8 5.1 4.3 4.8.5-.4.6-.2.3.4-.3.5.5 1.7 1.9 2.7 1.3 1.1 2.4 2.5 2.4 3.2 0 1.3 1.3 1.8 3.3 1.5.5-.1.6.3.2.8-.6 1 3.4 3.7 4.8 3.3.5-.1.6.2.2.8-1 1.6-2.4 1.2-5.1-1.7-1.4-1.5-2.2-2-1.9-1.2.4 1 0 1.6-1 1.6s-1.3-.6-1-1.8c.3-.9.1-2-.5-2.4-.6-.3-.7-1.1-.4-1.7.4-.6.2-.8-.3-.5-.6.4-1.4 0-1.7-.9-.3-.8-1-1.3-1.4-1-.5.3-1.7-.1-2.8-.8-1-.8-2.5-1.2-3.4-.9-.8.3-.4-.4.9-1.5 2-1.6 2.1-2 .7-2.5-1.2-.5-1.5-.3-1.1.6.4.6 0 .4-.7-.5-1.3-1.5-1.5-1.5-2.6 0-1.1 1.6-1.1 1.6-.6-.1.7-1.9-1.1-2.4-2.2-.6-.4.8-.9.7-1.5-.2-.7-1.2-.9-1.1-1 .1-.1.8-.1 1.9 0 2.3.1.5-.4.6-1.1.2-.7-.4-.4.1.6.9 1.1.9 1.5 1.6 1 1.6-.6 0-1.6-.6-2.3-1.3-1-1-1.2-.9-.9.2.2.7-.3 1.5-1 1.6-.7.2-.8.1-.2-.2.5-.2.7-.9.4-1.4-.3-.6-1.2-.2-2.1.8-.8 1-1.2 1.3-.9.7.3-.7-.2-1.8-1.1-2.5-1.4-1.2-1.6-1.2-.8 0 .6 1.1.5 1.2-.6.5-1.9-1.2-4-1.4-3.4-.4.9 1.5-3.7.1-5.9-1.7-2.1-1.8-2.1-1.8-.3.3.9 1.1 1.4 2.4 1 2.8-.4.4.1.4 1.2 0 1.4-.5 1 .1-1 1.8-2.9 2.6-3 2.6-3.9.7-.8-1.8-1-1.8-2.3-.1-1 1.1-1.2 1.2-.8.2.4-.9.1-.8-.8.3-1.3 1.6-1.5 1.6-2.1.2-.3-.9-.2-1.3.3-1 .5.3 1.3 0 1.7-.6.5-.8.3-.9-.5-.4-1 .6-1.1.3-.1-1.5s.9-2.1-.1-1.5c-.7.5-1 .4-.6-.1.3-.6.1-1.6-.5-2.4-.8-1.2-.9-1.1-.4.5.6 1.9.5 1.9-.8.2-1.2-1.5-1.4-1.6-2-.2-.4 1-1.4 1.4-3.1 1.1-1.5-.3-2.3-.1-1.9.5.3.5 0 .8-.7.7-.6-.2-1.4.4-1.6 1.2-.4 1.2-.3 1.2.5.1.6-.8 1.2-.9 1.6-.3.3.5-.1 1.5-.9 2.2-.8.7-1.3 1.6-1 2 .3.5.1 1.2-.5 1.5-.8.5-.7 1.1.1 2.1 1.3 1.5.9 1.7-1.5.8-.9-.3-1.3-1.1-.9-1.8.9-1.3 1.3-3.2 1.6-6.6.1-1.4.6-3.1 1-3.8.5-.7.3-1.2-.5-1.2s-.9-.3-.3-.8c1.2-.8 1.3-2.2.2-3.9-.4-.6-.3-1.4.3-1.8.6-.4.7-1.1.4-1.7-.4-.6-.2-.8.4-.4.6.3 1.3.2 1.7-.4.3-.5-.1-1-.9-1-1.1 0-1.5-.7-1.2-2.3.2-1.2-.2-2.9-.8-3.7-.9-1.3-.9-1.3.5-.3.9.7 1.9 1 2.3.6.4-.4-.4-1.3-1.6-1.9l-2.3-1.3 2.3.2c2.2.1 2.4.5 2.5 4.5 0 1.2.5 2.1 1.1 1.9.6-.2 1-1.1.8-2.1-.3-1.8 1.3-2.2 2.3-.6.3.5 1.3 1 2.1 1s1.4-.5 1.4-1c0-.6-.3-.9-.7-.8-.9.3-1.3-.5-1.3-2.4 0-.6.7-.3 1.6.8 1.5 1.9 1.6 1.9.9-.1-.3-1.1-.3-1.6 0-1.3.4.4 1.7.3 3-.2 1.7-.6 2.7-.5 3.5.6 1.7 1.9 3.1 1.8 2.4-.4-.5-1.4-.4-1.5.5-.2.8 1.1 1.3 1.2 1.9.4.5-.9 1-.9 1.8 0 1.1 1.2 1.1 4-.1 6.9-.6 1.3-.4 1.6.9 1.1.9-.3 1.3-1 1-1.5-.3-.5.2-1.2 1.1-1.5 1.2-.5 1.3-1 .4-2-.6-.7-.8-1.8-.4-2.4.3-.5-.2-1-1.2-1.1-1.1 0-1.3-.3-.5-.6.7-.3 1.9 0 2.6.7.9.7 1.6.7 2 .1.3-.5 0-1.2-.6-1.4-.9-.4-1-.6-.1-.6.6-.1 1.5.3 1.8.9.3.5 1.4 1 2.3.9 1.2 0 1.3-.2.3-.6-1.1-.5-1.1-.7 0-1.4 1.9-1.2 2.2-1.1 1.3.3zm-28 3c-.3.4-.9.8-1.5.8-.5 0-.9-.4-.9-.8 0-.5.7-.9 1.5-.9s1.2.4.9.9zm34.5 19.5c-.3 2 .2 2.4 1.5 1.4.9-.8 1.6-.8 2-.2.4.5.2 1.2-.3 1.6-.6.3-.8 1.3-.5 2.3.4 1.2-.1 1-1.5-.7-1.2-1.3-2.2-1.8-2.2-1.2-.1.6-.2 1.5-.3 2.1 0 .5-.4.9-.7.7-.3-.1-1.3.4-2.2 1.2-1.4 1.1-1.7 1.1-1.7 0s-.2-1.1-1 .1c-.9 1.3-1.1 1.3-2 0-.5-.8-1-1.2-1-.8 0 .4-1.2.3-2.6-.2-1.8-.7-2.3-.7-1.8.2.4.7.3.8-.5.4-.6-.4-.9-1.1-.7-1.5.3-.4-.1-.8-.9-.8-1.1 0-1.2.4-.4 1.3.7.8.7 1.4-.1 1.9-.5.3-1.1.1-1.1-.4-.4-2.6-.4-3.1.2-2.9.3.2 1.3-.3 2.2-1 1-.9 1.7-1 2.2-.2.3.6 1.1.8 1.6.4.5-.3.8 0 .7.6-.4 1.5 3.9 2.3 4.7 1 .4-.6 1.1-.8 1.6-.5 1.8 1.2 2.9-.5 1.8-2.7-.7-1.3-.7-1.8-.1-1.4.6.3 1.3.2 1.7-.4.7-1.2 1.6-1.3 1.4-.3zm-31.8 4.2c-1 .7-1.1 1.3-.1 3 1.1 2.1 1.2 2.2 3.7.6 1.4-1 2.3-1.3 1.9-.7-1.2 2 2.2 2 4 .1 1.7-1.9 1.9-1.9 3.1-.3.7.9 1 2.1.7 2.5-.3.5 0 .9.6.9s.8.5.4 1.1c-.4.8-.9.7-1.5-.2-.5-.8-.9-1-.9-.5 0 .6-.7.1-1.6-1-1.3-1.5-1.5-1.6-1-.2.3 1.2.1 1.5-1 1.1-.7-.3-1.4 0-1.4.7 0 .6-.5.8-1 .5-.6-.4-.8-1-.5-1.5.3-.5 0-1.2-.6-1.6-.8-.4-.9-.3-.5.5.5.8 0 1-1.8.7-1.5-.3-2.4-.1-2.1.4.3.4-.3.7-1.2.5-1-.2-2.1-.4-2.5-.4-.5-.1-.8-.6-.8-1.1 0-.6.5-.9 1.1-.8.6.2 1.4-.4 1.6-1.2.4-1.3.3-1.3-.6 0-.9 1.2-1 .7-.7-2 .3-1.9.3-2.9 0-2.2-.3.6-1 1-1.4.7-.5-.3-1.2 0-1.6.6-.4.7-.3.9.3.6.9-.6 1 .9.4 4.6 0 .5-.6.5-1.1.2-.8-.5-.8-1.1 0-2 .8-1 .8-1.5-.1-2.1-.8-.5-.9-.3-.4.6.5.8.4 1.1-.1.7-.5-.3-1 1-1 2.8 0 2.7.3 3.2 1.3 2.3 1.6-1.3 1.7.4.1 2-.9.9-.9 1.5 0 2.4 1.9 1.9 1.4 2.9-.7 1.6-1.1-.7-1.7-1.6-1.4-2.2.3-.5.1-.6-.5-.2-.7.4-1.2.2-1.2-.3 0-.6.4-1.1.9-1.1 1 0 .9-2.6-.2-3.6-.4-.4-.2-1.3.4-2.1.6-.7.8-1.3.4-1.3-.5 0-.1-.8.8-1.8.8-.9 1.6-2.2 1.7-2.7.1-.6.7-.9 1.5-.7.7.1 1.7-.3 2-.9.5-.8 1.2-.6 2.4.5 1.3 1.4 1.4 1.8.2 2.5zm36 1.5c1.1-1.3 1.5-1.4 2.3-.2.6.7 1.8 1.3 2.6 1.3s2.3 1 3.3 2.2c1.9 2.3 1.6 4.3-.6 4.3-.7 0-.6-.4.3-1.1 1.3-.9 1.3-1-.2-.6-.9.4-1.9-.1-2.2-1-.4-1.1-.2-1.4.9-.9 2.2.8 1.8-.2-.6-1.5-1.2-.6-1.9-.7-1.6-.2.4.5 0 1-.8 1s-1.2-.5-.9-1.1c.3-.6-.1-.3-.9.6-1.8 2.3-3.1 2.3-2.3.2.6-1.5.4-1.5-1.9 0-1.6 1-2.5 1.2-2.5.5 0-.8-.4-.8-1.5.1-.8.7-1.5.9-1.5.4s-.7-.1-1.4.9c-1.6 2.1-2.9.9-1.5-1.3.5-.8.9-1.1.9-.6 0 .5.7.3 1.5-.4s1.5-.9 1.5-.5.7.2 1.5-.5 1.2-1.7.8-2.4c-.3-.6.3-.3 1.4.7 1.8 1.6 2.1 1.6 3.4.1zm-12.9 3.4c.7.7.9 1.2.4 1.2-.4 0 0 1 .8 2.2 2 2.8 2.1 4.4.1 2.8-.8-.7-1.2-1.7-.8-2.3.4-.6.1-.7-.7-.2-.8.5-1.1.4-.7-.3.5-.6-.1-.8-1.5-.4-1.4.3-1.9.2-1.4-.7.4-.6 1.1-.9 1.6-.6.5.3 1.2 0 1.6-.6.4-.7.3-.9-.4-.5-.6.3-1.4.2-1.7-.4-.5-.8-1.1-.8-1.9-.1-.7.6-1.6.8-1.9.5-.4-.4-.4.3-.2 1.5.3 1.4 0 1.9-.7 1.5-.7-.5-.9-.2-.5.9.4 1.2.1 1.4-1.6 1.1-1.2-.3-2.8-.6-3.4-.6-.7-.1-1.3-.5-1.3-1s-.5-.6-1.1-.2c-.8.4-.7.9.2 1.5 2.3 1.5 0 1-3.2-.6-2.7-1.5-3.1-1.4-5.1.5-1.2 1.1-2.6 2-3 2-.5 0-.6.5-.3 1 .4.6 1.4.8 2.4.5 1.2-.3 1.7.1 1.8 1.6.2 1.6-.1 1.8-1.1 1-1.4-1.1-2.6-.5-2.6 1.3 0 .6.5.4 1-.4s1-1 1-.4-.7 1.7-1.5 2.4c-.9.7-1.4 1.9-1.1 2.6.3.7.1 1.6-.4 1.9-.8.5-11-8.6-11-9.8 0-.3.5-1.8 1.2-3.2 1.2-2.7 3.5-2.9 3-.2-.1.8.2 1.8.8 2.2.5.3 1 1.4 1 2.3-.1 1.5-.2 1.5-1.1-.1-.6-.9-1.5-1.4-2.1-1.1-.8.5-.9.1-.4-1.2.6-1.6.5-1.7-.6-.6s-.9 1.7 1.1 3.3c1.2 1 2.7 1.7 3.1 1.4.5-.3 1.1-.1 1.5.5.3.5.1 1-.6 1-.8 0-.8.4.1 1.5 1.7 2 3.5 1.4 3.6-1.2.1-1.2-.5-2-1.4-1.9-.8 0-1.7-.6-2-1.4-.3-1.2-.2-1.2.8-.3.7.6 1.9.9 2.7.6 1.1-.5 1.1-.9-.4-2.5-1.7-1.9-1.7-2.1-.1-3.2 1.4-1 1.5-1.5.5-2.6-1-1.2-.9-1.2.3-.3 1.6 1.2 4.4 1.2 5.6 0 .4-.4 1.8 0 3 .8 1.3.8 2.5 1.1 2.9.6.5-1 3.7-.7 5.4.3 1 .7 3.3-1.8 2.5-2.7-.3-.3-.3-1 0-1.5.7-1.2 6.4-.8 7.8.6zm-4.1 1.6c-.9 1.1-.4 1.8 2.4 3.5 4.3 2.5 5.1 5 1.1 3.5-.9-.3-1.4-1-1.1-1.4.3-.5 0-1.2-.6-1.6-.7-.4-.9-.3-.6.3.8 1.3-2 2.6-3.5 1.6-.7-.3-.8-.1-.4.5.4.7.2 1.2-.3 1.2-.6 0-1.1-.6-1.1-1.3-.1-.6-.6-.2-1.3 1.1-.7 1.2-1.6 2-2 1.6-.4-.4-.2-1.3.4-2 .8-.9.4-1.2-1.8-.9-1.5.1-3.6-.2-4.7-.7-1-.6-1.6-.6-1.3-.1.3.5-1 .8-2.9.8-3.4 0-3.4 0-1.2-1.7 2-1.5 2.5-1.5 5.1-.2 2.2 1.2 3.2 1.3 4.3.3.8-.6 1.4-.7 1.4-.2 0 1.7 5.1.8 6.1-1 .6-.9.7-1.7.3-1.7-.3 0-.1-.7.6-1.5s1.5-1.5 1.7-1.5c.3 0 0 .6-.6 1.4zm15.6 1.6c-.1 1.1-.7 2.2-1.3 2.4-.8.3-1.1-.2-.9-1.3.2-1-.3-1.8-1.1-1.8-1 0-1.1.4-.3 1.4.8.9.8 1.3.1 1.3-.6 0-1.4-.5-1.7-1-.8-1.3-2.5-1.3-2.5.1 0 .5.5.7 1.1.3.8-.5.8-.1 0 1.3-.7 1.4-.7 2.3.1 3.1.9.9.9 1.5.1 2.3-.6.6-.9 1.9-.7 2.8.3.9-.2.4-1.1-1.2-1.2-2.1-1.3-3.2-.5-4.7.6-1.1.8-2.4.5-2.9-1.1-1.8.7-3.9 3.1-3.6 1.3.1 2.7-.2 3-.7.9-1.4 2.3.1 2.1 2.2zm7.3 1c0 .4-.7.7-1.5.7-1 0-1.4-.7-1-2.1.3-1.2.2-1.5-.1-.8-.3.6-1 1-1.5.7-.5-.4-.6 0-.3.8.7 2-4.6 6.1-6 4.7-.5-.5-1.5-1-2-1-.6 0-.3.5.7 1.1.9.6 1.5 1.4 1.2 1.9-.3.5.9.7 2.6.5 2.7-.4 2.9-.2 1.8 1.1-.7.8-1.9 1.2-2.7.9-1.2-.4-1.3-.3-.2 1 1.1 1.4 1.4 1.4 2.4-.1 1.1-1.4 1.3-1.4 2.7.2 1.2 1.6 1.2 1.7-.3 1.1-1.2-.4-1.5-.2-1.1.9.6 1.6-1.4 1.6-3.2-.1-2.3-2.2-5.2-8.3-4.5-9.5.5-.8 1-.9 1.4-.2.7 1.2 4.5 1.2 4.7 0 .1-.4.2-1.3.3-1.9 0-.6 1-1.7 2.1-2.5 1.8-1.3 2.1-1.3 3.2.3.7.9 1.3 2 1.3 2.3zm-3.1 2.2c-.3 2.6.1 3.9 1.1 3.3.6-.3 1 0 1 .7 0 .8-.9 1.4-2 1.5-1.1.1-1.9-.1-1.9-.5.4-2.5-.2-3.5-1.3-2.4-.7.7-1.6 1.2-2.1 1.2-.7 0 4.3-4.9 5.1-5 .2 0 .2.6.1 1.2zm5.8 3.4c1-.4 1.3-.2 1 .8-.7 1.7 1.6 2.8 4.1 1.9 1.5-.6 1.5-.5.3 1-.7.9-1.6 1.7-2 1.7-1.6 0-8.7-7.7-8.3-8.9.3-1 .9-.5 1.9 1.3 1 1.8 2 2.6 3 2.2zm1.3-3.8c0 .4-.9.8-2 .9-1.1.1-2-.2-2-.8 0-.5.9-.9 2-.9s2 .4 2 .8zm5.6.9c1.1.7 3.2 1 4.5.7 2.3-.5 2.3-.5.5 1-1.3 1.1-1.5 1.6-.6 1.6.7 0 1.1.3.8.6-.7.6-4.9-1.6-6-3-.4-.6-1 .2-1.3 1.7-.8 3.2-2.1 3.5-2.8.6-1.2-4.4.6-5.5 4.9-3.2zM393 498c0 .5-.5 1-1.1 1-.5 0-.7-.5-.4-1 .3-.6.8-1 1.1-1 .2 0 .4.4.4 1zm-34.5 3.6c-.1 1.8.2 3.1.7 2.8.4-.3.7-.8.5-1.2-.5-1 2.6-3.7 4.3-3.8.8-.1 2.3-.5 3.3-.9 1.2-.5 1.7-.2 1.7.9 0 .9-.5 1.6-1.1 1.6-.5 0-.7-.5-.3-1.2.4-.7.3-.8-.5-.4-.6.4-.9 1.2-.5 1.7.3.6-.4.7-1.8.4-1.8-.5-2.7 0-4 2.3-1 1.6-1.6 3.1-1.5 3.3.1.2-.5-.3-1.4-1.1-.9-.8-1.5-1.8-1.2-2.3.2-.4 0-.7-.5-.7-1.4 0-2.4 2.9-1.5 4.3.4.7 0 .6-1-.1-1.3-1.1-1.4-1.8-.5-3.7.6-1.3 1.6-2.1 2.3-1.9.7.3 1.6 0 2.1-.7.5-.8.3-1-.6-.4-.7.4-1.6.2-2.1-.6-.6-1-.9-1-.9-.2 0 .7-.7 1-1.7.7-1.5-.5-1.6-.4-.3.5s1.3 1.2.1 2.3c-.8.7-1.1.8-.8.2.4-.7 0-1.7-.9-2.4-2-1.7-.5-2.6 4.4-2.6 3.9-.1 3.9 0 3.7 3.2zM374 504c0 1.3-5.6 5-6.4 4.2-.4-.4-1.5-.7-2.4-.7-1.2 0-1.7-.9-1.7-2.8-.1-2.8.9-3.5 2-1.7.4.6.1 1.9-.7 2.8-1.2 1.5-1.1 1.6.5.3 1.4-1.1 1.7-1.1 1.8 0 0 1 .2 1 .5.2.3-.7 1.1-1 1.8-.7.7.3 1.8-.1 2.5-.9.9-1.1.7-1.7-.6-2.8-1.6-1.2-1.7-1.2-.6.2 1.2 1.5.8 2.9-.7 2.9-.6 0-.7-2-.1-5.5.2-1.1 4.1 3.2 4.1 4.5zm-5.5-1.1c.3.5.1 1.2-.5 1.6-.5.3-1-.1-1-.9 0-1.8.6-2.1 1.5-.7zm-30.8 4c-.1 1.3-.9 1.8-2.6 1.8h-2.5l2.3-1.8c1.9-1.5 2-1.9.7-1.9-1 0-1.4-.5-1.1-1 1-1.6 3.4.7 3.2 2.9zm5.3-2.9c0 .5-.4 1-1 1-.5 0-1-.5-1-1 0-.6.5-1 1-1 .6 0 1 .4 1 1z"/><path d="M485.1 354.4c-.9 1.1-.9 1.6.1 2.2.7.4 1 .4.6-.1-.4-.4-.3-1.4.3-2.2.6-.7.9-1.3.6-1.3-.2 0-1 .6-1.6 1.4zM483.1 362.4c-1.3 1.5-.7 3.6 1 3.6.5 0 .9-.7.9-1.6 0-.8.5-1.2 1-.9.6.4.8 1 .5 1.5-.3.5-.1 1.1.5 1.5.6.4.8 1 .5 1.5-.7 1.1 1.5.7 3.9-.6 1.6-1 1.6-1.2.2-1.7-.9-.4-1.6-1.1-1.6-1.7 0-.6.5-.8 1.2-.4.7.5.8.3.3-.6-.6-1-1-1-2 .3-1 1.5-1.3 1.4-3.2-.4-1.7-1.8-2.1-1.8-3.2-.5zm1.2 1.1c-.3.9-.8 1.4-1 1.1-.3-.3-.2-.9.2-1.5.9-1.6 1.5-1.3.8.4zm6.2 2.7c.4.3.2.9-.3 1.2-.5.3-1.5-.1-2.1-.8-1-1.1-.9-1.4.3-1.2.9.1 1.8.5 2.1.8zM223.4 395.4c1.4 1.2 1.6 1.6.5 1.6-1.2 0-1.2.2 0 .9 2 1.3 2.3 4.1.5 4.8-.8.3-1.4 1-1.4 1.5 0 .6.6.5 1.5-.2.8-.7 1.5-.9 1.5-.5s.7.2 1.5-.5c1.4-1.2 1.3-1.5-.5-3.5-1.1-1.2-1.8-2.4-1.4-2.7.3-.4-.5-1.1-1.8-1.8-2.2-1.1-2.2-1-.4.4zm4.1 5.5c.3.5.2 1.2-.3 1.5-.5.3-.9-.1-.9-.9 0-1.7.3-1.9 1.2-.6zM212 385c-.8.5-1.2 1.2-.9 1.5.4.3 1.2-.1 1.9-1 1.4-1.7 1.1-1.9-1-.5zM217.6 403.9c-.3.5.1 1.1.9 1.4.9.4 1.2.1.8-.9-.6-1.6-1-1.7-1.7-.5zM352.6 460.9c-1.9.7-1.9.8 0 1.6 1 .4 2.6.9 3.4.9.8.1 1.4.9 1.2 1.8-.2 1.2.3 1.6 1.8 1.3 1.1-.2 1.8 0 1.5.6-.4.5-.8 2-1.1 3.3-.3 1.9 0 2.4 1.3 2.2 1-.2 2.1.2 2.5.8.5.8 1.1.7 2-.3 1.1-1.1 1.1-1.3-.1-.6-1 .6-1.2.4-.6-.5s.4-1.1-.5-.5c-.8.5-1.1.4-.6-.3.4-.6 1.3-.9 2.2-.5.9.3 1.4 0 1.2-.8-.2-.9.4-1.3 1.6-1.1 1 .2 1.5-.1 1.2-.6-.7-1.1-4.6-2.3-4.3-1.3.1.3-.7 1.6-1.9 2.9l-2 2.2-.1-4.6c-.1-3.4.2-4.3.9-3.3.8 1.1.9 1 .4-.4-.3-1-.6-2.1-.6-2.3 0-.3-.9 0-2.1.6-1.6.9-2.4.8-3.7-.3-1-.9-2.5-1.2-3.6-.8zM368.3 461.7c-.5 1.2-.7 1.2-1.5.1-.8-1.1-.9-1-.6.1.5 1.9 3 2.2 5.1.6 1.6-1.2 1.6-1.3-.3-1.8-1.4-.3-2.3 0-2.7 1z"/><path d="M349 464.9c-1.8 2.1-2.3 4.1-1.1 4.1.5 0 1.3-.9 1.6-2 .3-1.1 1.3-2 2.1-2s1.4-.5 1.4-1c0-1.6-2.3-1-4 .9zM370.6 463.8c-.4.4-1.2.8-1.7.8-.5.1-1.2.2-1.6.3-.4 0 .2.7 1.2 1.5 1.8 1.3 3 4.6 1.6 4.6-.4 0-1.2-.5-1.9-1.2-.9-.9-1.1-.7-.7.9.5 2.9-5 5.3-6.6 3-.3-.5-.9-.2-1.2.6-.3.9.2 2.1 1.1 2.9 1.3 1.1 1.4 1.1.7-.1-.6-1-.4-1.2.5-.6s1.1.4.5-.5c-.5-.9-.4-1.1.4-.6.6.4.9 1.1.6 1.6-.3.4.2 1 1 1.4.8.3 1.7.1 2-.4.4-.6.1-1-.4-1-.6 0-1.1-.5-1.1-1.1 0-.5.4-.8.9-.4.6.3 1.5-.4 2.1-1.5.6-1.1 1.5-1.8 2.1-1.5.8.6 1.3-.8 1-2.8 0-.4.4-.7 1-.7s.8-1 .5-2.3c-.3-1.2-.3-1.6 0-.9.5 1 .9 1 2.2 0 1.4-1 1.5-1 .5.2-.7.8-1.3 1.9-1.3 2.4 0 .6.4.5.9-.3.6-.9 1.1-1 1.5-.2.4.6.1 1.1-.6 1.1-.9 0-.9.3.2 1 .8.5 1 1 .5 1-.6 0-1.1.9-1.2 2-.2 1.8.8 2.5 3 2.1.4 0 .7.3.7.9 0 .5-1.4.7-3 .5-2-.2-2.8 0-2.4.7.5.7.2.8-.7.3-1.1-.6-1.2-.5-.1.6.6.7 1.2 1.7 1.2 2.3 0 .5-.7.1-1.6-1-.8-1-1.2-1.3-.8-.5.5 1 .3 1.2-.7.5-1.9-1.2-4-1.4-3.4-.4.3.5-.6.7-2 .4-1.5-.3-2.5 0-2.5.8 0 .6-.6.3-1.4-.7-1.4-1.9-6.6-2.9-6.6-1.3 0 .5-.4.6-1 .3-.5-.3-.7 0-.4.8.3.8 0 1.8-.7 2.3-.8.4-1 .3-.5-.5.9-1.4-1.2-4.3-2.4-3.6-.5.3-1.1.1-1.5-.5-.4-.6-1.1-.8-1.6-.5-.5.4-.9 0-.9-.7 0-1-.3-.9-.9.2-.6.8-.7 1.8-.4 2.4.4.5.1.6-.7.1-.9-.6-1.1-.4-.5.5.6.9.4 1.1-.4.5-.9-.5-1-1-.2-1.8.6-.6 1.1-1.5 1.1-2.1 0-.6-.5-.5-1.1.1-.6.6-1.7 1-2.3.9-.6-.2-.8-.1-.3.1.4.3.7.9.7 1.4 0 .6-.6.7-1.2.3-.7-.4-1-.4-.6.1.4.4.2 1.5-.5 2.4-1 1.4-1 1.4.3.5.8-.6 2.5-1 3.7-.8 1.1.2 2.3-.3 2.6-1 .3-.8 1.4-1.3 2.4-1.1 1 .2 2.2.4 2.6.4.5.1.6.5.2 1-.3.5-.1 1.2.4 1.6.6.3.7 1.3.4 2.2-.5 1.2-.2 1.5 1 1 1-.4 2 0 2.5 1 1.1 1.8 3.1 1 2.8-1.1-.1-.8-.8-2.1-1.5-3-2.2-2.6-.5-3 2.5-.7 1.4 1.1 3.1 1.8 3.8 1.4 1.6-1.1 5.6-1.1 6.2-.1.9 1.4 2.6.9 2.1-.6-.4-1-.1-1.3.8-.9.8.3 1.2 1 .9 1.7-.3.6.4 0 1.6-1.4 2.4-2.7 7-3.5 10.4-1.8 1.4.8 1.7.7 1.1-.4-1.6-2.8-3.8-4.7-4.7-4.2-1.8 1.1-3.7-1.7-3.3-5.2.1-1.9-.1-3.7-.6-4-.5-.3-.7-1-.4-1.5.4-.5.2-.9-.4-.9-.5 0-1.3.5-1.6 1-.5.8-1.1.8-1.9.1-.7-.6-1.6-.7-2-.3zm1 2.2c0 1.2-.4 1.6-.9 1.1s-.6-1.4-.3-2c1-1.5 1.2-1.4 1.2.9zm11.3 10.4c1.1 1.4.6 1.5-2.7.7-.4-.1.8-2.1 1.2-2.1.2 0 .9.6 1.5 1.4zm-21.7 4c.9 1.6.7 1.6-1 .7-2.7-1.5-3.6-3-1.6-2.7.9.1 2.1 1 2.6 2zm8.5.1c0 .8-.4 1.2-.9.9-.5-.3-.6-1-.3-1.5.9-1.3 1.2-1.1 1.2.6zm-13.1 4.1c.2 1.4.1 1.4-1.5 0-1-.9-2.2-1.3-2.6-.9-.5.5-.3 0 .4-1 1.5-1.9 3.3-1 3.7 1.9z"/><path d="M344.6 464.8c.2.3-.1 1.1-.7 1.9-.9 1-.7 1.9.5 3.8 1.6 2.4 3.4 3.7 2 1.3-.5-.7-.3-.8.6-.3.9.5 1.1.4.6-.3-.4-.7-.9-2.2-1.1-3.4-.3-1.2-.8-2.5-1.3-2.9-.5-.3-.7-.4-.6-.1zm1.1 4.4c.2 1.7 0 1.9-.7.8-.5-.8-.6-1.8-.4-2.2.8-1.2 1-1 1.1 1.4z"/><path d="M352.9 465.5c-2.3 1.3-4 3.5-4.3 5.7-.1.4-.6 1.2-1.2 1.8-.9.9-1.9.3-3.9-2.4-1.5-2-3.2-3.6-3.9-3.6-.6 0-.3.5.7 1.1 1.8 1 1.8 1.2-.3 3.4-2.2 2.3-2.2 2.3-.2 3.4 1.3.7 2.3.7 2.7.2.7-1.2 4.2-.6 6.1 1 .8.6 1.4.8 1.4.4s.6-.3 1.3.3c1.8 1.5 3.3.1 3.3-3.1 0-3 0-3.1-2.6-1.7-1.3.7-1.9.6-2.3-.4-.4-1 .1-1.2 1.6-.9 1.8.4 1.9.3.7-.6-1.3-1-1.3-1.1 0-1.1s1.3-.1 0-1.1c-1.2-.8-1-.9.9-.4 1.5.5 2.1.3 1.7-.3-.4-.6.2-1.5 1.1-2.1 2.7-1.6.2-1.2-2.8.4zm-8.8 7.2c.7 1 .9 1.5.5 1.1-.5-.4-1.6-.2-2.4.5-1.3 1-1.4.9-.7-.2.6-1.1.4-1.3-1.1-.8-1.8.7-1.8.7 0-.8 2.4-1.8 2.1-1.9 3.7.2zm9.1 1.7c1.1 1.6-.2 2.8-1.8 1.5-.8-.6-1.4-.8-1.4-.5 0 .4-.5.4-1 .1-.6-.4-.8-1-.6-1.4.7-1.1 4-1 4.8.3z"/><path d="M355.4 466.8c.4.7 0 1.5-.9 1.9-1.5.5-1.5.7-.2 1.5.9.4 1.4 1.7 1.2 2.8-.2 1.1.1 2 .6 2 .6 0 .8.4.5.8-.3.5 0 .9.7.9.8 0 1.3-1.7 1.3-4.9 0-4.3-.1-4.7-1.1-2.7-.7 1.3-1.5 1.7-1.9 1.1-.3-.6 0-1.2.6-1.5 1-.3 1-.8-.1-1.8-.9-.9-1.1-1-.7-.1zM372.2 471.6c-.7 1.4-1.6 2.3-2.1 2-.5-.3-1.2.2-1.6 1.2-.3.9-.7 1.9-.8 2.1-.5 1.1 3.4.7 4.4-.5.6-.8 1.4-1.2 1.8-1 .8.5.8-5 0-5.9-.3-.3-1.1.6-1.7 2.1zm1.8.7c0 .2-.9 1.4-2 2.7-1.1 1.3-2 1.9-2 1.5 0-.5.7-1.7 1.7-2.7 1.5-1.7 2.3-2.2 2.3-1.5zM386.5 482.9c-.3.6.5 1.5 1.7 2.1 2.1 1 2.1 1 .6-.3-1-.8-1.5-1.7-1.1-2 .3-.4.4-.7 0-.7-.3 0-.8.4-1.2.9zM358.5 487.9c-.6 1.1 1.3 2.6 2.2 1.7.4-.3.1-.6-.6-.6s-.9-.5-.6-1c.3-.6.4-1 .1-1-.3 0-.7.4-1.1.9zM344 495c-.8.5-1.2 1.2-.9 1.5.4.3 1.2-.1 1.9-1 1.4-1.7 1.1-1.9-1-.5zM327.6 120.2c.3.5 1 .6 1.5.3 1.3-.9 1.1-1.2-.6-1.2-.8 0-1.2.4-.9.9zM349.4 130.4c.1.8.5 1.8.8 2.2.4.3.5-.1.4-1-.1-.8-.5-1.8-.8-2.2-.4-.3-.5.1-.4 1zM353.9 129.2c-.5 1.8-.6 3.8-.1 3.4.7-.8 1.2-3.6.6-3.6-.2 0-.4.1-.5.2zM333 132.1c0 .5.5.7 1 .4.6-.3 1-.8 1-1.1 0-.2-.4-.4-1-.4-.5 0-1 .5-1 1.1zM402 132c-.9.6-1 1-.3 1 .6 0 1.5-.5 1.8-1 .8-1.2.4-1.2-1.5 0zM287.9 132.2c-.5 1.8-.6 3.8-.1 3.4.7-.8 1.2-3.6.6-3.6-.2 0-.4.1-.5.2zM301.6 133.8c-.3.5.1.9.9.9s1.2-.4.9-.9c-.3-.4-.7-.8-.9-.8-.2 0-.6.4-.9.8zM325.5 134c-.3.5-.1 1 .4 1 .6 0 1.1-.5 1.1-1 0-.6-.2-1-.4-1-.3 0-.8.4-1.1 1zM337 134.1c0 .5.5.7 1 .4.6-.3 1-.8 1-1.1 0-.2-.4-.4-1-.4-.5 0-1 .5-1 1.1zM341.5 134c-.3.5-.1 1 .4 1 .6 0 1.1-.5 1.1-1 0-.6-.2-1-.4-1-.3 0-.8.4-1.1 1zM361 134c0 .5.5 1 1.1 1 .5 0 .7-.5.4-1-.3-.6-.8-1-1.1-1-.2 0-.4.4-.4 1zM365.5 134c-.3.5-.1 1 .4 1 .6 0 1.1-.5 1.1-1 0-.6-.2-1-.4-1-.3 0-.8.4-1.1 1zM368.6 133.8c-.3.5.1.9.9.9s1.2-.4.9-.9c-.3-.4-.7-.8-.9-.8-.2 0-.6.4-.9.8zM373.6 133.8c-.3.5.1.9.9.9s1.2-.4.9-.9c-.3-.4-.7-.8-.9-.8-.2 0-.6.4-.9.8zM385.3 135.1c-.2 2.3.3 2.5 1 .4.4-.8.3-1.6-.1-1.9-.4-.3-.9.4-.9 1.5zM409.5 136.9c-.3.5-.2 1.2.3 1.5.5.3.9-.1.9-.9 0-1.7-.3-1.9-1.2-.6zM305.5 138c.3.5.8 1 1.1 1 .2 0 .4-.5.4-1 0-.6-.5-1-1.1-1-.5 0-.7.4-.4 1zM313.6 137.8c-.3.5.1.9.9.9s1.2-.4.9-.9c-.3-.4-.7-.8-.9-.8-.2 0-.6.4-.9.8zM317 138.1c0 .5.5.7 1 .4.6-.3 1-.8 1-1.1 0-.2-.4-.4-1-.4-.5 0-1 .5-1 1.1zM337 138.1c0 .5.5.7 1 .4.6-.3 1-.8 1-1.1 0-.2-.4-.4-1-.4-.5 0-1 .5-1 1.1zM401.5 137.9c-.3.5-.2 1.2.3 1.5.5.3.9-.1.9-.9 0-1.7-.3-1.9-1.2-.6zM279.5 138.9c-.3.5-.2 1.2.3 1.5.5.3.9-.1.9-.9 0-1.7-.3-1.9-1.2-.6zM326.9 139.7c-1.3 1.6-1.2 1.7.4.4 1.6-1.3 2.1-2.1 1.3-2.1-.2 0-1 .8-1.7 1.7zM239 139.8c0 .5.7.9 1.5.9s1.2-.4.9-.9c-.3-.4-.9-.8-1.5-.8-.5 0-.9.4-.9.8zM425.4 139.8c.4.3 1.4.7 2.2.8.9.1 1.3 0 1-.4-.4-.3-1.4-.7-2.2-.8-.9-.1-1.3 0-1 .4zM285.4 142.4c.1.8.5 1.8.8 2.2.4.3.5-.1.4-1-.1-.8-.5-1.8-.8-2.2-.4-.3-.5.1-.4 1zM293 142c0 .5.5 1 1.1 1 .5 0 .7-.5.4-1-.3-.6-.8-1-1.1-1-.2 0-.4.4-.4 1zM301 142c0 .5.5 1 1.1 1 .5 0 .7-.5.4-1-.3-.6-.8-1-1.1-1-.2 0-.4.4-.4 1zM401 142c0 .5.5 1 1.1 1 .5 0 .7-.5.4-1-.3-.6-.8-1-1.1-1-.2 0-.4.4-.4 1zM411.5 142.1c-.3.4.2.6 1 .5 2.1-.3 2.8-1.3 1-1.3-.9 0-1.8.4-2 .8zM421.6 141.9c-.3.5.2 1.5 1.2 2.2 1.5 1.2 1.6 1.2.5-.2-.7-.9-1-1.9-.6-2.2.3-.4.4-.7 0-.7-.3 0-.8.4-1.1.9zM341.6 143.8c-.3.5.1.9.9.9s1.2-.4.9-.9c-.3-.4-.7-.8-.9-.8-.2 0-.6.4-.9.8zM379 144.4c.7.7 1.3.7 2 0 .6-.6.3-1-1-1s-1.6.4-1 1zM277.5 144.9c-.3.5-.2 1.2.3 1.5.5.3.9-.1.9-.9 0-1.7-.3-1.9-1.2-.6zM375.5 144.9c-.3.5-.2 1.2.3 1.5.5.3.9-.1.9-.9 0-1.7-.3-1.9-1.2-.6zM263 145.7c0 .6.8 1.7 1.8 2.4 1.6 1.3 1.6 1.3.2-.6-.8-1.1-1.6-2.2-1.7-2.4-.2-.2-.3 0-.3.6zM267.5 146.1c-.3.4.2.6 1 .5 2.1-.3 2.8-1.3 1-1.3-.9 0-1.8.4-2 .8zM273.6 145.8c-.3.5.1.9.9.9s1.2-.4.9-.9c-.3-.4-.7-.8-.9-.8-.2 0-.6.4-.9.8zM371 145.4c0 .2.7.7 1.6 1 .8.3 1.2.2.9-.4-.6-1-2.5-1.4-2.5-.6zM384 146c-.9.6-1 1-.3 1 .6 0 1.5-.5 1.8-1 .8-1.2.4-1.2-1.5 0zM409 146.1c0 .5.5.7 1 .4.6-.3 1-.8 1-1.1 0-.2-.4-.4-1-.4-.5 0-1 .5-1 1.1zM413 146.1c0 .5.5.7 1 .4.6-.3 1-.8 1-1.1 0-.2-.4-.4-1-.4-.5 0-1 .5-1 1.1zM429.6 145.8c-.3.5.1.9.9.9s1.2-.4.9-.9c-.3-.4-.7-.8-.9-.8-.2 0-.6.4-.9.8zM345.4 147.1c-.3.6-.2 1.5.3 2s.9.1.9-1.1c0-2.3-.2-2.4-1.2-.9zM353.4 147.1c-.3.6-.2 1.5.3 2s.9.1.9-1.1c0-2.3-.2-2.4-1.2-.9zM357.4 148c0 1.3.4 1.6 1 1 .7-.7.7-1.3 0-2-.6-.6-1-.3-1 1zM379.5 146.9c-.3.5-.2 1.2.3 1.5.5.3.9-.1.9-.9 0-1.7-.3-1.9-1.2-.6zM251.5 147.9c-.3.5-.2 1.2.3 1.5.5.3.9-.1.9-.9 0-1.7-.3-1.9-1.2-.6zM339.8 148.2c-.9.5-.6.7.9.5 1.2-.2 2.5-.6 2.8-.8.8-.9-2.3-.6-3.7.3zM360.4 147.7c.4.4 1.6.8 2.8 1 2.8.4 1.8-.6-1.2-1.2-1.2-.2-2-.1-1.6.2zM369.9 148.7c-1.3 1.6-1.2 1.7.4.4.9-.7 1.7-1.5 1.7-1.7 0-.8-.8-.3-2.1 1.3zM433.5 148c.3.5.8 1 1.1 1 .2 0 .4-.5.4-1 0-.6-.5-1-1.1-1-.5 0-.7.4-.4 1zM395.4 150.5c.1 1.4.8 3 1.6 3.7 1.2 1.1 1.2 1 .3-.2-.6-.8-.9-2.3-.8-3.2.2-1 0-2-.4-2.3-.4-.2-.7.7-.7 2zM439.5 149c-.4.6-1.1.7-1.7.4-.7-.4-.8-.2-.4.5.6.9 1.1.9 2.2 0 1.4-1.1 1.8-1.9 1-1.9-.3 0-.8.5-1.1 1zM286.5 150c-.3.6.1.7.9.4 1.8-.7 2.1-1.4.7-1.4-.6 0-1.3.4-1.6 1zM341.9 150.2c-.5 1.8-.6 3.8-.1 3.4.7-.8 1.2-3.6.6-3.6-.2 0-.4.1-.5.2zM308 151.4c0 .2.8 1 1.8 1.7 1.5 1.3 1.6 1.2.3-.4s-2.1-2.1-2.1-1.3zM348.6 151.9c-.3.4 1.3.6 3.4.6 2.1 0 3.6-.2 3.4-.5-.8-.7-6.4-.8-6.8-.1zM420.6 151.8c-.3.5.1.9.9.9s1.2-.4.9-.9c-.3-.4-.7-.8-.9-.8-.2 0-.6.4-.9.8zM253.4 153.8c.4.3 1.4.7 2.2.8.9.1 1.3 0 1-.4-.4-.3-1.4-.7-2.2-.8-.9-.1-1.3 0-1 .4zM315.5 153.8c.3.3-.1 1.2-.7 2.1-.8 1-.4.9 1-.3 2.6-2.3 2.6-2.3.7-2.3-.8 0-1.3.3-1 .5zM403.4 156.5c0 1.9.3 3.2.5 2.9.8-.7.9-5.4.2-5.9-.4-.2-.7 1.2-.7 3zM406.7 154.1c.7.7 1.5 1 1.8.7.3-.3-.2-.9-1.2-1.2-1.4-.6-1.5-.5-.6.5zM300.6 155.5c-1.1.8-1.5 1.5-.9 1.5s1.6-.7 2.3-1.5c1.6-1.9 1.1-1.9-1.4 0zM324.9 155.7c-.8.9-1.4 2.3-1.4 3.2 0 .9-.3 2.1-.7 2.7-.4.6-.1 1.1.7 1.1.8 0 1.1-.5.8-1-.4-.6 0-.8.9-.5.8.4 1.5.1 1.5-.7 0-.7-.6-1.1-1.3-.8-1.6.6-1.3-2 .5-4.1.7-.9 1.1-1.6.8-1.6-.2 0-1.1.7-1.8 1.7zM349.5 155.1c-.4.6-.5 1.2-.2 1.5.2.3.7-.2 1-1.1.7-1.7.1-2-.8-.4zM353.6 155.3c.3 1 .9 1.5 1.2 1.2.3-.3 0-1.1-.7-1.8-1-.9-1.1-.8-.5.6zM377 154.4c0 .2.8 1 1.8 1.7 1.5 1.3 1.6 1.2.3-.4s-2.1-2.1-2.1-1.3zM267 155.4c0 .2.7.7 1.6 1 .8.3 1.2.2.9-.4-.6-1-2.5-1.4-2.5-.6zM305.3 156.7c0 1 .4 1 1.6.1.9-.7 1.8-1.3 2-1.5.2-.1-.5-.1-1.6 0-1.1 0-2 .7-2 1.4zM317.9 156.7c-1.3 1.6-1.2 1.7.4.4 1.6-1.3 2.1-2.1 1.3-2.1-.2 0-1 .8-1.7 1.7zM381.9 156.7c-1.3 1.6-1.2 1.7.4.4 1.6-1.3 2.1-2.1 1.3-2.1-.2 0-1 .8-1.7 1.7zM387.1 155.3c.2.2 1.1.8 2 1.5 1.2.9 1.6.9 1.6-.1 0-.7-.9-1.4-2-1.4-1.1-.1-1.8-.1-1.6 0zM394.9 157.7c-1.3 1.6-1.2 1.7.4.4.9-.7 1.7-1.5 1.7-1.7 0-.8-.8-.3-2.1 1.3zM253 158.1c0 .5.5.7 1 .4.6-.3 1-.8 1-1.1 0-.2-.4-.4-1-.4-.5 0-1 .5-1 1.1zM275.3 158.5c0 .8.4 1.2.9.9.5-.3.6-1 .3-1.5-.9-1.3-1.2-1.1-1.2.6zM308 158.5c-.7.9-1.1 1.7-.9 2 .3.2 1-.5 1.7-1.5 1.4-2.4 1-2.6-.8-.5zM330.6 158.2c.3.5 0 1.6-.7 2.4-1 1.2-.9 1.3.6.8 1.4-.6 1.6-.4 1 .7-.4.8-.4 1.1 0 .6 1.3-1.2 1.2-5.4-.2-5.4-.7 0-1 .4-.7.9zM339.8 158.9c.5 1.4.4 1.4-1.4.1-1.8-1.4-1.8-1.4-.5.2.7 1 1.7 1.6 2.1 1.3.5-.3 1 .1 1.3.7.2.7.4.1.3-1.3 0-1.4-.6-2.6-1.3-2.6-.6 0-.8.7-.5 1.6zM343 157.4c0 .2.7.7 1.6 1 .8.3 1.2.2.9-.4-.6-1-2.5-1.4-2.5-.6zM358.5 158c-.3.6.1.7.9.4 1.8-.7 2.1-1.4.7-1.4-.6 0-1.3.4-1.6 1zM362.4 159.7c-.2 2.7-.1 2.7 1.4-.3.8-1.5.8-2.1-.1-2.1-.7 0-1.3 1.1-1.3 2.4zM371.8 157.7c.7.3 1.6.2 1.9-.1.4-.3-.2-.6-1.3-.5-1.1 0-1.4.3-.6.6zM383.5 157.9c-.3.5-.2 1.2.3 1.5.5.3.9-.1.9-.9 0-1.7-.3-1.9-1.2-.6zM386 157.4c0 .2.8 1 1.8 1.7 1.5 1.3 1.6 1.2.3-.4s-2.1-2.1-2.1-1.3zM215.5 159.1c-.4.6-.5 1.2-.2 1.5.2.3.7-.2 1-1.1.7-1.7.1-2-.8-.4zM286.1 159.5c.9 1.1 1.5 3.3 1.4 4.8-.1 1.5.1 3 .5 3.2 1.6 1 .3-6.6-1.5-8.2-1.9-1.7-1.9-1.7-.4.2zM297 158.4c0 .2.8 1 1.8 1.7 1.5 1.3 1.6 1.2.3-.4s-2.1-2.1-2.1-1.3zM313.5 159c-.4.6-1.1.7-1.7.4-.7-.4-.8-.2-.4.5.6.9 1.1.9 2.2 0 1.4-1.1 1.8-1.9 1-1.9-.3 0-.8.5-1.1 1zM349.7 159.5c.3.8.9 1.2 1.4.9 1.2-.7 1.1-1.1-.5-1.7-1-.4-1.3-.1-.9.8zM353.5 159.1c-.4.6-.5 1.2-.2 1.5.2.3.7-.2 1-1.1.7-1.7.1-2-.8-.4zM369.6 159.3c.3 1 .9 1.5 1.2 1.2.3-.3 0-1.1-.7-1.8-1-.9-1.1-.8-.5.6zM377.5 159.1c-.4.6-.5 1.2-.2 1.5.2.3.7-.2 1-1.1.7-1.7.1-2-.8-.4zM291.1 159.3c.2.1 1.3.9 2.4 1.7 1.9 1.4 1.9 1.4.6-.3-.7-.9-1.8-1.7-2.4-1.7-.6 0-.8.1-.6.3zM389.6 160.6c-.3.9-.2 1.2.5.9.5-.4 1.8-.1 2.7.6 1.3 1.1 1.2.8-.2-.9-2.3-2.6-2.2-2.6-3-.6zM420 160c0 .5.1 1.2.3 1.4.1.2-.7 1.4-1.8 2.7l-2 2.4 2-1.7c1.8-1.5 3.2-5.8 1.9-5.8-.2 0-.4.4-.4 1zM423 160.4c0 .2.8 1 1.8 1.7 1.5 1.3 1.6 1.2.3-.4s-2.1-2.1-2.1-1.3zM427.5 160.9c-.3.5-.2 1.2.3 1.5.5.3.9-.1.9-.9 0-1.7-.3-1.9-1.2-.6zM291.1 162.7c.7 1.2 1.5 2 1.8 1.7.3-.2-.3-1.2-1.3-2.2-1.7-1.6-1.8-1.6-.5.5zM396 162c-.9.6-1 1-.3 1 .6 0 1.5-.5 1.8-1 .8-1.2.4-1.2-1.5 0zM408 162.5c-.7.9-1.1 1.7-.9 2 .3.2 1-.5 1.7-1.5 1.4-2.4 1-2.6-.8-.5zM414.6 162.2c.3.4.9.8 1.5.8.5 0 .9-.4.9-.8 0-.5-.7-.9-1.5-.9s-1.2.4-.9.9zM296.9 163.7c-1.3 1.6-1.2 1.7.4.4.9-.7 1.7-1.5 1.7-1.7 0-.8-.8-.3-2.1 1.3zM306.8 162.7c.7.3 1.6.2 1.9-.1.4-.3-.2-.6-1.3-.5-1.1 0-1.4.3-.6.6zM311.5 163.1c-.4.6-.5 1.2-.2 1.5.2.3.7-.2 1-1.1.7-1.7.1-2-.8-.4zM377.1 162.7c-.1 1.7 1.6 2.5 2.5 1.2.4-.7.3-.9-.4-.5-.5.3-1.3 0-1.5-.6-.4-.9-.6-1-.6-.1zM401.3 163.3c0 .8.6 1.4 1.4 1.4.9 0 1-.4.2-1.4-.6-.7-1.2-1.3-1.4-1.3-.1 0-.2.6-.2 1.3zM275.3 164.7c0 1.1.7 2 1.4 2 1 0 1-.4.1-1.6-.7-.9-1.3-1.8-1.5-2-.1-.2-.1.5 0 1.6zM278.5 164.1c.3.4 1.3.6 2.3.4.9-.1 2.6.5 3.7 1.3 1.9 1.6 1.9 1.6.3-.3-1.7-1.8-7.3-3.1-6.3-1.4zM313.6 164.6c-.3.9.1 1.1 1.1.7 1.1-.4 1.4-.2.9.5-.5.8-.1 1 1 .5 1.1-.4 1.3-.8.6-1.1-.7-.2-1-.7-.8-1.1.3-.4-.1-.8-.9-.8s-1.6.6-1.9 1.3zM326.5 164c-.3.6.1.7.9.4 1.8-.7 2.1-1.4.7-1.4-.6 0-1.3.4-1.6 1zM411.1 163.3c.2.1 1.3.9 2.4 1.7 1.9 1.4 1.9 1.4.6-.3-.7-.9-1.8-1.7-2.4-1.7-.6 0-.8.1-.6.3zM432.1 164.4c-.9 1.1-.9 1.6.1 2.2.7.4 1 .4.6-.1-.4-.4-.3-1.4.3-2.2.6-.7.9-1.3.6-1.3-.2 0-1 .6-1.6 1.4zM268 166.5c-.7.9-1.1 1.7-.9 2 .3.2 1-.5 1.7-1.5 1.4-2.4 1-2.6-.8-.5zM271.6 165.8c-.3.5.1.9.9.9s1.2-.4.9-.9c-.3-.4-.7-.8-.9-.8-.2 0-.6.4-.9.8zM394.8 167.8c.4 1.9.2 2.3-.8 1.7-.9-.5-1.1-.4-.6.4 1 1.6 2.3.6 2.8-2.2.3-1.4 0-2.4-.7-2.4s-1 1-.7 2.5zM426.8 166.1c.6.9.8 2 .4 2.5s-.3.6.2.2c.5-.4 1.4-.3 2.1.2.8.7 1.2.5 1.2-.5 0-.8-.3-1.3-.5-1-.3.3-1.5-.3-2.6-1.2-1.5-1.4-1.8-1.4-.8-.2zM281.8 167.3c.8.9 1.1 2 .8 2.5-.3.5.1.9.9.9 1.6 0 .4-3.1-1.8-4.3-.8-.6-.8-.3.1.9zM295.8 166.7c.7.3 1.6.2 1.9-.1.4-.3-.2-.6-1.3-.5-1.1 0-1.4.3-.6.6zM401.4 167.7c.1 1.2.6 2.6 1 3 .4.5.7.3.6-.2-.5-2.4.1-2.7 1.6-.9 1.4 1.8 1.5 1.8.4-.4-.6-1.2-1.5-2-2-1.7-.4.3-1.1-.1-1.4-.7-.2-.7-.4-.3-.2.9zM405.6 167.3c.3 1 .9 1.5 1.2 1.2.3-.3 0-1.1-.7-1.8-1-.9-1.1-.8-.5.6zM250.6 167.8c-.3.5.1.9.9.9s1.2-.4.9-.9c-.3-.4-.7-.8-.9-.8-.2 0-.6.4-.9.8zM261.3 168.5c0 .8.4 1.2.9.9.5-.3.6-1 .3-1.5-.9-1.3-1.2-1.1-1.2.6zM300.5 168c-.3.6.1.7.9.4 1.8-.7 2.1-1.4.7-1.4-.6 0-1.3.4-1.6 1zM388.5 168c-.3.6.1.7.9.4 1.8-.7 2.1-1.4.7-1.4-.6 0-1.3.4-1.6 1zM411 168c0 .5.5 1 1 1 .6 0 1-.5 1-1 0-.6-.4-1-1-1-.5 0-1 .4-1 1zM416.5 168.1c-.3.4.2.6 1 .5 2.1-.3 2.8-1.3 1-1.3-.9 0-1.8.4-2 .8zM225.5 170c.3.5.8 1 1.1 1 .2 0 .4-.5.4-1 0-.6-.5-1-1.1-1-.5 0-.7.4-.4 1zM274 169.5c0 .2.6.8 1.3 1.4 1 .8 1.4.7 1.4-.2 0-.8-.6-1.4-1.4-1.4-.7 0-1.3.1-1.3.2zM278.5 170.1c.4.5.1 1.8-.7 2.7-1.1 1.5-1.1 1.5.3.5.9-.7 1.8-1.1 2.1-.8.2.3.5-.2.5-1s-.7-1.7-1.4-1.9c-.8-.3-1.1-.1-.8.5zM287.6 170.5c-.9 2.6-.7 3.2.5 1.2.6-1 .9-2.1.6-2.3-.2-.3-.7.2-1.1 1.1zM399 169.7c0 .6.8 1.7 1.8 2.4 1.6 1.3 1.6 1.3.2-.6-.8-1.1-1.6-2.2-1.7-2.4-.2-.2-.3 0-.3.6zM422.4 169.8c.4.3 1.4.7 2.2.8.9.1 1.3 0 1-.4-.4-.3-1.4-.7-2.2-.8-.9-.1-1.3 0-1 .4zM231.6 171.3c.3 1 .9 1.5 1.2 1.2.3-.3 0-1.1-.7-1.8-1-.9-1.1-.8-.5.6zM269 170.4c0 .2.8 1 1.8 1.7 1.5 1.3 1.6 1.2.3-.4s-2.1-2.1-2.1-1.3zM407.9 170.2c-.6 2.2-.5 3.9.3 4.5.7.4.8.1.3-.7-.6-1-.3-1.2 1.1-.7 1.8.7 1.8.6.2-.6-1-.8-1.5-1.7-1.1-2 .3-.4.3-.7 0-.7-.4 0-.7.1-.8.2zM427 170.3c0 .2.6 1 1.4 1.6 1.1.9 1.6.9 2.2-.1.4-.7.4-1-.1-.6-.4.4-1.4.3-2.2-.3-.7-.6-1.3-.9-1.3-.6zM238.5 172c-.3.6.1.7.9.4 1.8-.7 2.1-1.4.7-1.4-.6 0-1.3.4-1.6 1zM413.3 172.5c0 .7.7 1.1 1.5.7 1-.3 1.3-.1.8.6-.9 1.5 1.4 2.6 2.7 1.3.9-.9.7-1-.7-.5-1.3.5-1.7.4-1.2-.4.3-.6-.2-1.5-1.2-2.1-1.4-.7-1.9-.6-1.9.4zM421.1 172.6c0 1.1.3 1.4.6.6.3-.7.2-1.6-.1-1.9-.3-.4-.6.2-.5 1.3zM217.3 173.5c0 .8.4 1.2.9.9.5-.3.6-1 .3-1.5-.9-1.3-1.2-1.1-1.2.6zM267.1 173.3c-.8 1-.7 1.4.2 1.4.8 0 1.4-.6 1.4-1.4 0-.7-.1-1.3-.2-1.3-.2 0-.8.6-1.4 1.3zM396 172.4c0 .2.7.7 1.6 1 .8.3 1.2.2.9-.4-.6-1-2.5-1.4-2.5-.6zM243.6 173.8c-.2.4-.1 1.4.4 2.2.7 1.1.9.9.7-.8-.1-2.4-.3-2.6-1.1-1.4zM251 174.2c0 .4.4.8.9.8.6 0 1.2-.4 1.5-.8.3-.5-.1-.9-.9-.9s-1.5.4-1.5.9zM283.9 173.2c-.9 3-.6 3.7 1.2 2.8 2.3-1.3 2.5-2.2.2-1.3-1.1.4-1.4.3-.9-.5.4-.7.5-1.2.2-1.2s-.6.1-.7.2zM402 174c-1.8 1.2-.2 1.2 2.5 0 1.3-.6 1.5-.9.5-.9-.8 0-2.2.4-3 .9zM231.3 175.5c0 .8.4 1.2.9.9.5-.3.6-1 .3-1.5-.9-1.3-1.2-1.1-1.2.6zM258.8 174.7c.7.3 1.6.2 1.9-.1.4-.3-.2-.6-1.3-.5-1.1 0-1.4.3-.6.6zM262 174.4c0 .2.7.7 1.6 1 .8.3 1.2.2.9-.4-.6-1-2.5-1.4-2.5-.6zM202.6 175.8c-.3.5.1.9.9.9s1.2-.4.9-.9c-.3-.4-.7-.8-.9-.8-.2 0-.6.4-.9.8zM253.9 176.7c-1.3 1.6-1.2 1.7.4.4.9-.7 1.7-1.5 1.7-1.7 0-.8-.8-.3-2.1 1.3zM274.5 176c-.3.6.1.7.9.4 1.8-.7 2.1-1.4.7-1.4-.6 0-1.3.4-1.6 1zM412 176c.8.5 2 1 2.5 1 .6 0 .3-.5-.5-1s-1.9-1-2.5-1c-.5 0-.3.5.5 1zM420.1 176.4c-.9 1.1-.9 1.6 0 2.2.8.5.9.3.4-.6-.6-1-.4-1.2.8-.7 1.1.4 1.4.2 1-.9-.6-1.7-.8-1.7-2.2 0zM213.6 177.8c-.2.4-.1 1.4.4 2.2.7 1.1.9.9.7-.8-.1-2.4-.3-2.6-1.1-1.4zM246.6 177.8c-.2.4.4.8 1.4.8 1 0 1.6-.4 1.4-.8-.3-.4-.9-.8-1.4-.8-.5 0-1.1.4-1.4.8zM266.9 179c.5.8.6 2.2.3 3-.2.8-.2 1.2.2.8.4-.3.8-1.2 1-2 .1-.7.4-1.8.8-2.3.4-.6-.2-1.1-1.2-1.1-1.3 0-1.6.5-1.1 1.6zM409.5 178c-.3.5-.1 1 .4 1 .6 0 1.1-.5 1.1-1 0-.6-.2-1-.4-1-.3 0-.8.4-1.1 1zM231.5 178.9c-.3.5-.2 1.2.3 1.5.5.3.9-.1.9-.9 0-1.7-.3-1.9-1.2-.6zM257.6 179.3c.3 1 .9 1.5 1.2 1.2.3-.3 0-1.1-.7-1.8-1-.9-1.1-.8-.5.6zM274 178.9c0 .6.4 1.3 1 1.6.6.3.7-.1.4-.9-.7-1.8-1.4-2.1-1.4-.7zM234.7 180.1c.7.7 1.5 1 1.8.7.3-.3-.2-.9-1.2-1.2-1.4-.6-1.5-.5-.6.5zM418.8 180.8c.9 1 1.9 1.7 2.1 1.6.6-.5-2-3.4-3-3.4-.5 0-.1.8.9 1.8zM242.9 181.7c-1.3 1.6-1.2 1.7.4.4 1.6-1.3 2.1-2.1 1.3-2.1-.2 0-1 .8-1.7 1.7zM254.5 182c-.3.6.1.7.9.4 1.8-.7 2.1-1.4.7-1.4-.6 0-1.3.4-1.6 1zM237.4 183.1c-.3.6-.2 1.5.3 2s.9.1.9-1.1c0-2.3-.2-2.4-1.2-.9zM256.5 183.3c-1.5 1.2-1.6 1.5-.4 2.2.8.5 1.1.5.7 0-.4-.4 0-1.4 1-2.1 2.3-1.8 1.1-1.8-1.3-.1zM261.7 183.5c.3.8.9 1.2 1.4.9 1.2-.7 1.1-1.1-.5-1.7-1-.4-1.3-.1-.9.8zM269.7 183.1c.7.7 1.5 1 1.8.7.3-.3-.2-.9-1.2-1.2-1.4-.6-1.5-.5-.6.5zM421.6 183.5c-.9 2.6-.7 3.2.5 1.2.6-1 .9-2.1.6-2.3-.2-.3-.7.2-1.1 1.1zM233 183.4c0 .2.7.7 1.6 1 .8.3 1.2.2.9-.4-.6-1-2.5-1.4-2.5-.6zM245.3 184.5c0 .8.4 1.2.9.9.4-.3.8-.9.8-1.5 0-.5-.4-.9-.8-.9-.5 0-.9.7-.9 1.5zM205.4 186.4c.1.8.5 1.8.8 2.2.4.3.5-.1.4-1-.1-.8-.5-1.8-.8-2.2-.4-.3-.5.1-.4 1zM209.5 186c.3.5.8 1 1.1 1 .2 0 .4-.5.4-1 0-.6-.5-1-1.1-1-.5 0-.7.4-.4 1zM231 185.4c0 .2.7.7 1.6 1 .8.3 1.2.2.9-.4-.6-1-2.5-1.4-2.5-.6zM250.8 185.7c.6.2.9 1 .6 1.5-.4.7-.2.8.5.4 1.3-.9.5-2.6-1.2-2.5-.9 0-.8.2.1.6zM262 186.9c0 .6.4 1.3 1 1.6.6.3.7-.1.4-.9-.7-1.8-1.4-2.1-1.4-.7zM220.6 187.9c-.3.4.6.7 1.9.7 1.4 0 2.2-.2 1.9-.5-.8-.8-3.4-1-3.8-.2zM237.2 187.9c-1.1.7-1.1.9 0 1.4.9.3 1.5-.1 1.5-.9s-.1-1.4-.1-1.4c-.1 0-.7.4-1.4.9zM247 187.4c0 .2.7.7 1.6 1 .8.3 1.2.2.9-.4-.6-1-2.5-1.4-2.5-.6zM259 188.1c0 .5.5.7 1 .4.6-.3 1-.8 1-1.1 0-.2-.4-.4-1-.4-.5 0-1 .5-1 1.1zM235.1 190.7c.7 1.2 1.5 2 1.8 1.7.3-.2-.3-1.2-1.3-2.2-1.7-1.6-1.8-1.6-.5.5zM243.7 190.7c.3.7-.1 2.1-.8 3.1-1.1 1.4-1.1 1.5.1.4.8-.6 1.8-1.2 2.3-1.2.4 0 .5.6.1 1.2-.4.7-.3.9.1.5 1.3-1.1 1.5-3.8.2-3-.6.4-.8 0-.5-.9.4-.8.1-1.5-.7-1.5-.7 0-1.1.6-.8 1.4zM229.9 191.3c.8.9 1.6 1.5 1.9 1.2.3-.3 1.2.1 2.1.8 1.4 1.1 1.4 1 .2-.6-.8-.9-1.6-1.5-1.9-1.2-.3.3-1.2-.1-2.1-.8-1.4-1.1-1.4-1-.2.6zM241.3 191.5c0 .8.4 1.2.9.9.5-.3.6-1 .3-1.5-.9-1.3-1.2-1.1-1.2.6zM253 190.9c0 .7-.4 1-.9.6-.5-.3-1.3 0-1.7.6-.4.8-.3.9.4.5s1.2-.1 1.2.6c0 .8.5.6 1.1-.5.6-1 .8-2.1.5-2.4-.3-.4-.6-.1-.6.6zM218.6 192.1c.4.8 3 .6 3.8-.2.3-.3-.5-.5-1.9-.5-1.3 0-2.2.3-1.9.7zM227 192.4c0 .2.8 1 1.8 1.7 1.5 1.3 1.6 1.2.3-.4s-2.1-2.1-2.1-1.3zM247.1 195.3c-1.3 2.1-1.2 2.1.5.5 1-1 1.6-2 1.3-2.2-.3-.3-1.1.5-1.8 1.7zM221.5 195c-.4.6-1.1.8-1.6.5-.5-.4-.9-.2-.9.4 0 .5.8.9 1.8.8 1 0 1.9-.7 1.9-1.4 0-1.6-.4-1.6-1.2-.3zM225.3 195.5c0 .8.4 1.2.9.9.5-.3.6-1 .3-1.5-.9-1.3-1.2-1.1-1.2.6zM243.6 197.3c.3 1 .9 1.5 1.2 1.2.3-.3 0-1.1-.7-1.8-1-.9-1.1-.8-.5.6zM249.5 196.9c-.3.5 0 1.3.6 1.7.7.4.9.3.5-.4-.3-.5 0-1.3.6-1.5.9-.4 1-.6.1-.6-.6-.1-1.4.3-1.8.8zM239.8 197.8c-1.7.7-1.6.8.2 1.9 1.6 1.1 1.8 1 1.3-.4-.5-1.2-.3-1.4.7-.8.9.5 1.1.4.6-.3-.4-.7-.8-1.2-.9-1.1-.1 0-1 .4-1.9.7zM245.6 199.7c-.6 1.4-.5 1.5.5.6.7-.7 1-1.5.7-1.8-.3-.3-.9.2-1.2 1.2zM233.1 199.3c.2.1 1.3.9 2.4 1.7 1.9 1.4 1.9 1.4.6-.3-.7-.9-1.8-1.7-2.4-1.7-.6 0-.8.1-.6.3zM223.3 201.5c0 .8.4 1.5.9 1.5.4 0 .8-.4.8-.9 0-.6-.4-1.2-.8-1.5-.5-.3-.9.1-.9.9zM230.6 201.5c-.4 1.1-.4 1.6 0 1.2.4-.4 1.2.1 1.9 1 .9 1.3 1.4 1.3 2 .3.6-.9.4-1.1-.5-.5-1 .6-1.2.4-.7-.9.4-.9.3-1.5-.2-1.1-.5.3-1.1 0-1.3-.7-.3-.7-.7-.4-1.2.7zM236.3 204.2c-.9 1.6-1.2 7.8-.3 8.3.3.2.6-1.3.5-3.3-.1-2 .3-4.3.8-5 .5-.6.7-1.2.4-1.2-.3 0-.9.6-1.4 1.2zM239.6 204.3c.3 1 .9 1.5 1.2 1.2.3-.3 0-1.1-.7-1.8-1-.9-1.1-.8-.5.6zM226 206c-.8.5-1 1-.5 1 .6 0 1.7-.5 2.5-1s1.1-1 .5-1c-.5 0-1.7.5-2.5 1zM231.7 208.1c.7.7 1.5 1 1.8.7.3-.3-.2-.9-1.2-1.2-1.4-.6-1.5-.5-.6.5zM559.9 332.7c-1.3 1.6-1.2 1.7.4.4 1.6-1.3 2.1-2.1 1.3-2.1-.2 0-1 .8-1.7 1.7zM567.4 333.8c.4.3 1.4.7 2.2.8.9.1 1.3 0 1-.4-.4-.3-1.4-.7-2.2-.8-.9-.1-1.3 0-1 .4zM558.6 336.2c.3.5 1 .6 1.5.3 1.3-.9 1.1-1.2-.6-1.2-.8 0-1.2.4-.9.9zM555.6 339.8c-.3.5.1.9.9.9s1.2-.4.9-.9c-.3-.4-.7-.8-.9-.8-.2 0-.6.4-.9.8zM549.5 343c-.4.6-1.1.8-1.6.5-.5-.4-.9-.1-.9.4 0 1.6 1.6 1.3 3-.4.7-.8 1-1.5.7-1.5-.3 0-.9.5-1.2 1zM568.6 346.2c.3.5 1 .6 1.5.3 1.3-.9 1.1-1.2-.6-1.2-.8 0-1.2.4-.9.9zM563.5 347.1c-.4.6-.5 1.2-.2 1.5.2.3.7-.2 1-1.1.7-1.7.1-2-.8-.4zM552.6 347.8c-.3.5.1.9.9.9s1.2-.4.9-.9c-.3-.4-.7-.8-.9-.8-.2 0-.6.4-.9.8zM537.2 352c0 1.4.2 1.9.5 1.2.2-.6.2-1.8 0-2.5-.3-.6-.5-.1-.5 1.3zM131 352.2c0 .4.4.8.9.8.6 0 1.2-.4 1.5-.8.3-.5-.1-.9-.9-.9s-1.5.4-1.5.9zM528 352.3c0 .9-.5 1.6-1.2 1.4-.6-.1-1.4.6-1.6 1.5-.2 1 .1 1.8.7 1.8s.7-.7.4-1.7c-.4-1.1-.3-1.4.5-.9 1.3.8 2.9-2 1.8-3.1-.3-.4-.6.1-.6 1zM531.3 352.5c0 .7.6 1.1 1.4.8.7-.3 1.3-.6 1.3-.8 0-.2-.6-.5-1.3-.8-.8-.3-1.4.1-1.4.8zM539.3 352.9c0 1.1.5 1.8.9 1.5.4-.3.5-1.1.1-1.9-.7-2.1-1.2-1.9-1 .4zM544.6 351.9c.7.8 8.4.9 8.4.2 0-.4-2-.7-4.4-.7-2.5 0-4.3.3-4 .5zM561 354c0 .5.5 1 1.1 1 .5 0 .7-.5.4-1-.3-.6-.8-1-1.1-1-.2 0-.4.4-.4 1zM565.5 354c-.3.5-.1 1 .4 1 .6 0 1.1-.5 1.1-1 0-.6-.2-1-.4-1-.3 0-.8.4-1.1 1zM569.4 354.4c.1.8.5 1.8.8 2.2.4.3.5-.1.4-1-.1-.8-.5-1.8-.8-2.2-.4-.3-.5.1-.4 1zM545 354.4c0 .2.8 1 1.8 1.7 1.5 1.3 1.6 1.2.3-.4s-2.1-2.1-2.1-1.3zM549.4 356c0 1.3.4 1.6 1 1 .7-.7.7-1.3 0-2-.6-.6-1-.3-1 1zM528.5 356c-.3.6.1.7.9.4 1.8-.7 2.1-1.4.7-1.4-.6 0-1.3.4-1.6 1zM534.4 356.2c-.4.5-.3 1.2 0 1.5.3.4.6.1.6-.6s.4-1 .9-.6c.5.3 1.2.2 1.5-.3.3-.5-.2-.9-1-.9s-1.7.4-2 .9zM519.5 357.9c-.3 1.2-1 1.9-1.5 1.6-1.4-.9-2.1 1.2-.7 2.2 1.6 1.3 5.9 1.4 5.1.2-.3-.5-1.5-.7-2.6-.3-1.9.6-1.9.5-.2-2 .9-1.5 1.4-2.9 1.1-3.2-.3-.3-.8.4-1.2 1.5zM531.2 356.9c-1.1.7-1.1.9 0 1.4.9.3 1.5-.1 1.5-.9s-.1-1.4-.1-1.4c-.1 0-.7.4-1.4.9zM128 358c-1.2.7-1 .9.7.7 1.2 0 1.9-.5 1.7-.9-.6-1-.6-1-2.4.2zM540.5 358.1c-.4.6-.5 1.2-.2 1.5.2.3.7-.2 1-1.1.7-1.7.1-2-.8-.4zM543 357.4c0 .2.7.7 1.6 1 .8.3 1.2.2.9-.4-.6-1-2.5-1.4-2.5-.6z"/><path d="M522.2 358.9c-1.1.7-1 .9.3 1.4.9.4 1.3.3 1-.2-.3-.5.3-1.2 1.2-1.4 1.3-.3 1.4-.5.3-.6-.8 0-2.1.3-2.8.8zM534.6 359.9c-1.3 1.4-1.4 2.1-.5 2.7.8.4 1 .3.5-.4-.4-.7-.3-1.2.2-1.2.6 0 1.2-.7 1.6-1.5.7-2 .3-1.9-1.8.4zM526 360c-.9.6-1 1-.3 1 .6 0 1.5-.5 1.8-1 .8-1.2.4-1.2-1.5 0zM529.6 360.5c.4.8.8 1.5 1 1.5.2 0 .4-.7.4-1.5s-.4-1.5-1-1.5c-.5 0-.7.7-.4 1.5zM553.3 360.5c0 .8.4 1.2.9.9.5-.3.6-1 .3-1.5-.9-1.3-1.2-1.1-1.2.6zM527.7 361.7c-.4.3-.7 1.1-.7 1.7 0 .6.5.5 1.2-.2.6-.6.9-1.4.7-1.7-.3-.3-.9-.2-1.2.2zM563 361.5c0 .7 3 1.3 3.4.7.3-.4-.4-.9-1.5-.9-1-.1-1.9 0-1.9.2zM524.1 362.7c-.1.6-.4 2-.7 3-.5 1.7-.5 1.7.6 0 .6-1 .9-2.3.6-3-.3-.9-.5-.9-.5 0zM126.6 363.8c-.2.4.4.8 1.4.8 1 0 1.6-.4 1.4-.8-.3-.4-.9-.8-1.4-.8-.5 0-1.1.4-1.4.8zM532 364c.8.5 2 1 2.5 1 .6 0 .3-.5-.5-1s-1.9-1-2.5-1c-.5 0-.3.5.5 1zM539 364.1c0 .5.5.7 1 .4.6-.3 1-.8 1-1.1 0-.2-.4-.4-1-.4-.5 0-1 .5-1 1.1zM554.6 364.2c.3.5 1 .6 1.5.3 1.3-.9 1.1-1.2-.6-1.2-.8 0-1.2.4-.9.9zM518 365.5c-.9 1-.9 1.5-.1 1.5.6 0 1.1-.4 1.1-.9s.8-1.2 1.8-1.4c1.4-.4 1.4-.5.1-.6-.9 0-2.2.6-2.9 1.4zM529.5 365c.6 1 .3 1.2-1.4.7-1.5-.4-2.4.1-3.2 1.6-.9 1.9-.8 2 .3.7.7-.9 2-1.4 3-1.2 2 .4 3.3-1.4 1.7-2.4-.8-.5-.9-.3-.4.6zM133 366.1c0 .5.5.7 1 .4.6-.3 1-.8 1-1.1 0-.2-.4-.4-1-.4-.5 0-1 .5-1 1.1zM137.5 366c-.3.5-.1 1 .4 1 .6 0 1.1-.5 1.1-1 0-.6-.2-1-.4-1-.3 0-.8.4-1.1 1zM556 366c-.9.6-1 1-.3 1 .6 0 1.5-.5 1.8-1 .8-1.2.4-1.2-1.5 0zM564 366c-1.2.7-1 .9.7.7 1.2 0 1.9-.5 1.7-.9-.6-1-.6-1-2.4.2zM530.6 367.5c-1.1.8-1.6 1.5-1 1.5.5 0 1.8-.7 2.8-1.5 1.1-.8 1.6-1.5 1-1.5-.5 0-1.8.7-2.8 1.5zM519.4 368.1c-.8 1.4 1.8 3.1 3 1.9.9-.9 0-3-1.4-3-.5 0-1.2.5-1.6 1.1zm2.6.9c0 .5-.2 1-.4 1-.3 0-.8-.5-1.1-1-.3-.6-.1-1 .4-1 .6 0 1.1.4 1.1 1zM539.8 368.2c-.9.5-.6.7.9.5 1.2-.2 2.5-.6 2.8-.8.8-.9-2.3-.6-3.7.3zM549.9 368.7c-1.2 1.6-1.2 1.7.2.6.9-.7 1.9-1 2.2-.6.4.3.7.1.7-.5 0-1.7-1.6-1.5-3.1.5zM516 369c-.9.6-1 1-.3 1 .6 0 1.5-.5 1.8-1 .8-1.2.4-1.2-1.5 0zM565.3 369.5c0 .8.4 1.2.9.9.5-.3.6-1 .3-1.5-.9-1.3-1.2-1.1-1.2.6zM527 370c0 .5.5 1 1.1 1 .5 0 .7-.5.4-1-.3-.6-.8-1-1.1-1-.2 0-.4.4-.4 1zM535.9 371.2c-.6 1.3-.8 2-.4 1.6.5-.4 1.3-.3 2 .2.8.7 1.2.5 1.2-.5 0-.8-.5-1.1-1-.8-.6.4-.8 0-.4-1 .9-2.5 0-2.1-1.4.5zM525.4 371.9c.2 1.4.9 2.7 1.7 2.9 1.1.3 1.2.2.1-.6-.8-.5-1.3-1.2-1.2-1.6.1-.4-.1-1.2-.4-1.9-.2-.6-.3-.1-.2 1.2zM531 371.1c0 .5.5.7 1 .4.6-.3 1-.8 1-1.1 0-.2-.4-.4-1-.4-.5 0-1 .5-1 1.1zM541.5 371.1c-.4.6-.5 1.2-.2 1.5.2.3.7-.2 1-1.1.7-1.7.1-2-.8-.4zM142.7 372.1c.7.7 1.5 1 1.8.7.3-.3-.2-.9-1.2-1.2-1.4-.6-1.5-.5-.6.5zM146.6 372.2c.3.5 1 .6 1.5.3 1.3-.9 1.1-1.2-.6-1.2-.8 0-1.2.4-.9.9zM154.4 372.8c0 1 .8 1.8 1.8 1.8 1.6 0 1.6-.2.1-1.8-.9-1-1.7-1.8-1.7-1.8-.1 0-.2.8-.2 1.8zM513 373c-.6 1.1-.9 2-.8 2 .2 0 1.1-.9 2.1-2 .9-1.1 1.3-2 .7-2-.5 0-1.4.9-2 2zM518.6 372.4c1 .8 2.1 1.2 2.4 1 .5-.6-2.1-2.4-3.4-2.4-.6 0-.1.6 1 1.4zM523.1 372.6c0 1.1.3 1.4.6.6.3-.7.2-1.6-.1-1.9-.3-.4-.6.2-.5 1.3zM545.9 372.7c-1.3 1.6-1.2 1.7.4.4 1.6-1.3 2.1-2.1 1.3-2.1-.2 0-1 .8-1.7 1.7zM551.5 372c-.3.5.3.7 1.2.5 1-.1 2.5.2 3.3.8 1.2.9 1.3.9.3-.3-1.5-1.6-4.1-2.2-4.8-1zM516 374c2 1.3 3.3 1.3 2.5 0-.3-.6-1.4-1-2.3-1-1.5 0-1.5.2-.2 1zM531 373.5c0 .5.5 1.7 1 2.5s1 1 1 .5c0-.6-.5-1.7-1-2.5s-1-1.1-1-.5zM143.1 375.3c-.8 1-.7 1.4.2 1.4.8 0 1.4-.6 1.4-1.4 0-.7-.1-1.3-.2-1.3-.2 0-.8.6-1.4 1.3zM541 374.4c0 .2.8 1 1.8 1.7 1.5 1.3 1.6 1.2.3-.4s-2.1-2.1-2.1-1.3z"/><path d="M514 375.7c0 .5.5 1.5 1 2.3.8 1.3 1.2 1.3 3.2.1 1.6-1 2.3-1 2.6-.2.2.6.8 1.1 1.4 1.1.6 0 .4-.7-.3-1.7-1.2-1.5-1.2-1.6.3-1 1 .3 2 .2 2.3-.3.3-.4-.7-.6-2.2-.4-1.6.3-3.3.5-4 .6-.7.1-.9.6-.6 1.1.3.5 0 .7-.8.5-.8-.3-1.3-1.1-1.1-1.7.1-.6-.2-1.1-.8-1.1-.5 0-1 .3-1 .7zM538.6 375.8c-.3.5.1.9.9.9s1.2-.4.9-.9c-.3-.4-.7-.8-.9-.8-.2 0-.6.4-.9.8zM555.3 376.5c0 .8.4 1.2.9.9.5-.3.6-1 .3-1.5-.9-1.3-1.2-1.1-1.2.6zM147.3 377.3c0 .8.6 1.4 1.4 1.4.9 0 1-.4.2-1.4-.6-.7-1.2-1.3-1.4-1.3-.1 0-.2.6-.2 1.3zM527.5 377c.3.5.8 1 1.1 1 .2 0 .4-.5.4-1 0-.6-.5-1-1.1-1-.5 0-.7.4-.4 1zM151.6 378.2c.3.5 1 .6 1.5.3 1.3-.9 1.1-1.2-.6-1.2-.8 0-1.2.4-.9.9zM155.5 380.7c.1 1.8.5 3.6.9 4 .4.4.5-.6.2-2.2s-.1-3.4.4-4c.7-.8.5-1.2-.4-1.2s-1.3 1.1-1.1 3.4zM524.5 378.1c-.4.6-.4 1.3-.1 1.6.3.4.6.1.6-.6s.5-.9 1.2-.5.8.3.4-.4c-.9-1.5-1.3-1.5-2.1-.1zM543.5 378c-1.6.7-1.7.9-.3.9.9.1 2-.4 2.3-.9.7-1.1.7-1.1-2 0zM550.4 377.8c.4.3 1.4.7 2.2.8.9.1 1.3 0 1-.4-.4-.3-1.4-.7-2.2-.8-.9-.1-1.3 0-1 .4zM531.5 379c-.4.6-1.1.8-1.6.5-.5-.4-.9-.1-.9.4 0 1.6 1.6 1.3 3-.4.7-.8 1-1.5.7-1.5-.3 0-.9.5-1.2 1zM167 380c0 .5.5 1 1 1 .6 0 1-.5 1-1 0-.6-.4-1-1-1-.5 0-1 .4-1 1zM519 380c0 .6.7 1 1.5 1s1.5-.2 1.5-.4-.7-.6-1.5-1c-.8-.3-1.5-.1-1.5.4zM534.6 380.2c.3.4.9.8 1.5.8.5 0 .9-.4.9-.8 0-.5-.7-.9-1.5-.9s-1.2.4-.9.9zM137.5 382c-.3.5-.1 1 .4 1 .6 0 1.1-.5 1.1-1 0-.6-.2-1-.4-1-.3 0-.8.4-1.1 1zM163.5 381.9c-.9 1.5 1.5 2.5 2.8 1.2.9-.9.7-1-.7-.5-1.3.5-1.7.4-1.2-.4.4-.7.5-1.2.2-1.2s-.7.4-1.1.9zM173.9 381.7c-.1.5 0 1.6.1 2.7.1 1.2-.2 1.6-1.1 1.1-.8-.5-1-.4-.5.4 1.1 1.7 2.8.1 2.3-2.1-.4-1.4-.2-1.8.9-1.4.9.3 1.2.1.9-.4-.7-1.2-2.4-1.3-2.6-.3zM516.4 381.9c1.7.7 1.7.8.2 2.4-1 .9-1.3 1.7-.7 1.7 1.3 0 3.2-3.5 2.4-4.4-.3-.3-1.3-.6-2.2-.5-1.2 0-1.2.2.3.8zM523 382c0 .5.5 1 1 1 .6 0 1-.5 1-1 0-.6-.4-1-1-1-.5 0-1 .4-1 1zM539.8 383.2c.2 1 .6 1.8.7 1.8.1 0 .5-.8.7-1.8.3-1.1 0-1.9-.7-1.9s-1 .8-.7 1.9zM565.4 384c0 1.6.3 2.7.6 2.5.8-.5.6-4.2-.1-5-.3-.2-.5.8-.5 2.5zM168.6 383.7c-.8 2 .9 4 1.9 2.2.6-.8.4-1-.5-.4-.9.5-1 .2-.5-1.4.8-2.5 0-2.9-.9-.4zM178 383.5c0 .8.4 1.5 1 1.5.5 0 .7-.7.4-1.5-.4-.8-.8-1.5-1-1.5-.2 0-.4.7-.4 1.5zM528.1 383.7c-.1 2.5 1.4 3.9 2.5 2.2.4-.7.3-.9-.4-.5-.6.3-1.2-.3-1.5-1.6-.4-2.3-.4-2.3-.6-.1zM533.2 382.9c-1.1.7-1.1.9 0 1.4.9.3 1.5-.1 1.5-.9s-.1-1.4-.1-1.4c-.1 0-.7.4-1.4.9zM537.4 384c0 1.3.4 1.6 1 1 .7-.7.7-1.3 0-2-.6-.6-1-.3-1 1zM545.5 383c-.4.6-1.2.7-1.8.4-.7-.4-.9-.4-.5.1.4.4.2 1.5-.4 2.4-1 1.2-.7 1.2.8-.2 1.1-.9 2.3-1.5 2.6-1.2.2.3.5-.2.5-1 0-1.8-.3-1.9-1.2-.5zM555 382.4c0 .2.8 1 1.8 1.7 1.5 1.3 1.6 1.2.3-.4s-2.1-2.1-2.1-1.3zM161 383.9c0 .6.4 1.3 1 1.6.6.3.7-.1.4-.9-.7-1.8-1.4-2.1-1.4-.7zM183 384c.8.5 2 1 2.5 1 .6 0 .3-.5-.5-1s-1.9-1-2.5-1c-.5 0-.3.5.5 1zM505.2 385c.7 1.1 1.7 2 2.2 2 .5 0 .1-.9-.9-2s-2-2-2.2-2c-.2 0 .2.9.9 2z"/><path d="M513 385c-.6 1.1-.9 2-.8 2 .2 0 1.1-.9 2.1-2 .9-1.1 1.3-2 .7-2-.5 0-1.4.9-2 2zM519.5 384c-.8 1.3.4 3.2 1.5 2.5.5-.3.8.4.7 1.5-.1 1.5-.6 1.9-2.2 1.5-1.8-.5-1.8-.5-.2.5.9.6 2.1.9 2.6.6 1.3-.8.7-5.1-.7-4.9-1.6.4-1.6-1.4.1-2 .9-.4.9-.6 0-.6-.6-.1-1.5.3-1.8.9zM158.7 385.3c-.3.8.1 1.4.8 1.4.7 0 1.1-.6.8-1.4-.3-.7-.6-1.3-.8-1.3-.2 0-.5.6-.8 1.3zM163.6 386.7c-.6 1.4-.5 1.5.5.6.7-.7 1-1.5.7-1.8-.3-.3-.9.2-1.2 1.2zM174.6 388.2c-.9 1.8-1.1 2.5-.3 1.6.8-1 1.6-1.6 1.8-1.3.3.2.5-.5.6-1.5.2-2.7 0-2.5-2.1 1.2zM181.5 386c.3.5 1.4 1 2.3 1 1.5 0 1.5-.2.2-1-2-1.3-3.3-1.3-2.5 0zM525 387c-.6 1.1-.8 2-.6 2 .3 0 1-.9 1.6-2 .6-1.1.8-2 .6-2-.3 0-1 .9-1.6 2zM511.5 388.5c1.6 1.3 3.2 2.1 3.5 1.8.3-.3-.1-.8-.8-1-.7-.3-1.9-1.1-2.6-1.9-.8-.8-1.8-1.4-2.3-1.4-.4.1.5 1.2 2.2 2.5zM544.9 387.7c-1.3 1.6-1.2 1.7.4.4.9-.7 1.7-1.5 1.7-1.7 0-.8-.8-.3-2.1 1.3zM549.3 387.5c0 .8.4 1.5.9 1.5.4 0 .8-.4.8-.9 0-.6-.4-1.2-.8-1.5-.5-.3-.9.1-.9.9zM134.6 388.2c.3.5 1 .6 1.5.3 1.3-.9 1.1-1.2-.6-1.2-.8 0-1.2.4-.9.9zM147.4 388.2c-.4.7-.4 1 .1.6.4-.4 1.5-.2 2.4.5 1.4 1.1 1.4 1 .2-.6-1.6-2-1.8-2.1-2.7-.5zM171.4 387.8c.3.5 0 1.3-.6 1.5-.9.4-1 .6-.1.6 1.7.1 2.5-1.6 1.2-2.5-.7-.4-.9-.3-.5.4zM178.8 387.7c.7.3 1.6.2 1.9-.1.4-.3-.2-.6-1.3-.5-1.1 0-1.4.3-.6.6z"/><path d="M514 387.5c0 .8 2.9 1.2 3.9.5.9-.5.4-.8-1.3-.8-1.4 0-2.6.2-2.6.3zM535.6 388.6c-.8 2-.8 2.4.2 2.4.4 0 .8-.9.9-2 .2-2.4-.3-2.6-1.1-.4zM570 388c-.8.5-1 1-.5 1 .6 0 1.7-.5 2.5-1s1.1-1 .5-1c-.5 0-1.7.5-2.5 1zM131.3 389.5c0 .8.4 1.2.9.9.5-.3.6-1 .3-1.5-.9-1.3-1.2-1.1-1.2.6zM509 389.8c.6 1.3 1.4 2.1 1.8 1.8.3-.4-.2-1.4-1.2-2.4-1.8-1.6-1.8-1.6-.6.6zM177.3 390.6c-.3.8-.9 1.1-1.4.8-.5-.3-.9 0-.9.5 0 1.5 2 1.4 2.6-.2.2-.7 1.4-1.3 2.5-1.4 2-.2 2-.1.3 1.8-.9 1-1.5 2.1-1.2 2.4.3.3 1.3-.6 2.2-2 .9-1.4 1.5-2.6 1.4-2.6-1.7-.8-5.1-.3-5.5.7zM524.4 390.6c-1.8 1.4-1.8 1.5.4.4 1.2-.6 2.2-1.3 2.2-1.5 0-.8-.5-.6-2.6 1.1zM542.7 390.1c.7.7 1.5 1 1.8.7.3-.3-.2-.9-1.2-1.2-1.4-.6-1.5-.5-.6.5zM153.7 391c.7.8 2 1.5 2.9 1.6.9.1 1.3-.1.9-.4-.4-.4-1-.7-1.3-.7-.4 0-1.4-.4-2.2-.9-1.2-.7-1.3-.6-.3.4zM184.7 391.6c.3.7.9 1.4 1.4 1.4 1.4 0 1-1.7-.5-2.3-1-.4-1.3-.1-.9.9zM515.2 391.6c-.7.8-.8 1.4-.3 1.4 1 0 2.5-1.9 2-2.5-.2-.1-1 .3-1.7 1.1zM551.7 390.7c-1 .9-.9 2.3.1 2.3.5 0 .9-.7.9-1.5 0-1.7-.1-1.8-1-.8zM138.5 392c-.3.6.1.7.9.4 1.8-.7 2.1-1.4.7-1.4-.6 0-1.3.4-1.6 1zM142.5 392c-.3.6.1.7.9.4 1.8-.7 2.1-1.4.7-1.4-.6 0-1.3.4-1.6 1zM161 391.4c0 .2.7.7 1.6 1 .8.3 1.2.2.9-.4-.6-1-2.5-1.4-2.5-.6zM517.7 392.5c-.6 1.5 1 3.2 2 2.1.4-.3.1-.6-.5-.6s-.9-.7-.6-1.5c.4-.8.4-1.5.1-1.5-.3 0-.7.7-1 1.5zM529.6 392.2c.3.5 1 .6 1.5.3 1.3-.9 1.1-1.2-.6-1.2-.8 0-1.2.4-.9.9z"/><path d="M183 392.7c0 .6.7 1.6 1.5 2.3 1.7 1.4 2.1 3.5.5 2.5-1.5-.9-2.3 2.1-1.1 4.2.9 1.5 1 1.3.5-1.1-.5-2-.3-2.7.4-2.2.6.4 1.6-.4 2.3-1.6.7-1.3 1.7-2.6 2.3-3 .8-.6.7-.8-.1-.8-.7 0-1.6.7-2.1 1.6-.8 1.4-1.1 1.4-2.6-.7-.9-1.3-1.6-1.8-1.6-1.2zM565.3 393.5c0 .8.4 1.2.9.9.5-.3.6-1 .3-1.5-.9-1.3-1.2-1.1-1.2.6zM173.5 394c.5.9.1 1-1.6.6-2.1-.6-2.2-.6-.6.5 1.3.7 2.2.8 2.9.1.6-.6.6-1.2-.3-1.7-.8-.6-1-.4-.4.5zM511.6 393.7c.6.4 1.4 1.5 1.7 2.3.5 1.1.6.9.4-.4-.1-1.1-.9-2.1-1.7-2.3-1-.3-1.1-.2-.4.4zM521.5 394c-.3.5-.3 1 .2 1 .4 0 .1.5-.7 1-1.1.7-1.1 1-.2 1 .7 0 1 .5.6 1.2-.4.6-.3.8.4.5.5-.4.9-1.5.8-2.5-.2-.9.4-2 1.3-2.4 1.4-.6 1.4-.7-.1-.7-.9-.1-2 .3-2.3.9zM526.8 393.7c.7.3 1.6.2 1.9-.1.4-.3-.2-.6-1.3-.5-1.1 0-1.4.3-.6.6zM158.2 395.6c1 1 2 1.6 2.2 1.3.3-.3-.5-1.1-1.7-1.8-2.1-1.3-2.1-1.2-.5.5z"/><path d="M177.3 396c.1 1.4.8 2.4 1.5 2.3.7-.2 1.1.6.9 2-.1 1.3.3 2.1 1.1 1.9.6-.1 1.2.7 1.2 1.7 0 1.4-.5 1.8-1.9 1.4-2.4-.6-3.1.6-2 3.2.9 1.8.9 1.8.5-.3-.4-1.9-.1-2.2 1.7-2 1.8.2 2.2-.2 2.2-2.2 0-1.5-.5-2.4-1.2-2.3-1.7.4-1.6-.9.2-3.3 1.7-2.3 1.9-3.4.5-3.4-.5 0-.9.5-.7 1.2.4 2.1-2.8 1.4-3.5-.7-.6-1.7-.7-1.6-.5.5zM516.2 395.6c1 1 2 1.6 2.2 1.3.3-.3-.5-1.1-1.7-1.8-2.1-1.3-2.1-1.2-.5.5zM537 395c-.9.6-1 1-.3 1 .6 0 1.5-.5 1.8-1 .8-1.2.4-1.2-1.5 0zM541.9 395.3c.8.9 1.6 1.5 1.9 1.2.3-.3 1.2.1 2.1.8 1.4 1.1 1.4 1 .2-.6-.8-.9-1.6-1.5-1.9-1.2-.3.3-1.2-.1-2.1-.8-1.4-1.1-1.4-1-.2.6zM116 396c-.9.6-1 1-.3 1 .6 0 1.5-.5 1.8-1 .8-1.2.4-1.2-1.5 0zM149.6 395.8c-.3.5.1.9.9.9s1.2-.4.9-.9c-.3-.4-.7-.8-.9-.8-.2 0-.6.4-.9.8zM167.6 395.8c-.3.4.4.9 1.5.9 2.3.2 2.5-.3.4-1-.8-.4-1.6-.3-1.9.1zM524.5 396c-.3.6.1.7.9.4 1.8-.7 2.1-1.4.7-1.4-.6 0-1.3.4-1.6 1zM551 395.4c0 .2.7.7 1.6 1 .8.3 1.2.2.9-.4-.6-1-2.5-1.4-2.5-.6zM558.6 395.8c-.3.5.1.9.9.9s1.5-.4 1.5-.9c0-.4-.4-.8-.9-.8-.6 0-1.2.4-1.5.8zM155.3 397.3c0 .8.6 1.4 1.4 1.4.9 0 1-.4.2-1.4-.6-.7-1.2-1.3-1.4-1.3-.1 0-.2.6-.2 1.3zM531.6 396.9c-.3.5.1 1.1.9 1.4.9.4 1.2.1.8-.9-.6-1.6-1-1.7-1.7-.5zM539.3 397.3c0 .8.6 1.4 1.4 1.4.9 0 1-.4.2-1.4-.6-.7-1.2-1.3-1.4-1.3-.1 0-.2.6-.2 1.3zM137 398.1c0 .5.5.7 1 .4.6-.3 1-.8 1-1.1 0-.2-.4-.4-1-.4-.5 0-1 .5-1 1.1zM145.6 398.2c.3.5 1 .6 1.5.3 1.3-.9 1.1-1.2-.6-1.2-.8 0-1.2.4-.9.9zM514.5 398.1c-.5.8-.4 1 .3.5.8-.5 1.2.1 1.3 1.6.1 1.8.2 1.9.6.4.6-2.3-1.2-4.3-2.2-2.5zM527 397.9c0 .6.4 1.3 1 1.6.6.3.7-.1.4-.9-.7-1.8-1.4-2.1-1.4-.7zM535.6 397.8c-.3.5.1.9.9.9s1.2-.4.9-.9c-.3-.4-.7-.8-.9-.8-.2 0-.6.4-.9.8zM565.3 398.5c0 .8.4 1.2.9.9.5-.3.6-1 .3-1.5-.9-1.3-1.2-1.1-1.2.6zM162 398.9c0 .6.4 1.3 1 1.6.6.3.7-.1.4-.9-.7-1.8-1.4-2.1-1.4-.7zM171.3 399.5c0 .7.6 1.1 1.4.8.7-.3 1.3-.6 1.3-.8 0-.2-.6-.5-1.3-.8-.8-.3-1.4.1-1.4.8zM175.3 400.1c-.2 2.3.3 2.5 1 .4.4-.8.3-1.6-.1-1.9-.4-.3-.9.4-.9 1.5zM519.2 400c0 1.4.2 1.9.5 1.2.2-.6.2-1.8 0-2.5-.3-.6-.5-.1-.5 1.3zM525 398.9c0 .7-.4 1-.8.7-.4-.2-.9.5-.9 1.6-.2 2.1-.2 2.1 1.4-.1.8-1.2 1.2-2.5.9-2.8-.3-.4-.6-.1-.6.6zM186.5 400c-.3.5-.2 1 .4 1 .5 0 1.3-.5 1.6-1 .3-.6.2-1-.4-1-.5 0-1.3.4-1.6 1zM544 400.5c-.7.8-.9 1.5-.5 1.5.5 0 0 1-1.1 2.2l-1.9 2.3 2.3-1.9c1.2-1.1 2-2.1 1.7-2.4-.3-.3 0-1.1.6-1.9.6-.7.9-1.3.6-1.3-.2 0-1 .7-1.7 1.5zM551.9 400.7c-1.3 1.6-1.2 1.7.4.4.9-.7 1.7-1.5 1.7-1.7 0-.8-.8-.3-2.1 1.3zM559.6 400.2c.3.5 1 .6 1.5.3 1.3-.9 1.1-1.2-.6-1.2-.8 0-1.2.4-.9.9zM137 402.1c0 .5.5.7 1 .4.6-.3 1-.8 1-1.1 0-.2-.4-.4-1-.4-.5 0-1 .5-1 1.1zM189 402.1c0 .5-.4.8-.9.5-1.2-.8-3.4 2.1-2.6 3.4.3.6 1 .8 1.5.5.4-.3 1.1.2 1.4 1.1.9 2.4.7 2.7-.9 1.4-1.3-1.1-1.4-1-.9.4.8 2.2 2.1 2 3.5-.5.6-1.2.7-1.9.1-1.5-.5.3-1.3-.1-1.6-1-.3-.8-1-1.2-1.6-.9-.5.3-1 .2-1-.4 0-1.8 1.7-2.1 3-.6.7.8 2 1.5 2.9 1.4 1 0 .8-.4-.8-1-1.9-.8-2.1-1.2-1.1-2.4.9-1 .9-1.5.1-1.5-.6 0-1.1.5-1.1 1.1zM525.5 402c-.7 1.1 2.2 2.6 3.2 1.6.4-.3-.1-.6-1.1-.6-.9 0-1.4-.5-1.1-1 .3-.6.4-1 .1-1-.3 0-.8.5-1.1 1zM539.5 401.8c.3.3-.1 1.2-.7 2.1-.8 1-.4.9 1-.3 2.6-2.3 2.6-2.3.7-2.3-.8 0-1.3.3-1 .5zM151.5 403c-.4.6-1.2.7-1.8.4-.7-.4-.8-.3-.4.1 1.3 1.5 3.4 1.4 3.4-.1 0-1.7-.4-1.8-1.2-.4zM156.9 403.7c-1.3 1.6-1.2 1.7.4.4.9-.7 1.7-1.5 1.7-1.7 0-.8-.8-.3-2.1 1.3z"/><path d="M191.5 403c-.3.5-.1 1 .4 1 .6 0 1.1-.5 1.1-1 0-.6-.2-1-.4-1-.3 0-.8.4-1.1 1zM131.5 404c.3.5.8 1 1.1 1 .2 0 .4-.5.4-1 0-.6-.5-1-1.1-1-.5 0-.7.4-.4 1zM167 404.2c0 .4.4.8.9.8.6 0 1.2-.4 1.5-.8.3-.5-.1-.9-.9-.9s-1.5.4-1.5.9zM175 404.4c.4.4 1.6.4 2.6-.2 1.6-.9 1.4-1-.8-.9-1.5.1-2.3.6-1.8 1.1zM550.4 403.8c.4.3 1.4.7 2.2.8.9.1 1.3 0 1-.4-.4-.3-1.4-.7-2.2-.8-.9-.1-1.3 0-1 .4zM558.6 403.8c-.2.4.4.8 1.4.8 1 0 1.6-.4 1.4-.8-.3-.4-.9-.8-1.4-.8-.5 0-1.1.4-1.4.8zM523 405c0 .5.5 1 1.1 1 .5 0 .7-.5.4-1-.3-.6-.8-1-1.1-1-.2 0-.4.4-.4 1zM159 406.2c0 .4.4.8.9.8.6 0 1.2-.4 1.5-.8.3-.5-.1-.9-.9-.9s-1.5.4-1.5.9zM172.5 406c-.3.5-.1 1.8.5 2.7.9 1.5 1 1.4.4-.6-.4-1.7-.3-2.1.6-1.6.9.5 1.1.4.6-.3-.9-1.5-1.3-1.5-2.1-.2zM546.7 406.1c.7.7 1.5 1 1.8.7.3-.3-.2-.9-1.2-1.2-1.4-.6-1.5-.5-.6.5zM165.5 407.1c-.4.6-.5 1.2-.2 1.5.2.3.7-.2 1-1.1.7-1.7.1-2-.8-.4zM534.1 407.2c.9.7 1.4 2.3 1.3 3.6-.2 1.2 0 2.2.5 2.2s.8-.8.6-1.8c-.1-.9.5-2.6 1.3-3.7.9-1.1 1-1.5.3-.8-1 .9-2 .9-3.5.2-1.8-.9-1.9-.8-.5.3zM522.6 408.5c1 .8 2.3 1.5 2.8 1.5.6 0 .1-.7-1-1.5-1-.8-2.3-1.5-2.8-1.5-.6 0-.1.7 1 1.5zM564 408c-.9.6-1 1-.3 1 .6 0 1.5-.5 1.8-1 .8-1.2.4-1.2-1.5 0zM527.5 408.9c-.6 1.1 1.3 2.6 2.2 1.7.4-.3.1-.6-.6-.6s-.9-.5-.6-1c.3-.6.4-1 .1-1-.3 0-.7.4-1.1.9zM547.3 409.5c0 .8.4 1.2.9.9.5-.3.6-1 .3-1.5-.9-1.3-1.2-1.1-1.2.6zM145 410.1c0 .5.5.7 1 .4.6-.3 1-.8 1-1.1 0-.2-.4-.4-1-.4-.5 0-1 .5-1 1.1zM175 410c0 .5.5 1 1 1 .6 0 1-.5 1-1 0-.6-.4-1-1-1-.5 0-1 .4-1 1zM183.2 410.2c.2.6 1 1.3 1.6 1.4.7.1.8 0 .2-.3-.5-.2-.8-.9-.4-1.4.3-.5 0-.9-.6-.9-.7 0-1 .5-.8 1.2zM191.5 410.1c.3.4-.2 1-1.1 1.3-.8.3-1.2 1-.9 1.6.3.5.2 1-.4 1-.5 0-1.2-.5-1.4-1-.3-.6-.4-.5-.3.2.2.7.9 1.3 1.7 1.3.8 0 1.3-.6 1.1-1.4-.2-.9.3-1.1 1.3-.7.9.3 1.3.2 1-.4-.3-.6-.1-1 .4-1 .6 0 1.1-.4 1.1-.8 0-.5-.7-.9-1.5-.9s-1.2.4-1 .8zM520.5 409.8c-.5.4-1.1 1.4-1.3 2.2-.2 1.2.1 1.1 1.1-.2.8-1 1.8-1.4 2.2-1 .5.4.5.1.1-.6-.8-1.4-.8-1.4-2.1-.4z"/><path d="M532 410c-.9.6-1 1-.3 1 .6 0 1.5-.5 1.8-1 .8-1.2.4-1.2-1.5 0zM160.9 411.7c-1.3 1.6-1.2 1.7.4.4.9-.7 1.7-1.5 1.7-1.7 0-.8-.8-.3-2.1 1.3zM165.7 411.1c.7.7 1.5 1 1.8.7.3-.3-.2-.9-1.2-1.2-1.4-.6-1.5-.5-.6.5zM181 411.5c0 .8.4 1.5 1 1.5.5 0 .7-.7.4-1.5-.4-.8-.8-1.5-1-1.5-.2 0-.4.7-.4 1.5zM150.7 412.1c.7.7 1.5 1 1.8.7.3-.3-.2-.9-1.2-1.2-1.4-.6-1.5-.5-.6.5zM170.7 412.9c-.3 1.3-.1 1.8.9 1.4.7-.2 1-1.1.7-1.9-.7-1.9-1-1.8-1.6.5zM178 412c-.9.6-1 1-.3 1 .6 0 1.5-.5 1.8-1 .8-1.2.4-1.2-1.5 0zM523.5 412c-.3.5-.1 1 .4 1 .6 0 1.1-.5 1.1-1 0-.6-.2-1-.4-1-.3 0-.8.4-1.1 1zM547.9 412.7c-1.3 1.6-1.2 1.7.4.4 1.6-1.3 2.1-2.1 1.3-2.1-.2 0-1 .8-1.7 1.7zM561.5 412c-.3.5-.1 1 .4 1 .6 0 1.1-.5 1.1-1 0-.6-.2-1-.4-1-.3 0-.8.4-1.1 1zM163.1 413.3c-.8 1-.7 1.4.2 1.4.8 0 1.4-.6 1.4-1.4 0-.7-.1-1.3-.2-1.3-.2 0-.8.6-1.4 1.3zM155.3 414.5c0 .8.4 1.2.9.9.5-.3.6-1 .3-1.5-.9-1.3-1.2-1.1-1.2.6zM158.7 414.1c.7.7 1.5 1 1.8.7.3-.3-.2-.9-1.2-1.2-1.4-.6-1.5-.5-.6.5zM525.6 413.8c-.6 1.1.6 2.6 2.4 3 .8.2 1.2 0 .8-.4-.4-.4-.2-1.4.4-2.3 1-1.3 1-1.4-.2-.4-1.7 1.5-3.4 1.7-2.5.3.3-.6.4-1 .1-1-.3 0-.7.4-1 .8zM179.6 415.5c1 .8 2.3 1.5 2.8 1.5.6 0 .1-.7-1-1.5-1-.8-2.3-1.5-2.8-1.5-.6 0-.1.7 1 1.5zM138 415.5c0 .2.6.8 1.3 1.4 1 .8 1.4.7 1.4-.2 0-.8-.6-1.4-1.4-1.4-.7 0-1.3.1-1.3.2zM150.5 416c-.3.6.1.7.9.4 1.8-.7 2.1-1.4.7-1.4-.6 0-1.3.4-1.6 1zM172 416c-.9.6-1 1-.3 1 .6 0 1.5-.5 1.8-1 .8-1.2.4-1.2-1.5 0zM185 416c0 .5.5 1 1 1 .6 0 1-.5 1-1 0-.6-.4-1-1-1-.5 0-1 .4-1 1zM191.4 415.9c.3.5 0 1.1-.8 1.4-.7.3-1.3 1.5-1.2 2.8.1 1.5.8 2.3 2.6 2.6 1.8.2 2.1.1 1-.6-.8-.5-1.7-.8-2.1-.5-.4.2-.7-.5-.6-1.6.1-1.3.6-1.9 1.5-1.5.7.2 1.1.1.7-.4-.3-.5 0-1.1.7-1.3.7-.3.5-.7-.6-1.1-.9-.4-1.5-.3-1.2.2zM195.4 416.2c-.4.7-.3.8.4.4s1.2-.2 1.2.3c0 .6.4 1.1 1 1.1.5 0 .7-.7.4-1.5-.7-1.8-2-1.9-3-.3zM199.6 416.5c.4.8.8 1.5 1 1.5.2 0 .4-.7.4-1.5s-.4-1.5-1-1.5c-.5 0-.7.7-.4 1.5zM520 415.9c0 .5.7 1.1 1.4 1.4 1 .4 1.3.1.9-.9-.6-1.5-2.3-1.9-2.3-.5zM547.6 416.7c-.6 1.4-.5 1.5.5.6.7-.7 1-1.5.7-1.8-.3-.3-.9.2-1.2 1.2zM551 416c0 .5.5 1 1.1 1 .5 0 .7-.5.4-1-.3-.6-.8-1-1.1-1-.2 0-.4.4-.4 1zM160 418c-.9.6-1 1-.3 1 .6 0 1.5-.5 1.8-1 .8-1.2.4-1.2-1.5 0zM163.3 419.3c-.1 1.1-.1 1.8 0 1.6.2-.2.8-1.1 1.5-2 .9-1.2.9-1.6-.1-1.6-.7 0-1.4.9-1.4 2zM174.7 418.7c.4 1 .2 1.4-.4 1-.5-.3-1 0-1 .8 0 1 .4 1.2 1.2.5.7-.5 1.5-.6 2-.2.4.4.2-.3-.4-1.6-1.4-2.6-2.3-3-1.4-.5zM557.4 418.4c.1.8.5 1.8.8 2.2.4.3.5-.1.4-1-.1-.8-.5-1.8-.8-2.2-.4-.3-.5.1-.4 1zM169.6 419.3c.3 1 .9 1.5 1.2 1.2.3-.3 0-1.1-.7-1.8-1-.9-1.1-.8-.5.6zM179.5 419c.3.5.8 1 1.1 1 .2 0 .4-.5.4-1 0-.6-.5-1-1.1-1-.5 0-.7.4-.4 1zM183.4 418.9c.4.5.1 1.2-.4 1.4-.6.3-.5.4.2.3 1.5-.3 2.3-2.6.8-2.6-.6 0-.9.4-.6.9zM187.1 419.6c0 1.1.3 1.4.6.6.3-.7.2-1.6-.1-1.9-.3-.4-.6.2-.5 1.3z"/><path d="M193.7 419.4c-.4.9-.3 1.5.2 1.1.5-.3 1.1 0 1.3.7.3.7.7.5 1.1-.6.4-.9.3-1.5-.2-1.1-.5.3-1.1 0-1.3-.7-.3-.7-.7-.5-1.1.6zM532.4 419.8c2.3 2.6 2.3 2.6 2.3.7 0-.8-.3-1.3-.5-1-.3.3-1.2-.1-2.1-.7-1-.8-.9-.4.3 1zM154 419.4c0 .2.8 1 1.8 1.7 1.5 1.3 1.6 1.2.3-.4s-2.1-2.1-2.1-1.3zM165.9 420.7c-1.2 1.6-1.2 1.7.2.6.9-.7 2-.9 2.4-.5.5.4.5.1.1-.6-.9-1.6-1.1-1.5-2.7.5zM198.8 419.7c.7.3 1.6.2 1.9-.1.4-.3-.2-.6-1.3-.5-1.1 0-1.4.3-.6.6zM523.3 420.5c0 .8.6 1.6 1.3 1.9.7.3 1-.2.7-1.5-.6-2.2-2-2.6-2-.4zM198.1 422.6c1.2 1.5 1.1 1.6-1.1 1-2.1-.6-2.2-.5-.7.4.9.6 2.2.8 2.8.4.8-.4.9.1.5 1.7-.6 2-.5 2.1.4.7 1.1-1.8-.5-5.8-2.4-5.8-.4 0-.2.7.5 1.6zM200.5 422c.3.5.8 1 1.1 1 .2 0 .4-.5.4-1 0-.6-.5-1-1.1-1-.5 0-.7.4-.4 1zM531.3 422.6c1.6 2 5.2 3 4.1 1.2-.4-.5-.9-.7-1.2-.4-.3.3-1.5-.2-2.6-1.1-2.1-1.8-2.1-1.8-.3.3zM151 422.4c0 .2.8 1 1.8 1.7 1.5 1.3 1.6 1.2.3-.4s-2.1-2.1-2.1-1.3zM169.5 423.1c-.4.6-.5 1.2-.2 1.5.2.3.7-.2 1-1.1.7-1.7.1-2-.8-.4zM187.7 424.1c.4 1.3.8 1.8 1.1 1 .2-.7-.1-1.8-.6-2.3-.8-.8-.9-.4-.5 1.3zM165 423.9c0 .6.4 1.3 1 1.6.6.3.7-.1.4-.9-.7-1.8-1.4-2.1-1.4-.7zM183.9 424c-.1.5-.2 1.4-.3 1.9 0 .5-.4 1.3-.8 1.7-.5.4-.8 1.2-.8 1.8.1 1 2.4-2.2 2.5-3.4 0-.3.4-1.1.8-1.8.5-.7.4-1.2-.2-1.2-.6 0-1.2.4-1.2 1zM179.5 425c-.3.6.1.7.9.4 1.8-.7 2.1-1.4.7-1.4-.6 0-1.3.4-1.6 1zM191 425.1c0 .5.5.7 1 .4.6-.3 1-.8 1-1.1 0-.2-.4-.4-1-.4-.5 0-1 .5-1 1.1zM553.5 426.1c-.3.4.2.6 1 .5 2.1-.3 2.8-1.3 1-1.3-.9 0-1.8.4-2 .8zM169.3 427.6c0 .8.3 1.2.5.9.3-.3 1.1 0 1.9.7.7.6 1.5.9 1.7.7.2-.2-.6-1.2-1.8-2.1-1.8-1.3-2.3-1.4-2.3-.2zM533 426.4c0 .2.8 1 1.8 1.7 1.5 1.3 1.6 1.2.3-.4s-2.1-2.1-2.1-1.3zM537.7 426.7c-1 .9-.9 2.3.1 2.3.5 0 .9-.7.9-1.5 0-1.7-.1-1.8-1-.8zM145.9 427.2c-.5 1.8-.6 3.8-.1 3.4.7-.8 1.2-3.6.6-3.6-.2 0-.4.1-.5.2zM163 428c0 .4.7.7 1.5.6 2.3-.3 2.6-1.2.5-1.3-1.1-.1-2 .2-2 .7zM175.1 427.5c.4.3 1.9.8 3.5 1.1 1.6.3 2.6.2 2.3-.1-.4-.3-1.9-.8-3.5-1.1-1.6-.3-2.6-.2-2.3.1zM189 428c0 .5.5 1 1 1 .6 0 1-.5 1-1 0-.6-.4-1-1-1-.5 0-1 .4-1 1zM529.9 428.7c-1.3 1.6-1.2 1.7.4.4.9-.7 1.7-1.5 1.7-1.7 0-.8-.8-.3-2.1 1.3zM175.3 430.5c0 .8.4 1.2.9.9.5-.3.6-1 .3-1.5-.9-1.3-1.2-1.1-1.2.6zM195.4 431.4c.4 2.3.2 2.7-1.2 2.1-1.3-.5-1.4-.3-.5.6.6.6 1.6.8 2.2.5 1-.6.7-4.3-.4-5.5-.4-.3-.4.7-.1 2.3zM169.4 432c0 1.3.4 1.6 1 1 .7-.7.7-1.3 0-2-.6-.6-1-.3-1 1zM187.2 430.7c-.6.2-1 .9-.6 1.4.8 1.4 2.1 1.1 2.1-.6 0-.8-.1-1.5-.1-1.4-.1 0-.7.3-1.4.6z"/><path d="M191 431c0 .6.7 1 1.5 1s1.5-.2 1.5-.4-.7-.6-1.5-1c-.8-.3-1.5-.1-1.5.4zM535.5 432c.3.5.8 1 1.1 1 .2 0 .4-.5.4-1 0-.6-.5-1-1.1-1-.5 0-.7.4-.4 1zM179.7 433.3c-.3.8.1 1.4.8 1.4.7 0 1.1-.6.8-1.4-.3-.7-.6-1.3-.8-1.3-.2 0-.5.6-.8 1.3zM175.3 435c.1 1.1.5 2 .9 2 .3 0 .6-.9.5-2-.1-1.1-.5-2-.9-2-.3 0-.6.9-.5 2zM549.4 433.8c.4.3 1.4.7 2.2.8.9.1 1.3 0 1-.4-.4-.3-1.4-.7-2.2-.8-.9-.1-1.3 0-1 .4zM555.6 434.7c-.6 1.4-.5 1.5.5.6.7-.7 1-1.5.7-1.8-.3-.3-.9.2-1.2 1.2zM145.5 436c.3.5.8 1 1.1 1 .2 0 .4-.5.4-1 0-.6-.5-1-1.1-1-.5 0-.7.4-.4 1zM162 435.5c0 .2.6.8 1.3 1.4 1 .8 1.4.7 1.4-.2 0-.8-.6-1.4-1.4-1.4-.7 0-1.3.1-1.3.2zM167.5 435.9c.3.2-.1 1.1-.7 2-.7.9-.2.7 1.1-.4s2.5-1.8 2.6-1.5c.2.3.6.3.9-.1.3-.3-.6-.5-1.9-.5-1.3 0-2.2.2-2 .5zM190.8 435.7c.7.3 1.6.2 1.9-.1.4-.3-.2-.6-1.3-.5-1.1 0-1.4.3-.6.6zM187.5 437c-.3.5-.1 1 .4 1 .6 0 1.1-.5 1.1-1 0-.6-.2-1-.4-1-.3 0-.8.4-1.1 1zM192 438.5c-.7.9-1 1.8-.7 2.2.4.3.9-.2 1.3-1.1.3-.9 1.1-1.3 1.7-.9.6.3.7.1.3-.5-.9-1.5-1.1-1.5-2.6.3zM155.6 439.3c.3 1 .9 1.5 1.2 1.2.3-.3 0-1.1-.7-1.8-1-.9-1.1-.8-.5.6zM145.6 439.8c-.3.5.1.9.9.9s1.2-.4.9-.9c-.3-.4-.7-.8-.9-.8-.2 0-.6.4-.9.8zM159 439.4c0 .2.7.7 1.6 1 .8.3 1.2.2.9-.4-.6-1-2.5-1.4-2.5-.6zM163.3 440.5c0 .8.4 1.2.9.9.5-.3.6-1 .3-1.5-.9-1.3-1.2-1.1-1.2.6zM169 439.4c0 .2.7.7 1.6 1 .8.3 1.2.2.9-.4-.6-1-2.5-1.4-2.5-.6zM184 440c1.8 1.2 3 1.3 3 .2 0-.4-1-.9-2.2-.9-1.8-.2-2 0-.8.7zM549.3 442.5c0 .8.4 1.2.9.9.5-.3.6-1 .3-1.5-.9-1.3-1.2-1.1-1.2.6zM165.6 444.7c-.6 1.4-.5 1.5.5.6.7-.7 1-1.5.7-1.8-.3-.3-.9.2-1.2 1.2zM179.1 445.3c-1.3 2.1-1.2 2.1.5.5 1-1 1.6-2 1.3-2.2-.3-.3-1.1.5-1.8 1.7zM188.6 444.2c.3.5 1 .6 1.5.3 1.3-.9 1.1-1.2-.6-1.2-.8 0-1.2.4-.9.9zM157 446c0 .5.5 1 1.1 1 .5 0 .7-.5.4-1-.3-.6-.8-1-1.1-1-.2 0-.4.4-.4 1zM183.9 445.7c-.1.5-.1 1.2 0 1.7.1.4-.3 1.4-.8 2-.8.9-.7 1.3.4 1.3.8 0 1.1-.5.8-1-.4-.6 0-.8.8-.5 1 .4 1.5-.1 1.7-1.5.1-1.7-.1-1.9-.8-.7-.9 1.4-1.4.7-1.1-1.3 0-.4-.1-.7-.4-.7-.3 0-.6.3-.6.7zM172.4 448.2l-1.9 2.3 2.3-1.9c2.1-1.8 2.7-2.6 1.9-2.6-.2 0-1.2 1-2.3 2.2zM188.6 447.7c-.6 1.4-.5 1.5.5.6.7-.7 1-1.5.7-1.8-.3-.3-.9.2-1.2 1.2zM153.4 449.8c.4.3 1.4.7 2.2.8.9.1 1.3 0 1-.4-.4-.3-1.4-.7-2.2-.8-.9-.1-1.3 0-1 .4zM167 449.4c0 .2.7.7 1.6 1 .8.3 1.2.2.9-.4-.6-1-2.5-1.4-2.5-.6zM179.5 450.9c-.3.5-.2 1.2.3 1.5.5.3.9-.1.9-.9 0-1.7-.3-1.9-1.2-.6zM163.6 452.2c.3.5 1 .6 1.5.3 1.3-.9 1.1-1.2-.6-1.2-.8 0-1.2.4-.9.9zM185.6 452.7c-.6 1.4-.5 1.5.5.6.7-.7 1-1.5.7-1.8-.3-.3-.9.2-1.2 1.2zM159 454.4c0 .2.8 1 1.8 1.7 1.5 1.3 1.6 1.2.3-.4s-2.1-2.1-2.1-1.3zM163 455.4c0 .2.7.7 1.6 1 .8.3 1.2.2.9-.4-.6-1-2.5-1.4-2.5-.6zM187 455.9c0 .6.4 1.2.8 1.5.5.3.9-.1.9-.9s-.4-1.5-.9-1.5c-.4 0-.8.4-.8.9zM157.4 458.2c-.4.7-.4 1 .1.6.4-.4 1.5-.2 2.4.5 1.4 1.1 1.4 1 .2-.6-1.6-2-1.8-2.1-2.7-.5zM185 458.4c0 .2.8 1 1.8 1.7 1.5 1.3 1.6 1.2.3-.4s-2.1-2.1-2.1-1.3zM180.5 460.1c-.3.4.2.6 1 .5 2.1-.3 2.8-1.3 1-1.3-.9 0-1.8.4-2 .8zM161.7 464.5c-.4.8-.3 1.6.1 1.9.4.3.9-.4.9-1.5.2-2.3-.3-2.5-1-.4zM167.3 468.5c0 .8.4 1.2.9.9.4-.3.8-.9.8-1.5 0-.5-.4-.9-.8-.9-.5 0-.9.7-.9 1.5zM171 467.4c0 .2.7.7 1.6 1 .8.3 1.2.2.9-.4-.6-1-2.5-1.4-2.5-.6zM158.9 475.7c-1.3 1.6-1.2 1.7.4.4.9-.7 1.7-1.5 1.7-1.7 0-.8-.8-.3-2.1 1.3zM177.5 482c-.3.5-.1 1 .4 1 .6 0 1.1-.5 1.1-1 0-.6-.2-1-.4-1-.3 0-.8.4-1.1 1zM167.5 484.9c-.3.5-.2 1.2.3 1.5.5.3.9-.1.9-.9 0-1.7-.3-1.9-1.2-.6zM179.4 489.8c.4.3 1.4.7 2.2.8.9.1 1.3 0 1-.4-.4-.3-1.4-.7-2.2-.8-.9-.1-1.3 0-1 .4zM183.5 498.1c-.3.4.2.6 1 .5 2.1-.3 2.8-1.3 1-1.3-.9 0-1.8.4-2 .8zM405.5 502.9c-.3.5.4.7 1.5.4 1.3-.3 2 0 2 .8 0 1.1.2 1.1 1-.1.8-1.3 1-1.2 1 .2 0 1 .5 1.8 1.1 1.8.5 0 .7.6.3 1.2-.5.9-.2.9.9-.1.9-.7 1.7-1.9 1.7-2.5 0-.6-.4-.5-.9.3-.7 1.1-1.1 1-1.9-.5-1.1-2-5.7-3-6.7-1.5zM398.6 506.5c-1.1.8-1.6 1.8-1.2 2.2.4.4 1.2 0 1.7-1 .6-.9 1.4-1.5 2-1.2.5.4.9.1.9-.4 0-1.5-1.1-1.3-3.4.4zM416.7 506.5c-1.5 1.1-1.7 1.7-.7 3.2 1 1.5 1.1 1.6.6.1-.3-1 .2-2.1 1.2-2.7.9-.5 1.5-1.2 1.2-1.4-.3-.3-1.3.1-2.3.8z"/><path d="M407 507.2c0 .6.3.9.6.5.3-.3 1.5.3 2.7 1.3 1.1 1.1 2.4 1.7 2.8 1.4.5-.3.8.5.6 1.8-.1 1.8.3 2.2 2.3 2.3 1.6 0 2.4-.5 2.2-1.4-.2-.9.3-1.1 1.3-.7.9.3 1.9.6 2.1.6.3 0 .2.5-.2 1.2-.4.6-.3.8.4.4.6-.3.9-1.5.7-2.6-.3-1.3.2-1.8 1.6-1.7 1 .1 1.9.7 1.9 1.4 0 1.6 1.6 1.7 2.6.1.4-.6.3-.8-.3-.5-.6.4-1.3.1-1.6-.7-.7-1.6-5.3-1.5-5 .2.2.7-.6 1.1-2 .9-1.2-.1-2.1.3-2 1 .2.6-.6 1.1-1.7 1-1.3-.1-1.8-.8-1.7-2.1.1-1.1-.3-2.1-.9-2.1-.6 0-1.8-.8-2.8-1.8-2-2-3.6-2.2-3.6-.5zM388 507.7c.8.3 1.9 1.2 2.3 2 .5.7 1.3 1 1.9.7.7-.5.9-.1.5.9-.6 1.6 2.5 4.7 4.8 4.7.5 0 .4-.4-.3-.9-1.1-.6-.8-1.3 1.1-2.8l2.5-2h-2.9c-1.6 0-2.5.4-1.8.8 1.3.8.4 2.9-1.3 2.9-.6 0-.8-.3-.5-.6.9-.9-1.2-4.6-2.2-3.9-.5.3-1.1-.2-1.5-1-.3-.8-1.3-1.5-2.3-1.4-1.4 0-1.5.2-.3.6zM480.6 507.8c-.3.5.1.9.9.9s1.2-.4.9-.9c-.3-.4-.7-.8-.9-.8-.2 0-.6.4-.9.8z"/><path d="M418.8 508.7c.7.3 1.6.2 1.9-.1.4-.3-.2-.6-1.3-.5-1.1 0-1.4.3-.6.6zM339.2 510.7c-.6 1.1-.7 2.5-.2 3.3.4.7.6 2 .3 2.9-.4 1.3-.3 1.4.5.2.7-.9.7-2.1.2-3.1-.6-1.1-.5-2.1.2-2.8.7-.7.9-1.4.6-1.8-.4-.3-1.1.3-1.6 1.3zM371 510c0 .5.5 1 1.1 1 .5 0 .7.4.4 1-.3.5-.2 1 .4 1 1.9 0 1.9-1.6 0-2.8-1.1-.7-1.9-.8-1.9-.2zM380.6 510.4c.4 1.1.2 2.1-.7 2.7-1 .6-1.1.9-.1.9 1.8 0 2.7-2.9 1.3-4.3-.9-.9-1.1-.8-.5.7zM471.4 510.7c1.6 2 3.6 2.3 3.6.6 0-.4-.3-.3-.7 0-.3.4-1.6-.1-2.7-1-2.1-1.8-2.1-1.8-.2.4zM402.1 511.2c-.1 2 1.4 2.4 2.5.6.4-.6.3-.8-.4-.4-.5.3-1.3 0-1.5-.6-.3-.8-.6-.6-.6.4zM408.1 511.2c-.1 2 1.4 2.4 2.5.6.4-.6.3-.8-.4-.4-.5.3-1.3 0-1.5-.6-.3-.8-.6-.6-.6.4zM431.8 511.8c-.5 1.9-.4 2 1.3 1.1 1-.5 1.9-1.2 1.9-1.5 0-.3-.4-.3-.9 0-.5.4-1.1.1-1.3-.6-.3-.7-.7-.3-1 1zM457.6 511.3c.3 1 .9 1.5 1.2 1.2.3-.3 0-1.1-.7-1.8-1-.9-1.1-.8-.5.6zM467.5 510.9c-.3.5-.2 1.2.3 1.5.5.3.9-.1.9-.9 0-1.7-.3-1.9-1.2-.6z"/><path d="M376.3 511.6c.7.7-3 4.5-5.8 6-1.5.8-2.6.7-4.5-.4l-2.5-1.4 2.3 2.1c2.2 1.9 2.6 1.9 5.2.6 1.6-.8 3.4-2.3 3.9-3.2.6-1 1.1-1.4 1.1-.8 0 1.1 2-1.5 2-2.8 0-.4-.5-.7-1.2-.7-.6 0-.9.3-.5.6zM386.1 512.2c-.1.9.4 2 .9 2.3.6.3 1 1.3 1 2.1s-.4 1.4-1 1.4c-.5 0-.9-.5-.7-1.1.1-.6-.5-1.4-1.3-1.6-1.2-.4-1.2-.3-.2.5.8.5 1.3 1.3 1.2 1.8-.3 1.9 2.2 1.5 2.7-.5.3-1.2.9-2.1 1.4-2.1.5 0 .9-.5.9-1.1 0-.8-.5-.8-1.5.1-1.2 1-1.6.8-2.4-1.1-.7-1.7-1-1.9-1-.7z"/><path d="M388 512.1c0 .5.5.7 1 .4.6-.3 1-.8 1-1.1 0-.2-.4-.4-1-.4-.5 0-1 .5-1 1.1zM442.8 512.8c-.3 1.1 0 1.9.7 1.9s1-.8.7-1.9c-.2-1-.6-1.8-.7-1.8-.1 0-.5.8-.7 1.8zM453 511.9c0 .6.4 1.3 1 1.6.6.3.7-.1.4-.9-.7-1.8-1.4-2.1-1.4-.7zM463 511.7c0 .6.8 1.7 1.8 2.4 1.6 1.3 1.6 1.3.2-.6-.8-1.1-1.6-2.2-1.7-2.4-.2-.2-.3 0-.3.6zM476.6 511.8c-.3.5.1.9.9.9s1.2-.4.9-.9c-.3-.4-.7-.8-.9-.8-.2 0-.6.4-.9.8zM480.6 512.2c.3.5 1 .6 1.5.3 1.3-.9 1.1-1.2-.6-1.2-.8 0-1.2.4-.9.9zM405.5 513c-.3.6.1 1.3.9 1.6.9.3 1.3 1 1 1.5-.3.5.2.6 1.2.2 1.4-.5 1.4-.7-.5-1.8-1.2-.6-1.8-1.4-1.5-1.8.4-.4.5-.7.1-.7-.3 0-.9.5-1.2 1zM327 514.2c0 .6.3.8.7.5.3-.4 1.2.2 2 1.3s2.2 2 3.1 1.9c1.3 0 1.2-.2-.4-.9-1.2-.4-2.4-1.5-2.7-2.4-.7-1.9-2.7-2.2-2.7-.4zM356.5 514c-.3.5-.1 1 .4 1 .6 0 1.1-.5 1.1-1 0-.6-.2-1-.4-1-.3 0-.8.4-1.1 1zM399 514c0 .5.5 1 1 1 .6 0 1-.5 1-1 0-.6-.4-1-1-1-.5 0-1 .4-1 1zM411.3 515.6c0 1.7.2 2.2.7 1.3.5-.6.6-1.8.3-2.6-.8-1.9-1-1.6-1 1.3zM423.6 514.7c-.6 1.4-.5 1.5.5.6.7-.7 1-1.5.7-1.8-.3-.3-.9.2-1.2 1.2zM456.7 514.1c.7.7 1.5 1 1.8.7.3-.3-.2-.9-1.2-1.2-1.4-.6-1.5-.5-.6.5zM497.6 513.8c-.3.5.1.9.9.9s1.2-.4.9-.9c-.3-.4-.7-.8-.9-.8-.2 0-.6.4-.9.8zM333 515.2c3.6 1.6 5 1.8 5 .6 0-.6-.7-.8-1.5-.5-.8.4-1.7.2-2-.3-.4-.6-1.4-1-2.3-.9-1.2 0-.9.4.8 1.1zM369.5 515c-.3.5-1.3.7-2.3.4-1.4-.5-1.4-.4-.2.4.8.6 1.9.7 2.5.3.5-.5 1.7-1.1 2.5-1.4 1.2-.4 1.2-.6-.2-.6-.9-.1-1.9.3-2.3.9zM447.5 515.1c-.4.6-.5 1.2-.2 1.5.2.3.7-.2 1-1.1.7-1.7.1-2-.8-.4zM479.4 515.1c-.3.6-.2 1.5.3 2s.9.1.9-1.1c0-2.3-.2-2.4-1.2-.9zM358 516c-1.8 1.2-.2 1.2 2.5 0 1.3-.6 1.5-.9.5-.9-.8 0-2.2.4-3 .9zM377.4 516.2c-.3.5-.1 1.4.5 2.1.6.8.6 1.8.1 2.7-.6.8-1 1.3-1.1 1-.6-3.4-.9-4.3-1.5-4.8-.4-.4-.4.1-.1 1.1.6 1.5.3 1.7-1.2 1.2-2.4-.7-3.3.6-1.9 2.5.8 1.2.9 1.2.4-.3-.7-2.1.3-2.2 3.1-.2 2 1.4 2.3 1.4 3.3-.5.6-1.1.7-2 .3-2-.4-.1.2-.9 1.4-1.9l2.2-1.9h-2.5c-1.3 0-2.7.5-3 1zm2.6.2c0 .3-.4.8-1 1.1-.5.3-1 .1-1-.4 0-.6.5-1.1 1-1.1.6 0 1 .2 1 .4zM391.6 515.9c-.4.5-.3 1.6 0 2.5.5 1.2.2 1.5-1.2 1-1.5-.5-1.6-.4-.4.4 1.9 1.4 2.8.7 2.8-2.3 0-2.7-.3-3.1-1.2-1.6zM401.5 516c-1 1.7.4 2.8 2.7 2.2 1.6-.4 1.9-.2 1.3.8-.5.9-.4 1.1.4.6 1.7-1.1.2-2.9-2-2.3-1.1.3-1.9.1-1.9-.3 0-.5.8-1.1 1.8-1.3 1.5-.4 1.5-.5 0-.6-.9 0-2 .3-2.3.9zM419.2 515.5c.4.4 0 1.4-1 2.2-1.5 1.3-1.5 1.3.5.4 2.8-1.4 3.6-1.4 2.7.1-.4.7-.3.8.4.4 1.7-1 1.5-1.4-1-2.7-1.3-.6-2-.8-1.6-.4zM426 515.9c0 .9 3 2.4 3.6 1.8.2-.1-.6-.8-1.6-1.5-1.1-.7-2-.8-2-.3zM451.5 515.9c-.3.5-.2 1.2.3 1.5.5.3.9-.1.9-.9 0-1.7-.3-1.9-1.2-.6zM327.6 517.3c.3 1 .9 1.5 1.2 1.2.3-.3 0-1.1-.7-1.8-1-.9-1.1-.8-.5.6zM415 517.1c0 .5-.5.7-1.2.3-.7-.4-.8-.3-.4.5.6.9 1.1.9 2.2 0 1.7-1.4 1.8-1.9.4-1.9-.5 0-1 .5-1 1.1zM431.5 516.9c-.6 1.1 1.3 2.6 2.2 1.7.4-.3.1-.6-.6-.6s-.9-.5-.6-1c.3-.6.4-1 .1-1-.3 0-.7.4-1.1.9z"/><path d="M323.7 518.1c-1 .6-1.5 1.4-1.2 2 .4.5.1.9-.4.9-.6 0-1.1.5-1.1 1.1 0 .8.5.8 1.5-.1.8-.7 1.3-1.6 1-2-.3-.4.2-1 1-1.4 1-.4 1.4.1 1.2 1.6-.1 1.5.4 2.1 2.1 2.3 1.3.1 2.6-.4 2.9-1.2.3-.7.9-1.1 1.3-.8.5.3 1.1.2 1.4-.3.2-.4-.4-.9-1.5-.9-1-.1-1.9.4-1.9 1 0 .7-.9 1.3-2 1.3-1.4 0-1.8-.5-1.5-1.7.7-2.2-.6-3-2.8-1.8zM341 517.4c0 .2.7.9 1.5 1.6 1.3 1.1 1.4 1 .9-.4-.5-1.4-2.4-2.3-2.4-1.2zM360 518c-.8.5-2.4.7-3.5.4-1.6-.4-1.7-.3-.5.5.8.6 1.5 1.6 1.5 2.3 0 .8 1 1.2 2.4 1 2-.2 2.2 0 1.1 1.3-.7.9-.8 1.5-.2 1.5 1.3 0 2.3-2.8 1.2-3.5-.4-.3-1.5-.2-2.4.1-1.2.5-1.5.2-1-1 .3-.9 1.2-1.6 1.9-1.6.8 0 1.7-.5 2-1 .8-1.3-.5-1.3-2.5 0zM381.9 517.5c-.1.3-.2.8-.3 1.2-.1.5-.7 1.7-1.3 2.9-.8 1.4-.8 2.5-.1 3.5.8 1.2.9 1.1.5-.2-.3-.9.1-2.6.9-3.8.8-1.1 1.2-2.1.7-2.1-.4 0-.1-.5.7-1 1-.6 1.1-1 .3-1-.7 0-1.4.2-1.4.5zM394.7 517.6c.7.3 1.5.5 1.9.4.4-.1 1.5 1.1 2.5 2.6 1.6 2.5 1.8 2.6 1.6.7 0-1.2-.4-2-.8-1.7-.4.2-.9-.1-1.1-.8-.2-.6-1.5-1.2-2.9-1.4-1.3-.1-1.8 0-1.2.2zM454.9 518.3c.6.8.7 1.8.3 2.2-.4.5-.1.5.6.1 1-.6 1-1.1.1-2.2-.6-.8-1.4-1.4-1.6-1.4-.3 0 0 .6.6 1.3zM491.5 518c.3.5.8 1 1.1 1 .2 0 .4-.5.4-1 0-.6-.5-1-1.1-1-.5 0-.7.4-.4 1zM335 519c0 .5.7.7 1.5.4.8-.4 1.5-.8 1.5-1 0-.2-.7-.4-1.5-.4s-1.5.4-1.5 1z"/><path d="M347.1 519.5c-.1 1.7-.3 1.8-1.2.5-.9-1.3-1-1.2-.5.2.4 1.3 0 1.7-1.7 1.5-1.5-.1-2.1.4-2.2 1.8 0 1.1.4 2.1.8 2.2.5.1 1.5 1 2.3 2 1.3 1.7 1.5 1.7 2.7.1.8-1 1.7-1.5 2-1.1 1 .9 2-2.5 1.3-4.3-.5-1.3-.9-1.3-3 .3-1.3 1-2.2 2-2 2.2.2.2 1.3-.4 2.4-1.4 1.9-1.8 2-1.7 2 .4 0 1.2-.4 2-.9 1.6-.6-.3-1.5.3-2 1.2-1.1 1.7-1.1 1.7-2.2 0-.5-.9-1.4-1.5-1.9-1.2-.5.3-.8-.4-.7-1.5.1-1.4.6-1.8 1.8-1.5 1.9.6 4.3-1.9 3.6-3.7-.3-.7-.6-.4-.6.7zM339 520c0 .5.5 1 1 1 .6 0 1-.5 1-1 0-.6-.4-1-1-1-.5 0-1 .4-1 1zM363 519.8c0 .4 1 .9 2.2.9 1.8.2 2 0 .8-.7-1.8-1.2-3-1.3-3-.2zM383.6 520.7c-.6 1.4-.5 1.5.5.6.7-.7 1-1.5.7-1.8-.3-.3-.9.2-1.2 1.2zM395 520.8c.7 1.3 1.4 2.1 1.8 1.8.3-.3 1.4.6 2.4 2.1 1 1.6 1.8 2.3 1.8 1.8 0-1.3-3.9-6.3-4-5.1 0 .6-.7.1-1.6-1-1.4-1.8-1.5-1.8-.4.4zM408 520c-.8.5-1.2 1.1-1 1.4.3.2 1.4-.2 2.4-1 2.2-1.5 1-1.9-1.4-.4zM412.7 520.1c.7.7 1.5 1 1.8.7.3-.3-.2-.9-1.2-1.2-1.4-.6-1.5-.5-.6.5zM418.5 520.1c-.4.6-.5 1.2-.2 1.5.2.3.7-.2 1-1.1.7-1.7.1-2-.8-.4zM422.5 519.9c-.3.6.3.9 1.4.8 1.1 0 1.7-.5 1.5-.9-.7-1.1-2.2-1-2.9.1zM427.9 520c-.6 4.3-.2 6.4 1.1 6.7 1 .3 1.1.2.4-.4-.6-.4-1-2.3-.8-4.1.1-1.7.1-3.2-.2-3.2-.2 0-.5.4-.5 1zM460.5 520.1c-.3.4.2.6 1 .5 2.1-.3 2.8-1.3 1-1.3-.9 0-1.8.4-2 .8zM439.6 520.9c-.3.5.1 1.1.9 1.4.9.4 1.2.1.8-.9-.6-1.6-1-1.7-1.7-.5zM333.5 522c-1.1 1.7.4 4.5 2.4 4.6 2.6.2 4.6-2.9 2.8-4.4-1.3-1-4.6-1.2-5.2-.2zm4.5 1.2v1.6c0 1.7-3.6 1-3.7-.7-.1-1.2.5-1.8 1.8-1.7 1.1.1 1.9.4 1.9.8zM368.3 521.7c-.7.3-1.3.9-1.3 1.5 0 .7.5.6 1.4-.2 1.2-.9 1.5-.8 1.3 1-.1 1.4-.7 2-2.1 1.8-1.3-.2-2.2.4-2.4 1.6-.6 2.8 1.2 4 2.9 1.9 1.3-1.6 1.2-1.7-.3-.4-1.6 1.2-1.8 1.1-1.8-.6 0-1.4.7-1.9 2.1-1.9 1.5.1 2.3-.6 2.5-2.1.4-2.4-.4-3.3-2.3-2.6zM385.9 521.7c-.1.4-.1 1.2 0 1.6.1.5-.9.6-2.1.3-1.3-.3-1.7-.3-1 0 .6.3.9 1 .6 1.6-.4.6.3.5 1.5-.2 1.2-.6 1.9-1.5 1.6-2.1-.4-.5.3-.9 1.4-.9 1.4 0 1.9.5 1.6 2-.2 1.1.1 2.3.7 2.6.7.4.8.2.4-.4-.4-.7-.1-1.2.6-1.2 1 0 1-.2 0-.9-.8-.4-1.2-1.2-1-1.7.1-.5-.7-1-1.9-1.2-1.3-.2-2.4 0-2.4.5zM409.5 522.1c-.6.8-.4 1 .5.4.9-.5 1-.1.6 1.6-.6 2.1-.6 2.2.5.6.7-1.3.8-2.2.1-2.9-.6-.6-1.2-.6-1.7.3zM415 523.2c-1.2 2.2-1.2 2.2.6.6 1-1 1.5-2 1.2-2.4-.4-.3-1.2.5-1.8 1.8zM435 522.6c.6.6.6 1.5.2 1.9-.4.5-.1.5.6.1s1-1.1.7-1.6c-.3-.4.1-1 .7-1.3.7-.3.3-.4-.9-.4-1.5.1-1.9.5-1.3 1.3zM456 522c-.9.6-1 1-.3 1 .6 0 1.5-.5 1.8-1 .8-1.2.4-1.2-1.5 0zM485.3 523.1c-.2 2.3.3 2.5 1 .4.4-.8.3-1.6-.1-1.9-.4-.3-.9.4-.9 1.5zM353.3 524c.1 1.4.7 2.4 1.2 2.2.6-.2 1.3.7 1.7 2 .7 2.2.7 2.2.5-.2-.1-1.4-.6-2.4-1.2-2.2-.5.2-1.3-.7-1.7-2-.7-2.2-.7-2.2-.5.2zM356.2 523.6c1 1 2 1.6 2.2 1.3.3-.3-.5-1.1-1.7-1.8-2.1-1.3-2.1-1.2-.5.5zM363.7 523.9c-.4 1.7-.3 2.1.5 1.3.5-.5.8-1.6.6-2.3-.3-.8-.7-.3-1.1 1zM444.4 523.8c2.3 2.6 2.3 2.6 2.3.7 0-.8-.3-1.3-.5-1-.3.3-1.2-.1-2.1-.7-1-.8-.9-.4.3 1zM459.3 523.5c0 .8.4 1.2.9.9.5-.3.6-1 .3-1.5-.9-1.3-1.2-1.1-1.2.6zM323.6 524.5c.4.8.8 1.5 1 1.5.2 0 .4-.7.4-1.5s-.4-1.5-1-1.5c-.5 0-.7.7-.4 1.5zM331.1 524.6c0 1.1.3 1.4.6.6.3-.7.2-1.6-.1-1.9-.3-.4-.6.2-.5 1.3zM375.7 524.9c1.4 1.7 3.3 2 3.3.5 0-.3-.4-.3-.9 0s-1.1-.1-1.5-.9c-.3-.8-1-1.5-1.6-1.5-.5 0-.2.9.7 1.9zM393 523.4c0 .2.7.7 1.6 1 .8.3 1.2.2.9-.4-.6-1-2.5-1.4-2.5-.6zM402 523.8c0 .5 1.1 1.4 2.5 2 1.4.6 2.5 1 2.5.8 0-.2-1.1-1.1-2.5-2-1.4-.9-2.5-1.3-2.5-.8zM406 524c.8.5 2 1 2.5 1 .6 0 .3-.5-.5-1s-1.9-1-2.5-1c-.5 0-.3.5.5 1zM419.7 524.4c-.3.8 0 1.7.7 1.9 1 .4 1.2-.1.9-1.4-.6-2.3-.9-2.4-1.6-.5zM437.9 524.7c-1.3 1.6-1.2 1.7.4.4 1.6-1.3 2.1-2.1 1.3-2.1-.2 0-1 .8-1.7 1.7zM461.6 524.7c-.6 1.4-.5 1.5.5.6.7-.7 1-1.5.7-1.8-.3-.3-.9.2-1.2 1.2zM318.8 524.7c.7.3 1.6.2 1.9-.1.4-.3-.2-.6-1.3-.5-1.1 0-1.4.3-.6.6zM327 525c0 .5.5 1 1 1 .6 0 1-.5 1-1 0-.6-.4-1-1-1-.5 0-1 .4-1 1zM320.5 526c-1.6.7-1.7.9-.3.9.9.1 2-.4 2.3-.9.7-1.1.7-1.1-2 0zM372.4 526.5c-1 .8-1.4 1.5-.9 1.5.6 0 .3.5-.5 1.1-1 .7-1.1.9-.2.7.8-.2 1.3-.7 1.2-1.2-.1-.4.7-1.4 1.7-2.2 1-.7 1.5-1.4 1.2-1.4-.3 0-1.4.7-2.5 1.5z"/><path d="M387 525.5c0 .5.5 1.7 1 2.5s1 1 1 .5c0-.6-.5-1.7-1-2.5s-1-1.1-1-.5zM392.3 526.5c-.3.9-.3 1.9.1 2.2.3.4.6-.1.6-1.1s.5-1.4 1.2-1c.7.4.8.3.4-.4-1-1.6-1.5-1.5-2.3.3zM397.7 526.4c.5 1.4.3 1.7-.7 1.1-.9-.5-1.1-.4-.6.4.4.6 1.2.8 1.8.5.8-.5.9-.1.5 1-.4 1-.3 1.5.3 1.1 1.4-.8 1.3-1.8-.5-4.1-1.5-1.8-1.5-1.8-.8 0zM439.9 526.7c-1.3 1.6-1.2 1.7.4.4.9-.7 1.7-1.5 1.7-1.7 0-.8-.8-.3-2.1 1.3zM454.7 526.1c.7.7 1.5 1 1.8.7.3-.3-.2-.9-1.2-1.2-1.4-.6-1.5-.5-.6.5zM317 527.5c0 .8.4 1.5 1 1.5.5 0 .7-.7.4-1.5-.4-.8-.8-1.5-1-1.5-.2 0-.4.7-.4 1.5zM359 526.9c0 1 1.9 2.5 2.5 2 .1-.2-.3-1-1.1-1.7s-1.4-.8-1.4-.3zM451.1 527.3c-.8 1-.7 1.4.2 1.4.8 0 1.4-.6 1.4-1.4 0-.7-.1-1.3-.2-1.3-.2 0-.8.6-1.4 1.3zM466.9 527.7c-1.3 1.6-1.2 1.7.4.4.9-.7 1.7-1.5 1.7-1.7 0-.8-.8-.3-2.1 1.3zM323 528c0 .5.9 1.4 2 2 1.1.6 2 .9 2 .8 0-.2-.9-1.1-2-2.1-1.1-.9-2-1.3-2-.7zM325.5 527.8c.8.8 5.5 1.1 5.5.3 0-.4-1.3-.8-3-.8-1.6 0-2.8.2-2.5.5zM340.7 528.9c1.4 1.7 3.3 2 3.3.5 0-.3-.4-.3-.9 0s-1.1-.1-1.5-.9c-.3-.8-1-1.5-1.6-1.5-.5 0-.2.9.7 1.9zM350.5 528.1c-.4.6-.4 1.3-.1 1.6.3.4.6.1.6-.6s.5-.9 1-.6c.6.3 1 .1 1-.4 0-1.4-1.7-1.4-2.5 0zM379 527.9c0 1 1.9 2.5 2.5 2 .1-.2-.3-1-1.1-1.7s-1.4-.8-1.4-.3zM382.6 528.4c1 .8 2.1 1.2 2.4 1 .5-.6-2.1-2.4-3.4-2.4-.6 0-.1.6 1 1.4zM409.6 528.7c-.6 1.4-.5 1.5.5.6.7-.7 1-1.5.7-1.8-.3-.3-.9.2-1.2 1.2zM411.8 528.8c-.3 1.1 0 1.9.7 1.9s1-.8.7-1.9c-.2-1-.6-1.8-.7-1.8-.1 0-.5.8-.7 1.8zM445 527.9c0 .6.4 1.3 1 1.6.6.3.7-.1.4-.9-.7-1.8-1.4-2.1-1.4-.7zM471 528c0 .5.5 1 1.1 1 .5 0 .7-.5.4-1-.3-.6-.8-1-1.1-1-.2 0-.4.4-.4 1zM481.5 528.1c-.3.4.2.6 1 .5 2.1-.3 2.8-1.3 1-1.3-.9 0-1.8.4-2 .8zM336.8 528.7c.6.2.9 1 .6 1.5-.4.7-.2.8.5.4 1.3-.9.5-2.6-1.2-2.5-.9 0-.8.2.1.6zM435.4 531.5c0 1.9.3 3.2.5 2.9.8-.7.9-5.4.2-5.9-.4-.2-.7 1.2-.7 3zM314.6 529.8c-.3.4.4.9 1.5.9 2.3.2 2.5-.3.4-1-.8-.4-1.6-.3-1.9.1zM320.1 529.9c-.9.6-1 1.1-.2 1.5.6.4 1.1.2 1.1-.4 0-.6.5-.8 1.2-.4s.8.3.4-.4c-.8-1.4-.7-1.4-2.5-.3zM347 530c-1.3.8-1.2 1 .3 1 .9 0 1.7-.5 1.7-1 0-1.2-.1-1.2-2 0zM353.5 529.9c-.6 1.1 1.3 2.6 2.2 1.7.4-.3.1-.6-.6-.6s-.9-.5-.6-1c.3-.6.4-1 .1-1-.3 0-.7.4-1.1.9zM373.5 529.9c-.3.5 0 1.3.6 1.7.8.5.9.3.4-.6-.6-1-.1-1.2 1.8-.8 1.5.3 2.4.1 2.1-.3-.7-1.2-4.1-1.1-4.9 0zM418 529.5c0 .2.6.8 1.3 1.4 1 .8 1.4.7 1.4-.2 0-.8-.6-1.4-1.4-1.4-.7 0-1.3.1-1.3.2zM422.8 529.7c.6.2 1.8.2 2.5 0 .6-.3.1-.5-1.3-.5-1.4 0-1.9.2-1.2.5zM427.3 530.7c0 .9.4 1 1.4.2.7-.6 1.3-1.2 1.3-1.4 0-.1-.6-.2-1.3-.2-.8 0-1.4.6-1.4 1.4zM431.3 529.7c.4.3-.1 1.6-1 2.7-1.8 2.1-1.8 2.1.5.2 2.4-2.1 2.9-3.6 1-3.6-.6 0-.8.3-.5.7zM477.3 531.1c-.2 2.3.3 2.5 1 .4.4-.8.3-1.6-.1-1.9-.4-.3-.9.4-.9 1.5zM335 530.9c0 .6.4 1.3 1 1.6.6.3.7-.1.4-.9-.7-1.8-1.4-2.1-1.4-.7zM387.5 531c-.4.6-1 .8-1.5.5-.4-.3-1.4.3-2.1 1.3-1.2 1.5-1.2 1.6.2.5.9-.7 1.8-1.1 2.1-.8.3.3 1.1-.1 1.8-1 .7-.8 1-1.5.7-1.5-.3 0-.9.5-1.2 1zM455.4 531.1c-.3.6-.2 1.5.3 2s.9.1.9-1.1c0-2.3-.2-2.4-1.2-.9zM312.2 532.4c.7.8 1.5 1.2 1.7 1.1.5-.6-1-2.5-2-2.5-.5 0-.4.6.3 1.4zM324.6 532.3c.3 1 .9 1.5 1.2 1.2.3-.3 0-1.1-.7-1.8-1-.9-1.1-.8-.5.6zM338.7 531.7c-.3.5.6.9 2 1 1.9.1 2.2-.1 1.2-.8-1.7-1.1-2.6-1.1-3.2-.2zM357 532.2c0 .5.6.8 1.3.5.6-.2 1.7.3 2.3 1.1.9 1.2 1.3 1.2 1.9.2.5-.8.4-1.1-.3-.6-.5.3-1.2.1-1.4-.6-.5-1.4-3.8-2-3.8-.6zM364 532c.8.5 2 1 2.5 1 .6 0 .3-.5-.5-1s-1.9-1-2.5-1c-.5 0-.3.5.5 1zM369.6 532.5c.4.8.8 1.5 1 1.5.2 0 .4-.7.4-1.5s-.4-1.5-1-1.5c-.5 0-.7.7-.4 1.5zM380 532c-.8.5-1 1-.5 1 .6 0 1.7-.5 2.5-1s1.1-1 .5-1c-.5 0-1.7.5-2.5 1zM391 531.5c0 .5.5 1.7 1 2.5s1 1 1 .5c0-.6-.5-1.7-1-2.5s-1-1.1-1-.5zM401 531.4c0 .2.7.7 1.6 1 .8.3 1.2.2.9-.4-.6-1-2.5-1.4-2.5-.6zM408 532c0 .5.1 1.2.3 1.4.1.2-.7 1.4-1.8 2.7-1.1 1.3-1.3 1.8-.4 1.1.9-.6 1.8-1 2-.8.2.3.5-.9.5-2.5.1-1.6 0-2.9-.2-2.9s-.4.4-.4 1zM421.9 532.7c-1.3 1.6-1.2 1.7.4.4 1.4-1.1 2-1.1 3.5 0 1.5 1.3 1.6 1.2.3-.4-.7-.9-1.7-1.7-2.1-1.7-.4 0-1.4.8-2.1 1.7zM451.6 532.7c-.6 1.4-.5 1.5.5.6.7-.7 1-1.5.7-1.8-.3-.3-.9.2-1.2 1.2zM327 532.4c0 .2.9.6 2 .9 1.1.3 1.8.1 1.4-.4-.5-.9-3.4-1.3-3.4-.5zM347.6 533.3c.3 1 .9 1.5 1.2 1.2.3-.3 0-1.1-.7-1.8-1-.9-1.1-.8-.5.6zM410.9 533.7c-1.3 1.6-1.2 1.7.4.4 1.6-1.3 2.1-2.1 1.3-2.1-.2 0-1 .8-1.7 1.7zM331.6 534.7c-.6 1.4-.5 1.5.5.6.7-.7 1-1.5.7-1.8-.3-.3-.9.2-1.2 1.2zM343.6 533.9c-1.8.7-1.8.8-.3 1.4.9.3 1.7.2 1.7-.4 0-.6.5-.7 1.2-.3.7.4.8.3.4-.4s-.8-1.2-.9-1.1c-.1 0-1.1.4-2.1.8zM367 534c-1.3.8-1.2 1 .3 1 .9 0 1.7-.5 1.7-1 0-1.2-.1-1.2-2 0zM373.7 533.7c-.3.5-.1 1.7.4 2.8.4 1.1.8 1.4.8.7.1-.7.5-1.1 1-.7.5.3 1.3.1 1.6-.5.4-.6.3-1-.2-.9-2 .3-3.4-.2-2.8-1.1.3-.6.4-1 .1-1-.3 0-.7.3-.9.7zM387.9 533.2c-1.1 3.8-.1 4.9 2.1 2.3 1.1-1.3 1-1.4-.5-.9-1.3.5-1.6.4-1.1-.4.4-.7.5-1.2.2-1.2s-.6.1-.7.2zM398.8 533.7c.9.3 1 .9.3 1.7-.8.9-.6 1.3.4 1.3.8 0 1.3-.3 1-.5-.3-.3-.1-1 .5-1.6.6-.8.2-1.2-1.3-1.3-1.2 0-1.6.1-.9.4zM415 534.4c.7.7 1.3.7 2 0 .6-.6.3-1-1-1s-1.6.4-1 1zM318.1 536.2c-1.3 2-1.2 2.2.1 1.1.8-.7 1.8-1 2.2-.6.4.4.4 0 0-1-.8-2.1-.6-2.1-2.3.5zM339.9 534.2c-.5 1.8-.6 3.8-.1 3.4.7-.8 1.2-3.6.6-3.6-.2 0-.4.1-.5.2zM350.1 535.6c0 1.1.3 1.4.6.6.3-.7.2-1.6-.1-1.9-.3-.4-.6.2-.5 1.3zM355 535c-.9.6-1 1-.3 1 .6 0 1.5-.5 1.8-1 .8-1.2.4-1.2-1.5 0zM363.7 534.7c-1 .9-.9 2.3.1 2.3.5 0 .9-.7.9-1.5 0-1.7-.1-1.8-1-.8zM309.8 536.9c-1 1.3-1 1.4.2.4.9-.8 1.9-.9 3.1-.2 1.4.7 1.7.6 1.3-.4-.7-1.8-3.2-1.7-4.6.2zM333.4 536.1c-.5.8-.3.9.6.4 1-.6 1.2-.4.7.7-.4 1.2-.1 1.4 1.4 1.1 1.1-.3 1.8-.6 1.7-.7-.2-.1-1-.7-2-1.4-1.2-1-1.8-1-2.4-.1zM395.9 535.2c-.7 2.5-.3 4 1.4 5.5 2.2 1.8 2.2 1.8.6-.2-.9-1.1-1.5-2.8-1.4-3.8.3-1.3-.2-2.6-.6-1.5zM402.1 536.6c0 1.1.3 1.4.6.6.3-.7.2-1.6-.1-1.9-.3-.4-.6.2-.5 1.3zM417.9 536.7c-1.3 1.6-1.2 1.7.4.4 1.6-1.3 2.1-2.1 1.3-2.1-.2 0-1 .8-1.7 1.7zM421 535.9c0 .6.4 1.3 1 1.6.6.3.7-.1.4-.9-.7-1.8-1.4-2.1-1.4-.7zM429.5 536c-.4.6-.1.9.7.8.7-.2 1.2.3 1 1-.1.8.2 1.1.8.7.8-.5.7-1.1-.1-2.1-1.4-1.7-1.6-1.7-2.4-.4zM447 536.2c0 .4.4.8.9.8.6 0 1.2-.4 1.5-.8.3-.5-.1-.9-.9-.9s-1.5.4-1.5.9zM327.5 537.1c-.4.6-.5 1.2-.2 1.5.2.3.7-.2 1-1.1.7-1.7.1-2-.8-.4zM358.7 537.4c-.4 1 .1 1.2 1.4.9 2.3-.6 2.4-.9.5-1.6-.8-.3-1.7 0-1.9.7zM307 537.7c0 .5 1 1.8 2.3 2.9l2.2 1.9-2-2.5c-1.1-1.4-2.1-2.7-2.2-2.9-.2-.2-.3 0-.3.6zM319.8 538.7c.7.3 1.6.2 1.9-.1.4-.3-.2-.6-1.3-.5-1.1 0-1.4.3-.6.6zM329.4 540c0 1.4.4 1.6 1.7 1 .9-.5 1.8-.8 2-.7.2.1.3 0 .1-.3-.2-.3-.7-.5-1-.5-.4 0-1.2-.3-1.7-.7-.6-.4-1.1.2-1.1 1.2zM353.4 540c0 1.3.5 1.6 1.6 1.1.8-.5 2.2-.6 3-.3.8.2 1.2.2.8-.2-.3-.4-1.2-.8-2-1-.7-.1-1.8-.4-2.3-.8-.6-.4-1.1.2-1.1 1.2zM367.2 538.5c.4.4 0 1.4-1 2.2-1.6 1.3-1.5 1.3.3.5 1.1-.5 2.8-.8 3.8-.6 1.1.1 1.6-.1 1.2-.4-.4-.4-1-.7-1.3-.7-.4 0-1.4-.4-2.2-.9-.8-.5-1.2-.6-.8-.1zM377.4 540c0 1.3.4 1.6 1.1 1 .6-.5 2.3-.7 3.7-.5 1.7.3 3-.1 3.9-1.3 1.2-1.5 1.2-1.6-.2-.5-1.3 1.1-6 1-7.9-.2-.3-.2-.6.5-.6 1.5zM389 538.4c0 .2.8 1 1.8 1.7 1.5 1.3 1.6 1.2.3-.4s-2.1-2.1-2.1-1.3zM407.9 540.7l-2.4 2.8 2.8-2.4c1.5-1.4 2.7-2.6 2.7-2.8 0-.8-.8-.1-3.1 2.4zM413.3 539.4c0 1.4 6.1 1.6 7.4.2.4-.4-.6-.5-2.2-.2s-3.4.1-4-.4c-.8-.7-1.2-.5-1.2.4zM299.7 540.8c-1.5 1.6-1.5 1.9-.2 1.9.8 0 1.3-.3 1-.5-.3-.3 0-1.1.6-1.9 1.7-2 .5-1.6-1.4.5zM313.6 540.7c-.6 1.4-.5 1.5.5.6.7-.7 1-1.5.7-1.8-.3-.3-.9.2-1.2 1.2zM347 540.1c0 .5.5.7 1 .4.6-.3 1-.8 1-1.1 0-.2-.4-.4-1-.4-.5 0-1 .5-1 1.1zM360.6 540.2c.3.5 1 .6 1.5.3 1.3-.9 1.1-1.2-.6-1.2-.8 0-1.2.4-.9.9zM403.3 540.8c-.8 1.4-.8 1.9.1 1.9.7 0 1.3-.9 1.3-1.9.1-1 .1-1.8 0-1.8s-.7.8-1.4 1.8zM447 540c0 .5.5 1 1 1 .6 0 1-.5 1-1 0-.6-.4-1-1-1-.5 0-1 .4-1 1zM475 539.4c0 .2.7.7 1.6 1 .8.3 1.2.2.9-.4-.6-1-2.5-1.4-2.5-.6zM490.5 540c-.3.6.1.7.9.4 1.8-.7 2.1-1.4.7-1.4-.6 0-1.3.4-1.6 1zM387.3 541.3c0 .8.6 1.4 1.4 1.4.9 0 1-.4.2-1.4-.6-.7-1.2-1.3-1.4-1.3-.1 0-.2.6-.2 1.3zM322.8 541.7c.7.3 1.6.2 1.9-.1.4-.3-.2-.6-1.3-.5-1.1 0-1.4.3-.6.6zM453.3 543c-.1 1.1.2 2 .7 2 .4 0 .7-.7.6-1.5-.3-2.3-1.2-2.6-1.3-.5zM295.5 543.1c-.4.6-.5 1.2-.2 1.5.2.3.7-.2 1-1.1.7-1.7.1-2-.8-.4zM325.5 543c-.4.6-1.1.7-1.7.4-.7-.4-.8-.2-.4.5.6.9 1.1.9 2.2 0 1.4-1.1 1.8-1.9 1-1.9-.3 0-.8.5-1.1 1zM333 542.4c0 .2.8 1 1.8 1.7 1.5 1.3 1.6 1.2.3-.4s-2.1-2.1-2.1-1.3zM343.5 543.1c-.4.6-.5 1.2-.2 1.5.2.3.7-.2 1-1.1.7-1.7.1-2-.8-.4zM306.5 543.9c.3.3 1.7.6 3.1.7 1.3 0 2.2-.2 1.9-.5-.3-.3-1.7-.6-3.1-.7-1.3 0-2.2.2-1.9.5zM319.1 543.3c.2.1 1.3.9 2.4 1.7 1.9 1.4 1.9 1.4.6-.3-.7-.9-1.8-1.7-2.4-1.7-.6 0-.8.1-.6.3zM329.3 544.7c0 .9.4 1 1.4.2.7-.6 1.3-1.2 1.3-1.4 0-.1-.6-.2-1.3-.2-.8 0-1.4.6-1.4 1.4zM339 543.7c0 .6.8 1.7 1.8 2.4 1.6 1.3 1.6 1.3.2-.6-.8-1.1-1.6-2.2-1.7-2.4-.2-.2-.3 0-.3.6zM349.8 544.9c-1 1.3-1 1.4.2.4.9-.8 1.9-.9 3.1-.2 1.4.7 1.7.6 1.3-.4-.7-1.8-3.2-1.7-4.6.2zM363.5 543.8c.3.3-.1 1.2-.7 2.1-1.1 1.4-1 1.4.7 0 1.1-.9 2.8-1.5 3.8-1.4 1.1.2 1.6.1 1.2-.3-.3-.3-1.7-.7-3.1-.8-1.3 0-2.2.1-1.9.4zM373.9 544.7c-1.3 1.6-1.2 1.7.4.4 1.6-1.3 2.1-2.1 1.3-2.1-.2 0-1 .8-1.7 1.7zM435 543.4c0 .2.7.7 1.6 1 .8.3 1.2.2.9-.4-.6-1-2.5-1.4-2.5-.6zM331.9 546.7c-1.3 1.6-1.2 1.7.4.4.9-.7 1.7-1.5 1.7-1.7 0-.8-.8-.3-2.1 1.3zM358.7 546.1c.7.7 1.5 1 1.8.7.3-.3-.2-.9-1.2-1.2-1.4-.6-1.5-.5-.6.5zM375.9 546.7c-1.3 1.6-1.2 1.7.4.4 1.6-1.3 2.1-2.1 1.3-2.1-.2 0-1 .8-1.7 1.7zM383 546.4c.7.7 1.3.7 2 0 .6-.6.3-1-1-1s-1.6.4-1 1zM387.3 547.3c-.1 1.1-.1 1.8 0 1.6.2-.2.8-1.1 1.5-2 .9-1.2.9-1.6-.1-1.6-.7 0-1.4.9-1.4 2zM394 545.4c0 .2.8 1 1.8 1.7 1.5 1.3 1.6 1.2.3-.4s-2.1-2.1-2.1-1.3zM443.4 545.8c.4.3 1.4.7 2.2.8.9.1 1.3 0 1-.4-.4-.3-1.4-.7-2.2-.8-.9-.1-1.3 0-1 .4zM337.3 547.3c0 .7.9 1.4 2 1.4 1.1.1 1.8.1 1.6 0-.2-.2-1.1-.8-2-1.5-1.2-.9-1.6-.9-1.6.1zM364.6 547.5c-1.8 1.4-1.8 1.4.1 1.2 1.1 0 2-.7 2-1.4s-.1-1.3-.1-1.3c-.1 0-.9.7-2 1.5zM293.3 548.5c0 .8.4 1.2.9.9.4-.3.8-.9.8-1.5 0-.5-.4-.9-.8-.9-.5 0-.9.7-.9 1.5zM309.9 548.7c-1.3 1.6-1.2 1.7.4.4 1.6-1.3 2.1-2.1 1.3-2.1-.2 0-1 .8-1.7 1.7zM317.9 548.7c-1.3 1.7-1.3 1.7.6.3 1.1-.8 2.2-1.6 2.4-1.7.2-.2 0-.3-.6-.3s-1.7.8-2.4 1.7zM347.3 548.9c0 1.1.5 1.8.9 1.5.4-.3.5-1.1.1-1.9-.7-2.1-1.2-1.9-1 .4zM355.3 548.8c-.8 1.4-.8 1.9.1 1.9.7 0 1.3-.9 1.3-1.9.1-1 .1-1.8 0-1.8s-.7.8-1.4 1.8zM379 548.1c0 .5.5.7 1 .4.6-.3 1-.8 1-1.1 0-.2-.4-.4-1-.4-.5 0-1 .5-1 1.1zM423.9 548.7c-1.3 1.6-1.2 1.7.4.4 1.6-1.3 2.1-2.1 1.3-2.1-.2 0-1 .8-1.7 1.7zM299.3 549.5c0 .8.4 1.2.9.9.5-.3.6-1 .3-1.5-.9-1.3-1.2-1.1-1.2.6zM451.5 549.1c-.4.6-.5 1.2-.2 1.5.2.3.7-.2 1-1.1.7-1.7.1-2-.8-.4zM331 550.4c.7.7 1.3.7 2 0 .6-.6.3-1-1-1s-1.6.4-1 1zM350.6 549.8c-.3.5.1.9.9.9s1.2-.4.9-.9c-.3-.4-.7-.8-.9-.8-.2 0-.6.4-.9.8zM441.5 549.9c-.3.5-.2 1.2.3 1.5.5.3.9-.1.9-.9 0-1.7-.3-1.9-1.2-.6zM337.6 551.3c.3 1 .9 1.5 1.2 1.2.3-.3 0-1.1-.7-1.8-1-.9-1.1-.8-.5.6zM341.1 551.3c-.8 1-.7 1.4.2 1.4.8 0 1.4-.6 1.4-1.4 0-.7-.1-1.3-.2-1.3-.2 0-.8.6-1.4 1.3zM313.9 552.7c-1.3 1.6-1.2 1.7.4.4 1.6-1.3 2.1-2.1 1.3-2.1-.2 0-1 .8-1.7 1.7zM317.6 551.8c-.3.5.1.9.9.9s1.2-.4.9-.9c-.3-.4-.7-.8-.9-.8-.2 0-.6.4-.9.8zM324.6 552.1c.4.8 3 .6 3.8-.2.3-.3-.5-.5-1.9-.5-1.3 0-2.2.3-1.9.7zM375.3 552.5c0 .8.4 1.2.9.9.5-.3.6-1 .3-1.5-.9-1.3-1.2-1.1-1.2.6zM273 554c0 .5.5 1 1.1 1 .5 0 .7-.5.4-1-.3-.6-.8-1-1.1-1-.2 0-.4.4-.4 1zM285.5 554c-.3.5-.1 1 .4 1 .6 0 1.1-.5 1.1-1 0-.6-.2-1-.4-1-.3 0-.8.4-1.1 1zM367.6 553.9c-.3.5.2 1.5 1.2 2.2 1.5 1.2 1.6 1.2.5-.2-.7-.9-1-1.9-.6-2.2.3-.4.4-.7 0-.7-.3 0-.8.4-1.1.9zM405 554.1c0 .5.5.7 1 .4.6-.3 1-.8 1-1.1 0-.2-.4-.4-1-.4-.5 0-1 .5-1 1.1zM429.6 554.2c.3.5 1 .6 1.5.3 1.3-.9 1.1-1.2-.6-1.2-.8 0-1.2.4-.9.9zM433.6 553.8c-.2.4-.1 1.4.4 2.2.7 1.1.9.9.7-.8-.1-2.4-.3-2.6-1.1-1.4zM319.7 554.7c-1 .9-.9 2.3.1 2.3.5 0 .9-.7.9-1.5 0-1.7-.1-1.8-1-.8zM467.5 555.1c-.4.6-.5 1.2-.2 1.5.2.3.7-.2 1-1.1.7-1.7.1-2-.8-.4zM291 556.1c0 .5.5.7 1 .4.6-.3 1-.8 1-1.1 0-.2-.4-.4-1-.4-.5 0-1 .5-1 1.1zM315.9 556.7c-1.3 1.6-1.2 1.7.4.4.9-.7 1.7-1.5 1.7-1.7 0-.8-.8-.3-2.1 1.3zM345 555.9c0 .6.4 1.2.8 1.5.5.3.9-.1.9-.9s-.4-1.5-.9-1.5c-.4 0-.8.4-.8.9zM417.9 555.2c-.5 1.8-.6 3.8-.1 3.4.7-.8 1.2-3.6.6-3.6-.2 0-.4.1-.5.2zM328 558c-.9.6-1 1-.3 1 .6 0 1.5-.5 1.8-1 .8-1.2.4-1.2-1.5 0zM335.5 557.9c-.3.5-.2 1.2.3 1.5.5.3.9-.1.9-.9 0-1.7-.3-1.9-1.2-.6zM405 558.1c0 .5.5.7 1 .4.6-.3 1-.8 1-1.1 0-.2-.4-.4-1-.4-.5 0-1 .5-1 1.1zM323.5 558.9c-.3.5-.2 1.2.3 1.5.5.3.9-.1.9-.9 0-1.7-.3-1.9-1.2-.6zM315.6 560.7c-.6 1.4-.5 1.5.5.6.7-.7 1-1.5.7-1.8-.3-.3-.9.2-1.2 1.2zM359.5 560c-.3.5-.1 1 .4 1 .6 0 1.1-.5 1.1-1 0-.6-.2-1-.4-1-.3 0-.8.4-1.1 1zM447.5 560c-.3.5-.1 1 .4 1 .6 0 1.1-.5 1.1-1 0-.6-.2-1-.4-1-.3 0-.8.4-1.1 1zM459.5 560c.3.5.8 1 1.1 1 .2 0 .4-.5.4-1 0-.6-.5-1-1.1-1-.5 0-.7.4-.4 1zM285.3 563.1c-.2 2.3.3 2.5 1 .4.4-.8.3-1.6-.1-1.9-.4-.3-.9.4-.9 1.5zM299.4 561.8c.4.3 1.4.7 2.2.8.9.1 1.3 0 1-.4-.4-.3-1.4-.7-2.2-.8-.9-.1-1.3 0-1 .4zM337.5 562c.3.5.8 1 1.1 1 .2 0 .4-.5.4-1 0-.6-.5-1-1.1-1-.5 0-.7.4-.4 1zM341 562.1c0 .5.5.7 1 .4.6-.3 1-.8 1-1.1 0-.2-.4-.4-1-.4-.5 0-1 .5-1 1.1zM389.6 562.2c.3.4 1.1.5 1.9.1 2.1-.7 1.9-1.2-.4-1-1.1 0-1.8.5-1.5.9zM413.6 562.2c.3.4 1.1.5 1.9.1 2.1-.7 1.9-1.2-.4-1-1.1 0-1.8.5-1.5.9zM262.7 564.1c.7.7 1.5 1 1.8.7.3-.3-.2-.9-1.2-1.2-1.4-.6-1.5-.5-.6.5zM292.7 564.1c.7.7 1.5 1 1.8.7.3-.3-.2-.9-1.2-1.2-1.4-.6-1.5-.5-.6.5zM313.4 564.4c.1.8.5 1.8.8 2.2.4.3.5-.1.4-1-.1-.8-.5-1.8-.8-2.2-.4-.3-.5.1-.4 1zM359 564c0 .5.5 1 1 1 .6 0 1-.5 1-1 0-.6-.4-1-1-1-.5 0-1 .4-1 1zM370.5 564c-.3.6.1.7.9.4 1.8-.7 2.1-1.4.7-1.4-.6 0-1.3.4-1.6 1zM321.9 565.2c-.5 1.8-.6 3.8-.1 3.4.7-.8 1.2-3.6.6-3.6-.2 0-.4.1-.5.2zM329.6 566.2c.3.5 1 .6 1.5.3 1.3-.9 1.1-1.2-.6-1.2-.8 0-1.2.4-.9.9zM333.9 565.2c-.5 1.8-.6 3.8-.1 3.4.7-.8 1.2-3.6.6-3.6-.2 0-.4.1-.5.2zM341 566c0 .5.5 1 1.1 1 .5 0 .7-.5.4-1-.3-.6-.8-1-1.1-1-.2 0-.4.4-.4 1zM381.5 566c-.3.5-.1 1 .4 1 .6 0 1.1-.5 1.1-1 0-.6-.2-1-.4-1-.3 0-.8.4-1.1 1zM435.3 568.5c0 .8.4 1.2.9.9.5-.3.6-1 .3-1.5-.9-1.3-1.2-1.1-1.2.6zM352.6 569.8c-.3.5.1.9.9.9s1.2-.4.9-.9c-.3-.4-.7-.8-.9-.8-.2 0-.6.4-.9.8zM367 570c0 .5.9.8 2 .7 2.1-.1 1.8-1-.5-1.3-.8-.1-1.5.2-1.5.6zM337.6 571.8c-.3.5.1.9.9.9s1.2-.4.9-.9c-.3-.4-.7-.8-.9-.8-.2 0-.6.4-.9.8zM348.6 571.8c-.3.5.1.9.9.9s1.2-.4.9-.9c-.3-.4-.7-.8-.9-.8-.2 0-.6.4-.9.8zM273.9 576.7c-1.3 1.6-1.2 1.7.4.4.9-.7 1.7-1.5 1.7-1.7 0-.8-.8-.3-2.1 1.3zM367.5 576c.3.5.8 1 1.1 1 .2 0 .4-.5.4-1 0-.6-.5-1-1.1-1-.5 0-.7.4-.4 1zM363 586.4c0 .2.8 1 1.8 1.7 1.5 1.3 1.6 1.2.3-.4s-2.1-2.1-2.1-1.3z"/></svg>